/* XPM */
static char *exit1709226202[] = {
/* columns rows colors chars-per-pixel */
"64 64 256 2 ",
"   c #010101",
".  c #02030B",
"X  c #09070B",
"o  c #030513",
"O  c #080719",
"+  c #030B1C",
"@  c #10081F",
"#  c #030E22",
"$  c #0D0823",
"%  c #0C092A",
"&  c #120928",
"*  c #0A1226",
"=  c #03132B",
"-  c #111226",
";  c #12142B",
":  c #13182D",
">  c #0C0D35",
",  c #160A37",
"<  c #130C34",
"1  c #130C3B",
"2  c #071738",
"3  c #171537",
"4  c #1B143C",
"5  c #0D0E44",
"6  c #160D47",
"7  c #0E1342",
"8  c #171547",
"9  c #1D1444",
"0  c #1C134C",
"q  c #170E56",
"w  c #141452",
"e  c #1B1353",
"r  c #17165C",
"t  c #1B155B",
"y  c #211845",
"u  c #22164C",
"i  c #231B4C",
"p  c #251C53",
"a  c #24155B",
"s  c #2B155E",
"d  c #271859",
"f  c #2A1C5C",
"g  c #15274F",
"h  c #192A54",
"j  c #2A235B",
"k  c #302458",
"l  c #1C1867",
"z  c #1E1975",
"x  c #220D60",
"c  c #241363",
"v  c #291566",
"b  c #231A63",
"n  c #2B1A64",
"m  c #2C156B",
"M  c #221C6C",
"N  c #2C1B6C",
"B  c #321867",
"V  c #331C6C",
"C  c #271B76",
"Z  c #2C1B72",
"A  c #341B73",
"S  c #391E72",
"D  c #331579",
"F  c #351B7B",
"G  c #3B1D7C",
"H  c #1E2B6E",
"J  c #282765",
"K  c #352569",
"L  c #223465",
"P  c #26356B",
"I  c #33366D",
"U  c #2B2474",
"Y  c #252578",
"T  c #2C217A",
"R  c #2D2B7B",
"E  c #352373",
"W  c #3A2877",
"Q  c #33247C",
"!  c #3C237A",
"~  c #2B3678",
"^  c #34367B",
"/  c #431C7B",
"(  c #541E7A",
")  c #432977",
"_  c #42247D",
"`  c #542C7D",
"'  c #672C7F",
"]  c #E5AC70",
"[  c #F7DB74",
"{  c #291C85",
"}  c #3C1D82",
"|  c #381A87",
" . c #3C1B93",
".. c #1C2992",
"X. c #2B2485",
"o. c #2C2B84",
"O. c #292889",
"+. c #3C2383",
"@. c #352887",
"#. c #3B2A8C",
"$. c #293389",
"%. c #353484",
"&. c #373888",
"*. c #2A2B96",
"=. c #3A2A95",
"-. c #2A3796",
";. c #333494",
":. c #373898",
">. c #1D3AA5",
",. c #293AA5",
"<. c #363AA4",
"1. c #3C36AA",
"2. c #431C88",
"3. c #531E8E",
"4. c #461A9A",
"5. c #422383",
"6. c #452A85",
"7. c #44248B",
"8. c #4A258C",
"9. c #432A8C",
"0. c #4B2B8C",
"q. c #51268E",
"w. c #48348B",
"e. c #442797",
"r. c #4C2493",
"t. c #442C93",
"y. c #4B2B94",
"u. c #4D2C9B",
"i. c #522C95",
"p. c #562798",
"a. c #542C9C",
"s. c #4C3394",
"d. c #483799",
"f. c #523294",
"g. c #54339B",
"h. c #59359D",
"j. c #543B9C",
"k. c #6F2C93",
"l. c #4C1CA2",
"z. c #541EA5",
"x. c #472AA2",
"c. c #5528A5",
"v. c #5B2DA3",
"b. c #4738A9",
"n. c #5737A6",
"m. c #5B32A4",
"M. c #5B3CA3",
"N. c #5438B1",
"B. c #682BAA",
"V. c #742EA9",
"C. c #6538A9",
"Z. c #6939B5",
"A. c #753BB5",
"S. c #2D4797",
"D. c #3B439A",
"F. c #1D58BB",
"G. c #2844AB",
"H. c #3A43A3",
"J. c #3946A9",
"K. c #2752A7",
"L. c #3856A9",
"P. c #2A4AB3",
"I. c #394BB4",
"U. c #2657B9",
"Y. c #3D53B4",
"T. c #3859B9",
"R. c #1864BF",
"E. c #2C68B5",
"W. c #3768B9",
"Q. c #464A8B",
"!. c #45469C",
"~. c #594799",
"^. c #4649A7",
"/. c #5647AA",
"(. c #4854AB",
"). c #5353AD",
"_. c #4949B3",
"`. c #5A48B4",
"'. c #4353B3",
"]. c #4958B6",
"[. c #425BBA",
"{. c #5759B6",
"}. c #6546AA",
"|. c #6846B5",
" X c #6C4EB1",
".X c #7547B8",
"XX c #7B56BB",
"oX c #4E6FB1",
"OX c #4866BB",
"+X c #5467BB",
"@X c #275CC2",
"#X c #375AC3",
"$X c #1D6DC8",
"%X c #2767C9",
"&X c #3A67C5",
"*X c #2677C8",
"=X c #3A78C7",
"-X c #2876D1",
";X c #387AD3",
":X c #515AC5",
">X c #714EC3",
",X c #4567C3",
"<X c #4577C9",
"1X c #5470CA",
"2X c #5579C8",
"3X c #6F6EC8",
"4X c #8E329C",
"5X c #8F37A2",
"6X c #A64E98",
"7X c #A15A9F",
"8X c #884DB8",
"9X c #C5758A",
"0X c #874CC3",
"qX c #8558C4",
"wX c #965AC8",
"eX c #A15AC9",
"rX c #9169D0",
"tX c #AD70D0",
"yX c #C174C0",
"uX c #4B84BE",
"iX c #1E87D5",
"pX c #2B87CA",
"aX c #3787C9",
"sX c #3393CC",
"dX c #2785D3",
"fX c #388AD4",
"gX c #2996D6",
"hX c #3799D5",
"jX c #3CA5D9",
"kX c #3BB2E2",
"lX c #4684CA",
"zX c #558BCA",
"xX c #5095CE",
"cX c #4689D5",
"vX c #5489D5",
"bX c #469AD6",
"nX c #5697D4",
"mX c #6C8FCF",
"MX c #47A9DB",
"NX c #57A7DB",
"BX c #66ABDB",
"VX c #539BE0",
"CX c #50B1E2",
"ZX c #72B6E5",
"AX c #7BC6E7",
"SX c #DEA59E",
"DX c #CE8BB1",
"FX c #DDA8AB",
"GX c #F5D590",
"HX c #F2D1A8",
"JX c #B58BCD",
"KX c #98A9DF",
"LX c #CA94CC",
"PX c #D5A6D1",
"IX c #A6CFEA",
"UX c #CCD6EE",
/* pixels */
"P P L h g L P P L L L P $.%.D.!.!.&.!.^.:.;.o.$.;.:.<.1.1.I.,.*...>.G.J.I.:X:XI.1.*.*.,.,.1.*.X.@.;.=.#.#.t.d.b.d.@.W E I K k k ",
"h L L L L ~ ~ S.~ P P ~ ~ %.D.D.D.D.{.(.:.-.-.:.:.-.<.J.I.I.G.,.>.,.G.G.P.I.I.I.P.P.>.G.>.>.*.*.=.=.=.#.=.e.d.d.%.W W Q W K k K ",
"h h L L L ~ ^ &.%.~ %.%.&.&.D.S.D.^.:X:XJ.<.D.J.J.,.<.#XT.W.E.F.F.U.U.P.P.P.@X#X@X@X@X#X#X>.*.{ *.=.:.x.=.=.=.#.Q E E W K ) ) K ",
"L L L L P I S.^ ~ &.&.&.&.&.&.&._.].'.'.I.J.Y.Y.J.1._.,X&X%X*XdXdX$XF.U.F.%X%X%X-X@X@X,X:X,.....O.;.b.b.x.=.=.@.Q @.+.! ) ) ) ` ",
"P L P J I &.%.%.^ %.%.o.o.o.$.H._.#XI.I.T.[.,X[.T.#XOX].=X*XpXgXgXdX*X*X*X*X$XU.@X%X%X;X1X@X>.>.,.,.b.1.1.=.=.=.;.#.#.+._ 6.) ) ",
"P L L P ^ &.&.%.%.%.^ %.:.:.J.I.I.#X#X&X<XvXvX<X,X,XL.$.E.pXsXjXjXgXgXiXiX$XR.%X%X-X;X;X;X%X@XF.@XP.1.1.1.,.<.<.^.d.u.n.h.8._ K ",
"L L L L ^ %.^ ^ @.R o.!.(._.I.I.#X#X;XcXVXVXvX=X;X;XW.K.E.jXkXkXkXkXgXpXgXdX*X-XdXdXiXgX-X-X$X%XP.,.,.<.,.J._._._.`.`.Z.u.7./ ! ",
"L L L L ~ R Q R R T o.d.].I.I.@X%X;XfXNXCXCXsXaXfXhXfXfXjXCXkXCXkXCXbXpXgXpXdXhXgXiXgXiX-X$XR.F.,.>.,.,.P.#X#X#X:X:X>XN.u.y.r.e.",
"H J J J R R U R R Y $.<.'.T.@X;XfXbXbXNXCXMXsXsXhXjXbXbXbXbXjXbXjXbXsXaXsXpXpXsXsXsXsXgXiXR.F.F.G.,.L.K.U.=X;X<X,X:X:XZ.Z.Z.N.1.",
"L P ~ %.%.R U U o.%.!.'.[.&X;XbXCXNXxXnXNXNXxXxXbXbXW.Y.L.L.S.E.L.E.E.E.*XE.E.pXsXhXsXpXgXiX-X$X@X@XE.E.&XaXcXW.T._.N.`.>XZ.c. .",
"R ~ R R @.%.^ R o.D.OX,X;XfXMXCXBXnXOX2XBXBXMXsXuXoXL.S.S.~ $.$.S.S.S.K.K.U.W.=XaXaXsX*X$XiXiX-X-X-XuXL.L.W.fXW.H.;.t.>XZ.r.{ | ",
"~ R U U W %.&.!.^.+X1X2XcXCXZXIXKXKX3XmXZXNXuXW.oXL.:.o.$.Y Y Y ..$.$.$.G.K.T.W.W.E.W.pX*XdXdX-X;XlXxXoXL.W.lXL.;.o.#.`.b.m x | ",
"W R R R R &.(.+X1X1X1X2XVXIXIXIXUXKXKXZXNXoXE.K.L.:.Y Y Y z H z H H H ....-.H.H.&.S.E.=XaXfXfXlXlXnXnXuXuXxXlXL.:.=.=._.1.D c | ",
"R %.w.Q.&.^.+X+X1X1XVXVXAXIXUXUXKX3X1X,XL.-.-.-.Y H l l l r l l r r H l M R o.Y C R -.W.;XcXxXNXnXnXzXzXnXnXxXOX].!.:.b.b.=. .=.",
"^ w.^.^.^.+X:XY.#X<XVXZXKXIXIXJX3X_.H.,.*.O...H r 7 2 7 2 7 7 6 w r r r w w w 6 w l $.L.=X<XuXxXnXoX<XnXnXzXzX2X+XJ.<.1.N.N.N.1.",
"!.!./.).{.1X,X:X#XcXVXVXmXmX3X>Xb.*.O...z z r w 5 > > > > > > 7 w r w 7 > = $ % 1 J &.L.<XzXoXlXOXW.<XzXoX!.oXOX:XY.I.1.b.N.b. .",
"!.!./.).{.:X,X,X&X<XvX<X,X].b.1.*.{ l r q q q 5 5 1 7 7 2 1 7 w r r w 8 1 % # % 8 Y &.J.L.OX<X=X=X=XzXOX^ ^ oXoXOXT.T._.N.`.g.Z ",
"w.!.^.:.^._.OX,X=X<X,X,X:X1.*...{ z q q q q r r q w 7 8 2 7 7 6 w r r t w 5 7 w J R O.o.$.-.L.E.aXnXvXD.I I mXmX<X#XT.[._._.t.b ",
"%.@.Q @.:.J.T.,X<X,XT.[.I.*.X.z z x q q r r { { M w < $ O o o O O + % 7 e l U M z M M b j J R S.L.<X2XD.D.oXmX2X,X&X[.'.1.=.@.F ",
"A V Z T =.H.T.,X,XT.Y.J.-.M r q z | { z z { { l 6 $ . .   .           o O 3 t M z r w 8 9 8 0 J S.W.(.D.~.+XzX,X,X,X'.$.o.*.#.X.",
"N Z N T X.<.'.,XW.J.'.H.O.x 6 6 x | | { ..{ x 5 $ X   .                   . & 8 r r 8 1 1 1 < 0 U D.(.(.oXzXOXW.OX].D.T @.O.X.C ",
"N N N T @.<.I.[.].I.'.<.Y q 6 5 q l C { { z 5 % o o X X                       O > w w 6 1 1 1 4 J &.^.oX2X1XOXOX(.!.:.U =.X.C Z ",
"N M U T d.^.^.Y.'._.J.;.z q < % , q C { { x , O o X X X                         o < 0 q q 0 0 p ^ !.Y.'.].OXOX[.(.(.&.U ;.X.l l ",
"N T @.w.b.H.^.J.'.J.;.@.C 6 $ @ % q C { F m , O X                                 o 1 a m n c E &.^.L.^.(.Y.[.J.L.J.;.;.<.*.C C ",
"w.j.!.d.:.^.(.'.J.:.;.d.w.9 $ % 1 t v c x 6 & X                                     @ q Z m c E &.&.S.D.D.L.Y.Y.I.D.;.<.:.=.{ X.",
"}.}.j.t.w.).{.'.H.%.%.w.` 6 % , q e 0 q 6 & X .                                       < m C c n W R R -.D.D.J.'.'.H.;.<.*.*.O.Y ",
"XX}.y.9.d.+X+X'.:.o.o.@.n 1 < 1 0 0 < 6 0 , o .                                       @ u F m n K U R %.D.H.,.L.].^.:.:.*.O.X.Y ",
"XXM.t.#.j.+X].J.-.o.X.T a < < 5 0 6 $ & , & X                                         . , G A V N M R ;.H.:.-.J.].+X(.D.O.O.{ Y ",
"h.i.t.t.^.{._.:.;.O.X.Z a > 1 q e < @ $ , & o                                           @ B A E N b Q &.<.:.:.H.'.].).^.o.Y Y Y ",
"p.h.u.d.^.{._.:.*.#.@.Q b 5 q z t $ o & & & o                                           O p +.+.K l T #.d.:.-.<.J.].].<.o.C Y Y ",
"m.h.i.d./.).^.=.=.=.+.C c 6 l C a O o $ & & .                                           . y 9.9.N e J @.;.:.:.J.H.(.{.^.O.C Y Y ",
".X}.g.t./.(.b.:.=.=.| Z c t C T 0 o X @ $ O                                             X , h.u.b 0 K #.;.;.S.J.J.).{.<.O.C M l ",
"8X Xj.d./._.b.=. .@.{ Z b l M l 1 o . X X             X                                   & ~.y.N d W #.=.H.H._.(.{.).;.{ C l b ",
"qXqX}.~.).(.b.=.=. .Z m v b b t 1 X                     .                                 - 0.0.N f n &.^.^.'.(.{.{.j.$.T C M b ",
"XXqXXX`. X/.d.t.u.#.D v c a r t 3     X                                                   @ _ +.m p n d./._._.). X{.d.@.X.C K b ",
" XXXXX>XXX|.j.u.u.y.F m a q 0 t 3 . .               .                                     & S G n p K ~.{.{./.). X|.n.#.Q E N b ",
"C..X8XrXrX>X/.y.y.i.+.N a e e r 6 X                     . .   .               .     .   X & +.+.N f K ~.`./.d./. X}.j.9.! N n f ",
"C..XrXJXrX>X}.t.9.} G Z c b t b 8               . . . . . . . . . . . . . .   . .     . . , 7.y.W V W d././.d.n.d.d.t.y.+.V b f ",
"C..X>XrXrXrX|.n.t.5.F D N n r U j o               . . . . . . . . . . . . . . . . . .   O y 7.r.E K E w.j.j.d.s.t.9.t.t.Q n p d ",
"C.|..XXXqX>XXXn.y.t.+.A N M b R j @       . . X . .   . . . . . . o o . . o . . . . . . @ B 7.5.V B W 9.9.t.d.t.t.t.+.+.V f d d ",
"V.A.Z.C.m..X Xm.s.u.+.C N n b T J : .     . .   . . . . o . X o o o . o o o o o o o . o < / 8./ B n W 6.#.9.9.s.f.0.G A s f K K ",
"V.A..XA.C.C.|.C.u.t.+.A N n b Z U t O . . . . . . o o . o o o o o o o o o o o o o o o + u p.a.5.V V A +.9.9.f.j.y.! A S f f J n ",
"8X8X8X0XZ.Z.Z.C.m.r.5.A m c N Q @.^ ; o X . o . o X + X o o o o + o + + o o + o + o o ; V v.p.2.B n E 9.t.u.j.f.! B B V d f f f ",
"8XwXwXwX.XC.v.m.m.a.7.G Z n B C #.#.p $ . . o o o + X X + + + + + o + + + + + + + + # p 7.p.r.} m s V 7.s.n./.6.V n c d u p f p ",
"eXeXtXtXwX.Xa.p.v.m.i._ A N m F #.=.@.y O o o o + + + + + + + + + + # + # + # # # + 9 ) a.r.2.D m x B 5.s.M.M.+.V s u 9 u p J p ",
"eXeXtXtXtXwXA.c.a.m.h.0.F +.F D | #.u.+.i O + + + + + + # # # = # # # # # = = # = > W M.Z.r.| D m x B 2.f.M.M.+.V d 6 4 p K K u ",
"0XeXtXtXtXwXA.v.v.B.C.0.A } G Z D #.x.x.W 9 + + # # # # * # = = = = = = = = = = 2 K h..XC.2.| Z m V E 5.s.M.s.! s u 4 4 p K p 4 ",
"eXeXLXLXtXwX>XZ.v.C.C.a.} +.G m m | =.x.t.^ i * # * = = = = = = = = = 2 = = = 7 K j.Z.C.c.| D A F _ 6._ f.j.s.! d 4 3 i K j 0 3 ",
"eXtXLXPXtXtXqX.XC.B.C.v.e.7.+.m x D =. .e.x.%.j 3 : = = 2 = 2 2 2 2 2 = 2 2 g ^ j.Z.Z.c.4.| D G 5.6.w.0.f.j.w.W p 3 3 k K n y 3 ",
"eXLXPXPXtXtXrXqX.XC.m.m.c.t.8.A x C D =.=.b.N.b.^ L g 2 2 : 2 2 2 7 2 g g J w.Z..XZ.c.4.| +.| 5.6.8.j.j.j.s.6.W u 3 y f f p 4 3 ",
"yXPXPXLXwXwXqXXX8X.Xv.v.c.u.m.y.G A Z D | =.b.|.XX/.) I L g g g h h j I Q.}.>X0XA.z.4.|  .y.g.u.f.j.}.j.j.s.6.K y 3 u f j i 4 9 ",
"tXyXPXLXtXeXwX8XwX8XC.c.m.m.h.u.t.#.F Z | u.N.Z.>X|.{. X X~.~.~.~.~.}.}.C.Z.Z.B.z.l. .4.a.M.h.0.f.}.}.}.j.t.E p y y k k p i 3 3 ",
"yXLXPXFXLXLXJXJXJXtX.Xv.v.m.h.u.a.u.9.G  .e.l.x.N.b.N.qXqX>XXX>XXXXX.XA.N.z.z.l.l.4.u.v.M.h.f.f.h.}.}.C.j.W B y y i K k j y 3 : ",
"DXFXHXFXLXtXyXJXLXrX.Xv.a.i.g.g.y.y.y.t.e. . . . .4.r.|..X>X>X>X>X>XZ.z.l.4.4.l.z.v.M.C.C.g.g.h.j././.j.w.E p y i j j j i 4 : : ",
"FXHXHXSX7X5XC.8XwX.XB.v.r.8.i.8.2.6.y.h.g.t.| | D } 2.p.h.n.C.Z.0XA.B.z.l.4.l.c.a.C.C.C.g.h.M.M.g.f.j.f.! f y y i k k i 4 3 : : ",
"SXHXHXyX5Xk.V.A.A.B.p.p.r.8.8.G F G 0.h.n.p.y.e.F D 2.r.m.c.x.c.Z.V.z.z.z.4.z.p.h.g.y.y.i.i.f.8.0.f.0.E f u y i i i i 4 ; ; ; ; ",
"GXHXSX6X4XB.V.V.B.3.2.3.3.p.q.8.} G G 8.y.e.7.r.5.2.2.4.c.e.4.e.l.z.3.2.| | 2.4.q.6.5.G S / _ 6.0.) V f p p i i i i 3 : - - : - ",
"GXGX9X6X4X4XV.V.p.} D D q.p.q.q.8.5.S } 7.2.G 5.7.2.2. . .+.9.p.3.3.2.D | D | 2.8._ / ! G ! +._ ! B d f f i i y 4 3 - - @ - ; : ",
"[ ] 9X6X4Xk.k.V.3.m m S q.q.q.q.i.0.2.6.7.+.F D F | } F +.u.h.p.p.q.q.q.2.2.2.p.p.q.5.5.6.5.7.E f u u p p y 9 3 : ; @ @ - - : : ",
"] ] 6X4X4XV.z.3.| m B S ) _ / ) / 5.0.8.7.+.G G 2.5.0.i.M.C.h.i.q.p.C.m.m.m.m.B.C.i.8._ G G A n u y 9 0 y y y : : ; - - - : - - ",
"] 9X6X4X4XV.3.2.D S _ ) ) B B s s B / 7.5.G G 8.a.h.h.p.h.i.y.8.8.8.8.7.8.y.g.s.5.F N c a B n d u y 9 9 9 i y : : - - * : : : : ",
"6X6X5Xk.k.3.3.2./ / 8.q./ ) B s d s G 7.5.G G 2.5.5.2.8.2.! _ _ _ S A S F _ 6.! m a u 0 e d d f f f u y 9 4 : : - - - * : : : * ",
"4X' k.k.( / / / / 5.2._ _ _ S B s B G } / S A V V V S G S G ! _ S V V V E ) W E b a u p f f f K K f u 9 3 3 ; - - - : * : : : * ",
"' ' ( ) ( B B B B B S S S K / B B V V V B V A S A W 0.f.w.0.w._ S S V E V W ) E K d f K W K B p p y 4 < ; ; : : - * : * * : : : "
};
