/* XPM */
static char *af7883ae0afc4bffaa279a6338ec0ee06Gy9P8CsIaDGGOHw[] = {
/* columns rows colors chars-per-pixel */
"64 64 182 2 ",
"   c None",
".  c #66779E",
"X  c #65789F",
"o  c #68789F",
"O  c #647AA2",
"+  c #6A7AA2",
"@  c #627EA8",
"#  c #717EA7",
"$  c #737FA9",
"%  c #5F82AD",
"&  c #5487B6",
"*  c #5B83B0",
"=  c #558BBB",
"-  c #5A8DBD",
";  c #5D90BE",
":  c #6B83AE",
">  c #7782AD",
",  c #7883AE",
"<  c #6C86B2",
"1  c #6688B6",
"2  c #6D88B5",
"3  c #638AB9",
"4  c #7384B0",
"5  c #7B86B2",
"6  c #7189B6",
"7  c #7E89B5",
"8  c #6693BD",
"9  c #5B8FC1",
"0  c #5D90C1",
"q  c #6493C5",
"w  c #6C93C4",
"e  c #6C99C6",
"r  c #6794C8",
"t  c #6996CA",
"y  c #6B98CC",
"u  c #7199C2",
"i  c #7C9FC6",
"p  c #749CCE",
"a  c #769CD2",
"s  c #7A9ED4",
"d  c #7DA5CF",
"f  c #7CA1D5",
"g  c #818BB7",
"h  c #818BB9",
"j  c #8790BF",
"k  c #8099BD",
"l  c #8E9EBE",
"z  c #99A2BD",
"x  c #8791C0",
"c  c #8A94C4",
"v  c #8D97C8",
"b  c #8C98C9",
"n  c #929BCD",
"m  c #959ED1",
"M  c #83A2C7",
"N  c #81A1CE",
"B  c #89A5C8",
"V  c #97A8C7",
"C  c #95ABCB",
"Z  c #84AAD1",
"A  c #82A3D9",
"S  c #89A7DD",
"D  c #8BAADB",
"F  c #97A0D3",
"G  c #99A2D5",
"H  c #97ACD0",
"J  c #99ADD1",
"K  c #92A7DE",
"L  c #9EA6DB",
"P  c #93AADE",
"I  c #8FB0D7",
"U  c #8FB0D8",
"Y  c #90B2D7",
"T  c #94B3D9",
"R  c #9BB8DC",
"E  c #ABB5CE",
"W  c #B0B6CE",
"Q  c #A0A7DD",
"!  c #A0A8DE",
"~  c #A3B3D5",
"^  c #AFB7D1",
"/  c #B1B7D0",
"(  c #B4BAD2",
")  c #BABFD6",
"_  c #B1B7DA",
"`  c #B5BBDD",
"'  c #8FA9E0",
"]  c #93ABE4",
"[  c #98AEE7",
"{  c #9BAFE9",
"}  c #99B1E5",
"|  c #9DB1E9",
" . c #A4ABE2",
".. c #A8AFE6",
"X. c #A8B0E7",
"o. c #A2B3EC",
"O. c #AAB1E9",
"+. c #ACBCEE",
"@. c #B6BCE2",
"#. c #B7BDEB",
"$. c #ACB6F2",
"%. c #ADB9F4",
"&. c #B0B7F1",
"*. c #B3BAF4",
"=. c #B8BEF4",
"-. c #B6BDFA",
";. c #B9BFFB",
":. c #BAC0D7",
">. c #BCC2D9",
",. c #A7C0E1",
"<. c #A9C1E3",
"1. c #B5C6ED",
"2. c #B9CCEA",
"3. c #B6C2F4",
"4. c #BDC6F7",
"5. c #BFC8F6",
"6. c #BCC2FC",
"7. c #C0C5DC",
"8. c #C4C9DF",
"9. c #C6CAE1",
"0. c #C9CEE4",
"q. c #CCD0E6",
"w. c #C5D4EF",
"e. c #CFD3E9",
"r. c #D3D7EC",
"t. c #D5D9EE",
"y. c #C0C9F7",
"u. c #C1C5FD",
"i. c #C5CAFC",
"p. c #C9CEFC",
"a. c #C6D1F4",
"s. c #CCD4F3",
"d. c #CEDAF3",
"f. c #CED2FD",
"g. c #D5DDF5",
"h. c #DADDF2",
"j. c #D3D7FD",
"k. c #D1D5FE",
"l. c #D2D6FE",
"z. c #D6DAFD",
"x. c #D7DBFE",
"c. c #D5D8FD",
"v. c #D6D9FD",
"b. c #D8DBFE",
"n. c #D8DBFF",
"m. c #D9DDFE",
"M. c #DADCFF",
"N. c #DADDFE",
"B. c #DADEFF",
"V. c #DADDFE",
"C. c #D7E0F7",
"Z. c #DEE1F5",
"A. c #DEE1F5",
"S. c #DFE2FE",
"D. c #DDE0FE",
"F. c #DDE1FD",
"G. c #E0E2F7",
"H. c #E1E4F9",
"J. c #E2E5F9",
"K. c #E3E5FA",
"L. c #E0E3FF",
"P. c #E3E5FE",
"I. c #E3E5FF",
"U. c #E3E6FF",
"Y. c #E3E6FE",
"T. c #E5E7FF",
"R. c #E3E5FE",
"E. c #E6E8FD",
"W. c #E7E9FF",
"Q. c #E6E9FF",
"!. c #E6E9FE",
"~. c #E6E9FE",
"^. c #E9EBFF",
"/. c #E8EAFF",
"(. c #EAECFF",
"). c #EBEDFF",
"_. c #EBECFF",
"`. c #ECEEFF",
"'. c #EDEEFF",
"]. c #EEEEFF",
"[. c #E9EBFF",
"{. c #F1F0FF",
/* pixels */
"                                                  ^.(.P.6.-.;.;.;.;.;.;.;.;.;.                                                  ",
"                                        ^.^.^.^.^.(.P.i.S a ] 6.6.f.f.;.;.;.;.;.;.;.;.;.                                        ",
"                                        ^.^.^.^.^.L.5.S 9 8 N [ -.f.z.p.6.-.;.;.;.;.;.;.                                        ",
"                                  ^.^.^.^.^.^.^.^.k.| r r J H p %.6.k.P.i.6.6.;.;.;.;.;.;.s =                                   ",
"                              ^.^.^.^.^.^.^.^.^.^.W.f.%.%.=.=.%.;.k.W.^.P.T.k.;.;.;.;.;.;.f * . .                               ",
"                            ^.^.^.^.^.^.(.t.9.q.W.`.T.N.N.n.n.N.n.P.(.^.(.(.P.n.z.N.f.;.;.s & % O .                             ",
"                          ^.^.^.^.^.(.^.h.>.E ( e.J.(.(.(.(.(.(.(.(.^.^.^.^.(.(.(.`.D.p.6.] y = % O .                           ",
"                        ^.^.^.^.^.^.W.h.) / ( :.:.h.(.^.^.^.^.^.^.^.^.^.^.^.^.^.^.^.(.P.6.;.{ q - % O .                         ",
"                  ^.^.^.^.^.^.^.^.(.h.) ( / 9.J.J.W.^.^.^.^.^.^.^.^.^.^.^.^.^.^.^.^.(.P.u.;.-.o.q = % . . # ,                   ",
"                ^.^.^.^.^.^.^.^.^.(.J.t.t.t.Z.`.`.(.^.^.^.^.^.^.^.^.^.^.^.^.^.^.^.^.^.W.N.i.;.-.{ y * . . + # ,                 ",
"                ^.^.^.^.^.^.^.^.^.(.(.`.`.L.n.z.n.P.(.^.^.^.^.^.^.^.^.^.^.^.^.^.^.^.^.^.(.f.-.;.6.[ w @ X . + <                 ",
"                ^.^.^.^.^.^.^.^.^.T.P.P.P.p.;.;.;.n.(.^.^.^.^.^.^.^.^.^.^.^.^.^.^.^.^.^.^.p.-.;.;.6.[ - O . % -                 ",
"              ^.^.^.^.^.^.^.^.^.^.f.6.6.6.6.;.;.;.z.(.^.^.^.^.^.^.^.^.^.^.^.^.^.^.^.^.^.^.p.-.;.;.6.[ - O % - - 4               ",
"            ^.^.^.^.^.^.(.z.p.p.f.u.{ a s s s A *.i.z.^.^.^.^.^.(.(.(.^.^.^.^.^.^.^.^.^.^.D.f.;.;.] r - l V i - 3 <             ",
"          ^.^.^.^.^.^.W.N.i.;.-.[ 3.1.Z ; = 0 A %.-.p.^.^.^.(.W.t.r.Z.(.(.^.^.(.^.^.^.^.^.`.N.;.;.s ; M ^ ) C - - < ,           ",
"        ^.^.^.^.^.^.(.P.u.;.-.o.p 2.{.g.e 9 A ;.6.6.f.^.^.^.(.J.7.( 8.J.J.W.W.P.^.^.^.^.^.W.k.;.;.s u E ( ^ B - - < , >         ",
"        ^.^.^.^.^.^.(.P.u.;.[ p w.W.`.g.e S -.6.D.P.T.^.^.^.^.^.J.8.( :.:.h.N.i.P.(.^.^.^.f.6.;.;.s - e E M 0 - < > > >         ",
"      ^.^.^.^.^.^.^.^.W.N.i.$.] I d.T.i.| 5.N.N.^.(.(.(.^.^.^.^.(.G.0./ W t.T.z.p.D.(.^.^.p.-.;.;.o.s - u ; y K 7 > > > >       ",
"      ^.^.^.^.^.^.^.^.^.(.z.i.*.A R 1.6.p.L.`.(.^.(.H.h.W.(.(.(.(.Z.0.( 9.Z.`.W.f.k.D.^.^.z.p.p.6.6.o.s s s [ *.7 > > > >       ",
"      ^.^.^.^.^.^.^.^.^.^.(.N.6.;.s a 6.P.(.^.^.^.(.h.7.h.J.J.J.J.9.W :.J.(.^.^.^.p.p.^.^.^.(.P.6.;.;.;.;.;.-.X.j , > > >       ",
"  ^.^.^.^.^.^.^.^.^.^.^.^.^.^.D.6.a a 6.P.(.^.^.^.^.W.h.7.) :.:.:.( ( :.J.(.^.^.^.p.p.^.^.^.(.P.u.;.;.;.;.6. .x X.v > > > > >   ",
"  ^.^.^.^.^.^.^.(.r.r.^.^.^.`.A.D 9 a 6.P.(.^.^.^.^.(.^.t.>.E W W 9.t.h.W.^.^.^.(.f.o.R A.(.^.W.N.i.;.;.;.6.&.L n g > > > > >   ",
"  ^.^.^.^.^.^.W.h.>.9.^.^.^.`.g.e r } f.T.(.^.^.^.^.^.^.(.t.9.9.9.Z.`.(.^.^.(.^.N.+.a r g.`.^.(.(.f.-.;.;.;.6.*.7 $ > > > > >   ",
"  ^.^.^.^.^.(.J.:.W 9.^.^.^.^.d.e ] f.^.^.^.^.^.^.^.^.^.^.^.^.^.^.^.^.^.^.^.^.D.6.S q p j.^.(.^.P.p.;.;.;.;.-.X.j , > > > > >   ",
"  ^.^.^.^.^.(.J.:.W 9.^.^.(.B.*.r ] f.^.^.^.^.^.^.^.^.^.^.^.^.^.^.^.^.^.^.(.N.6.6.f.a.%.6.N.(.P.i.6.;.;.;.6. .x X.v > > > > >   ",
";.i.z.^.^.^.(.J.) 9.Z.^.^.(.n.$.q ] k.(.^.^.^.^.^.^.^.^.^.^.^.^.^.^.^.^.^.(.P.z.z.k.i.;.;.i.f.p.6.;.;.;.;.6.&.L n g > > > > > > ",
";.-.p.^.^.^.(.K.q.Z.(.^.^.(.L.y.A A +.N.W.^.^.^.^.^.^.^.^.^.^.^.(.(.(.(.^.^.(.(.(.z.p.p.6.;.;.;.;.;.;.;.;.;.6.*.7 $ > > > > > > ",
";.-.p.^.^.^.^.^.^.^.^.^.^.^.(.T.i.A A 6.P.(.^.^.^.^.^.^.^.^.^.^.P.P.P.P.^.^.^.^.^.^.(.P.u.%.*.;.;.;.;.;.;.;.-.X.j , > > > > > > ",
";.-.p.^.^.^.^.^.^.^.^.^.^.^.^.^.T.5.%.6.P.(.^.^.^.^.^.^.^.^.(.P.i.6.6.i.P.(.^.^.^.^.(.P.6.A A ;.;.;.;.;.;.6. .x X.v > > > > > > ",
";.;.6.f.T.(.^.^.^.^.^.^.^.(.(.^.(.L.n.N.W.^.(.W.q.Z.Z.0.K.(.D.p.6.;.;.6.T.(.^.^.^.z.p.4.A A o.;.;.;.;.;.;.L n L n g > > > > > > ",
";.;.-.6.P.(.^.^.^.^.^.^.(.D.B.^.^.(.(.(.^.(.J.e.( 9.e.0.K.`.z.-.;.o.o.6.j.T.(.^.^.z.p.4.A +.p.;.;.;.;.6.6.c v *.7 $ > > > > > > ",
";.;.;.6.D.^.^.^.^.^.^.^.P.p.f.^.^.^.^.^.^.W.r.) ( ( q.^.^.(.N.6.;.A f %.;.j.W.^.^.^.(.P.i.N.N.;.;.;.;.;.&.n n ..7 > > > > > > > ",
";.;.;.6.6.N.(.^.^.^.(.P.i.z.W.^.^.^.^.^.^.0.0.h.) e.W.^.^.^.^.D.6.*.' p %.6.f.^.^.^.^.^.T.^.n.;.;.;.6.&.c L ! 7 , > > > > > > > ",
";.6.6.6.;.z.(.^.^.(.D.p.6.i.z.^.^.^.^.^.^.h.h.W.h.J.(.^.^.(.D.p.6.] r q %.;.p.^.^.(.`.W.k.p.i.;.;.;.6.;. .m F L 7 > > > > > > > ",
"6.o.] { -.n.(.^.^.(.D.p.6.-.p.(.^.^.^.^.^.(.`.(.(.(.^.^.^.`.n.;.6.] r q S $.f.(.(.D.n.k.6.-.;.;.;.6.+. .;.v h L 7 > > > > > > > ",
"$.s = r %.N.(.^.^.^.(.P.i.6.f.P.^.^.^.^.^.T.P.P.^.^.^.^.^.W.j.;.%.6.} - q { p.P.P.p.;.;.=.;.;.;.;.6. .x X.n 5 > > > > > > > > > ",
"r 0 = q %.N.(.^.^.^.^.^.P.T.z.i.P.(.^.^.^.f.6.i.P.(.^.^.^.f.6.%.p 2.1.q o.-.6.6.6.6.;.=.` #.;.;.;.;.-.X.x L L > > > > > > > > > ",
"= i k 2 $.N.`.^.(.(.(.(.(.(.P.N.W.^.(.W.f.u.;.6.p.f.f.f.f.i.o.f <.S.j.| -.k.f.-.;.;.=.` ( #.;.;.6.6.X.n L *. .> > , , > > > > > ",
"s ~ z # +.f.L.^.N.z.z.N.^.(.(.(.^.(.T.k.6.| ] [ ] %.%.] ] ] P R J.s.1.6.;.f.f.;.;.=.` ( ` =.6.=. .&.Q 7 &.6.O.v 6 < < > > > > > ",
";.@.z 7 $.;.p.D.6.;.;.6.D.P.T.^.^.W.k.6.6.D q - - ' [ e e - Z C.W.T A ;.;.;.;.;.;.@.( ` =.;.6.&.c L L c &.-.%.o.q - 1 > > > >   ",
";.@._ $.-.;.6.6.6.;.;.6.6.6.f.^.^.f.6.6.D.S.,.- - 9 U g.g.Z - d g.i.%.;.;.;.;.;.;.=.=.=.;.;.;.;.&.n n &.-.A q q - 1 > > > > >   ",
";.=.=.6.;.;.;.;.;.;.;.;.;.-.6.f.T.p.-.u.T.B.4.] q Y d.^.k.+.s - Z +.6.;.;.;.;.;.;.;.;.;.;.6.6.*.m F O.=.b : * = % > , > > > >   ",
";.;.;.;.;.;.;.;.;.;.;.;.;.;.-.6.P.f.-.6.k.i.%.' q T s.z.6.6.o.s a o.6.;.;.;.;.;.;.;.;.;.6.X.X.&.7 ! -.F + . @ * + $ > > > > >   ",
"  ;.;.;.;.;.;.;.;.;.;.;.;.;.;.6.D.p.;.;.;.u.| q - = a %.%.$.*.;.;.;.;.;.;.;.;.;.;.;.;.;.&.n n X.x L L > o . . + > > > > > > >   ",
"      ;.;.;.;.;.;.;.;.;.;.;.;.6.6.6.;.;.;.z.k.o.q - 9 r r q A ;.;.;.;.;.;.;.;.;.;.;.6.&.c L L x X.n > + . . . + > > > > >       ",
"      ;.;.6.6.;.;.;.;.;.;.;.;.;.;.;.;.;.;.i.p.-.{ [ s 9 S ] o.;.;.;.;.;.;.;.;.;.6.6.X.n L m m Q n 5 . . . . + # > > > > >       ",
"      ;.6.X.X.6.;.6.6.;.;.;.;.;.;.;.;.;.;.;.;.;.6.6.o.A *.6.6.;.;.;.;.;.;.;.6.-. .&.L 7 &.! m K 5 + + . . + # > > > > > >       ",
"        &.n n &.;.*.*.;.;.6.6.;.;.;.;.;.;.;.;.;.;.;.;.;.;.;.;.;.;.;.;.;.;.;.-.X.x L L x X.*.] w 4 > + . + # > > > > > >         ",
"        g L L c &.m n ;.6.z.z.;.;.;.;.;.;.;.;.;.;.;.;.;.;.;.;.;.;.;.;.;.;.6. .x X.n n X.j 7 n X.7 + . + # > > > > > > >         ",
"          c F L n F F F s.z.i.;.;.;.;.;.;.;.;.;.;.;.;.;.;.;.;.;.6.6.X.m *.L n L n L L v 5 n K a 3 @ . + > , > > > > >           ",
"            c L 5  . .g s.#...6.;.6.6.;.6.6.6.6.;.6.6.;.6.6.6.-. .&.Q 7 &.v v *.7 n n > > n P f f < . + > > > > > >             ",
"              > > L L x X.n n &.;.*.*.;.&.=.=.&.;.*.*.;.&.=.-.X.x L L x X.n n ..7 > > > > > v &.$.h + > > > > > >               ",
"                > 5 n X.x L L c &.m m &.c  . .c &.m m &.c  . .x X.n n X.x L ! 7 , > > > > > 5 g g 5 > > > > > >                 ",
"                > > g v 5 h F L n F F n L n n L n F F n L n n L n F L v , x c > > > > > > > > > > > > > > > > >                 ",
"                > > > > > $ x L 5 n n 5 L m m ! n L L n ! m m ! n L n > > > > > > > > > > > > > > > > > > > > >                 ",
"                  > > > > > > > > > > > , L L g ..c c ..g L L g ..v > > > > > > > > > > > > > > > > > > > > >                   ",
"                        > > > > > > > > > 7 7 , 7 5 5 7 , 7 7 , 7 5 > > > > > > > > > > > > > > > > > >                         ",
"                          > > > > > > > > > > > > > > > > > > > > > > > > > > > > > > > > > > > > > >                           ",
"                            > > > > > > > > > > > > > > > > > > > > > > > > > > > > > > > > > > > >                             ",
"                              > > > > > > > > > > > > > > > > > > > > > > > > > > > > > > > > > >                               ",
"                                  > > > > > > > > > > > > > > > > > > > > > > > > > > > > > >                                   ",
"                                        > > > > > > > > > > > > > > > > > > > > > > > >                                         ",
"                                        > > > > > > > > > > > > > > > > > > > > > > > >                                         ",
"                                                  > > > > > > > > > > > > > >                                                   "
};
