/* XPM */
static char *bba4331aeeaf44d58c39c85bded6ecd53v2dtspZasUPu53f[] = {
/* columns rows colors chars-per-pixel */
"43 64 239 2 ",
"   c #160100",
".  c #1C0200",
"X  c #1D0C04",
"o  c #1E0B0A",
"O  c #1D070A",
"+  c #240400",
"@  c #2B0401",
"#  c #250A02",
"$  c #2B0B03",
"%  c #230C0B",
"&  c #2B0D0A",
"*  c #250709",
"=  c #330401",
"-  c #3B0500",
";  c #330B03",
":  c #3B0C02",
">  c #320E0A",
",  c #3B0E0B",
"<  c #330708",
"1  c #261106",
"2  c #2C1105",
"3  c #24110C",
"4  c #2C120C",
"5  c #2F1808",
"6  c #341205",
"7  c #3B1306",
"8  c #33140B",
"9  c #3B140B",
"0  c #36190E",
"q  c #3D190D",
"w  c #3D1903",
"e  c #2B0F11",
"r  c #230D12",
"t  c #2E1411",
"y  c #2E1812",
"u  c #321311",
"i  c #3C1511",
"p  c #341913",
"a  c #3C1B12",
"s  c #391D19",
"d  c #3F2219",
"f  c #3B2217",
"g  c #430600",
"h  c #430C00",
"j  c #4A0D00",
"k  c #460C08",
"l  c #431204",
"z  c #4B1404",
"x  c #44150B",
"c  c #4A160A",
"v  c #431A0C",
"b  c #4B1B0C",
"n  c #451805",
"m  c #521305",
"M  c #51170A",
"N  c #531C0C",
"B  c #5B1C0B",
"V  c #581803",
"C  c #411510",
"Z  c #431C14",
"A  c #4B1C13",
"S  c #4B1F1A",
"D  c #461B18",
"F  c #541E13",
"G  c #5A1D13",
"H  c #521D19",
"J  c #651D0C",
"K  c #641D12",
"L  c #4D210E",
"P  c #53210E",
"I  c #5C220D",
"U  c #442114",
"Y  c #4C2214",
"T  c #45231A",
"R  c #4B241B",
"E  c #4C2A1C",
"W  c #4A2819",
"Q  c #532214",
"!  c #5B2314",
"~  c #552916",
"^  c #5D2A16",
"/  c #54241B",
"(  c #5B261A",
")  c #532A1C",
"_  c #5B2B1C",
"`  c #5F301E",
"'  c #65240F",
"]  c #69230A",
"[  c #74260D",
"{  c #642413",
"}  c #6B2313",
"|  c #652B15",
" . c #6B2B14",
".. c #62251A",
"X. c #642C1B",
"o. c #6B2B1B",
"O. c #6B271B",
"+. c #792B1A",
"@. c #742A17",
"#. c #65311D",
"$. c #6D341D",
"%. c #6C3115",
"&. c #74331E",
"*. c #7B321B",
"=. c #783115",
"-. c #4D2623",
";. c #452922",
":. c #4C2C22",
">. c #402720",
",. c #532721",
"<. c #542C23",
"1. c #5B2C23",
"2. c #552C29",
"3. c #5C2F29",
"4. c #4E312A",
"5. c #543126",
"6. c #5C3223",
"7. c #54342C",
"8. c #5C342B",
"9. c #5E392A",
"0. c #5C3A31",
"q. c #642D22",
"w. c #6C2D22",
"e. c #6A2F29",
"r. c #722D22",
"t. c #643325",
"y. c #6A3424",
"u. c #6C3A25",
"i. c #63342A",
"p. c #6B352B",
"a. c #633B2C",
"s. c #6B3B2D",
"d. c #663926",
"f. c #743525",
"g. c #7A3523",
"h. c #733A24",
"j. c #7C3A24",
"k. c #73362B",
"l. c #723C2B",
"z. c #7B3C2B",
"x. c #79372B",
"c. c #633531",
"v. c #643A33",
"b. c #6C3C32",
"n. c #6C3C39",
"m. c #743C32",
"M. c #7C3E33",
"N. c #723733",
"B. c #58443D",
"V. c #69402D",
"C. c #74422D",
"Z. c #7B412B",
"A. c #7D4127",
"S. c #6C4135",
"D. c #6C443B",
"F. c #6B4A3D",
"G. c #744234",
"H. c #7C4433",
"J. c #764937",
"K. c #7D4936",
"L. c #73443A",
"P. c #7B4439",
"I. c #754B3E",
"U. c #7B493B",
"Y. c #7B503D",
"T. c #6E4943",
"R. c #754A42",
"E. c #7C4D43",
"W. c #7C4B46",
"Q. c #765344",
"!. c #7B5247",
"~. c #7B5854",
"^. c #81371C",
"/. c #843B26",
"(. c #833E2C",
"). c #8B3B29",
"_. c #833E34",
"`. c #923D29",
"'. c #84422C",
"]. c #8A452C",
"[. c #86452B",
"{. c #93462C",
"}. c #834434",
"|. c #8B4532",
" X c #834A35",
".X c #8B4B34",
"XX c #82453B",
"oX c #834C3C",
"OX c #8C4C3B",
"+X c #884638",
"@X c #944934",
"#X c #934B3B",
"$X c #984A33",
"%X c #8B523C",
"&X c #85503B",
"*X c #92533E",
"=X c #9B503E",
"-X c #975137",
";X c #A4583E",
":X c #844D42",
">X c #8C4D42",
",X c #934E41",
"<X c #835143",
"1X c #8C5243",
"2X c #8A5A46",
"3X c #84534B",
"4X c #8D5549",
"5X c #8B5B4C",
"6X c #865B49",
"7X c #935343",
"8X c #9A5540",
"9X c #945945",
"0X c #9B5B43",
"qX c #935C4B",
"wX c #9B5D4B",
"eX c #94564B",
"rX c #865E55",
"tX c #995E50",
"yX c #925E51",
"uX c #A45B48",
"iX c #93624D",
"pX c #8C6253",
"aX c #8F6B5D",
"sX c #9A6354",
"dX c #9C6959",
"fX c #966756",
"gX c #A7644B",
"hX c #A36552",
"jX c #A66B55",
"kX c #A56C5C",
"lX c #AA6B59",
"zX c #B1725C",
"xX c #AA745C",
"cX c #997162",
"vX c #A16F64",
"bX c #B67A69",
"nX c #A37263",
"mX c #B18173",
"MX c #C58A7A",
/* pixels */
"+XM.l.b.6.7 ; R R A : - H p.i.A :.$ $ + 6 # # y 3 % O % u u S b.H.h.d.v # # . X X X X ",
"m ! Q n 7 7 ; ; i : = k p.L.q.A 6 $ a 8 6 # + # % % % e u @ + = #.u.t.; . $ 3 X X 3 1 ",
"M c l : 7 6 $ ; $ ; @ - 1.1.l = ; . $ R R 6 . 4 % o . % t 8 $ : y.^ Q ; + # o 3 . . . ",
"_ Q 7 $ $ # # 8 $ D C : x b l l ; 2.v.8.7 T $ # . % % % 4 # @ ; u.b 7 @ # % X 3 y 4 % ",
",.9.R # + 8 0 $ 6 Z x l c c Y i.2.c.c.3.<.b.Z + # 4 % # # # 7 ) 2XK.i.6 + y 3 % . + # ",
"2.v.<.0 4 8 8 $ R : : b b n b ) 3.< = / b.6.; $ . + + + # ; ) Y.K.u._ ; . . . & # $ 6 ",
"-.T a 0 8 # + ; 6.b A q.( ~ ~ b = : R A Y / Y T 6 > $ 8 6 ; n d.N - = ; ; $ . $ Z Z x ",
", Z 9 @ $ a Z q b b X.X.! l.C.n 7 + ; A I.5XpXrXrXv.9 @ = : | wXhXOXK.P.!.Q.R @ 6.t.l.",
"< = @ R ,.,.7 : = M y.l.H.K.l._ U . $ Y ) : l 1.<.Z c.s.q.9XzX0XgX=XjXoXK.pX1.c _ oXhX",
"= H / / : : - h w.w.w.M.}.l.l.s.+ # U aX6.t.b : @ : - ! 7Xg.g ] ^./. .| y.c l X.kXjXgX",
"G p.q.b - - g B x._._.7XH.F F Y $ # cXV.J._ G.s.p.F :XeXB V /.$X).{.] { l.l = N 9X0XgX",
"M.k...X.X.m m f.}.,X_.z.! - l ; + Q.6X_ u.z 1XsXbXqX1XOXOX=X$X{.{.^.j.j.}.~ @ z 9X0X-X",
"(.x.(.OX XB { OXOX#Xz.k...l x ; w pX<Xu.^ oX9XMX:X! XXwXo./.uX;X[ V j.7Xl.z z %X9Xj.] ",
".X|.*X.XA. .j.*X'.}.OXXXq.l v 6.pX2XN Z.jXbXbXo.= N 1XtX9X0X].*.=.*.'.1XN = J.qX#.j..X",
"@X'.|.&. .%.|.[.|.z.}.( : v 5.aX5XoX9XzX9X9XB g o.tXsXh.H.9Xj. .].0X*XZ.: = S.( j H.zX",
"@.{ z.$.I I Z.$.h.I ! = : S.I.aXiXqXiXsX%X.XB }.hX1X9XH.$.%X0X'..X9XjXoXb x / A I.oXOX",
"}.}.H.~ l L ~ ~ ~ b h - - h.H.qX5Xt.oXdXdX| H. XZ.%XZ.Z. X%X9X'.&.}.k.F : , 3X!.1.s.m.",
"x.k.( : ; U E E v b.Q z }.}.OX}.( 6.Q b <X#.u.%X9X X| $.z.wXf. X}.}.XXt.= 7 !.<.<.3.A ",
"g g = @ 7 R R U / ( N ( 1X1XqXh.t.Y c : Q P &XiXxX%Xh. X7XhXz.9X%XoXG.R $ # 7.2 E R 9 ",
"- - = : Y R ) 3.1.l q.4XXXXXX.( ( l ( b @ = 2XsXqXZ.| h.Z.o.OX1X2X6X) + 8 # 2 # # # + ",
"q.t.q.L.S./ / 1.p.P.>X>Xk.! - s.A Q : : s.U.qXiXK.N j g - j wXwXiXE.Z + 0 # # 4 # 2 $ ",
"<XoXJ.<Xs.Q q.q.M.XXx...! M H.G.1./ : s.mXnX5XkXK.h j h - H.kXkX5Xi.R q 8 $ 8 $ + 7 v ",
"4XG.Q c = z 1X>Xf.O.r.r.o.h.iX` / A L.cXE.1.E.dX_ - h c q.sXsX4Xy.Q 1.D > $ 9 @ A 1.p.",
"| ! j h = I hXOX#X#X#X(.o.H.#.u._ 3.E.E.x 1.<X( : : - l 4X<X5Xy.h ( i.x i ; = < i.p.q.",
"V I I I z.*X#X|.)./.+.} &.z.l.#.b Z 9 x 3.b./ @ = = c b.fXvX:X_ A c x , > @ @ = p.k.M.",
"' A.%X*X*X#X(./.).).+.J j.0X%Xy.) ,.R Z Z S Z : ; q R 6.b.n.i./ 9 ; < $ @ @ $ ; L.m.N.",
"'  .&.A..X|.j.*.@.@.g.=XhXwXz.~ 7 a Z 9 ; < < ; @ ; 7 , < ; ; ; $ # # + % 4 4 > <.~ Q ",
"{ { ! $.%X9X%XOXOX|.#XuX#X..z b ; $ + $ $ $ # # > < < < < ; $ @ # # X X % 4 4 $ :.6.d.",
"m | h.H.H.u.u.Z.z.OX>XM.! l l v <.a $ # # & > 8 u & & > i i 8 # . X X X o % % + 6 ~ C.",
"g ! t.6.Y ; = : : N q.q.( A x 9 E f p 4 & & & u 4 & & & & # # # # % 1 3 % % 4 i R s.4X",
"/ 1./ v w 6 ; ; 7 7 x A A C , 8 $ 2 8 4 & & & & u 4 4 4 & # # $ $ # & t & & S v.P.>X9X",
"S / 9 @ ; q 8 6 + q D 7 C 2.2.i # & & # + & u u & # # > 8 # + + & * * & + & 2.~.W.P.k.",
", @ 2.S ; 7 T + $ $ $ ; 9 9 , < e % . # & & @ @ = , , = @ $ $ . o r r o % e s -.Z 1.1.",
"> 6 @ = C 8.7 7 @ $ 6 6 ; = < , > & & 4 $ $ D c.1.i.1.A x D Z 4 3 o O % % + * 8 + 8.R.",
"2 $ ; : : / l @ @ + + + ; 7 9 6 @ & 8 $ @ 6 <.J.b.W.:Xb.t.c.v.0.8 + + 8 & + + + Z 9.v.",
"5 + 6 + - ( M.y.p.P.I.9.7 + . . + $ ; $ 9 ,.a.p.m.M.N.q./ A v 6 :.8 $ @ + $ U :.0.T ; ",
"2 # @ : oX>X_.>X>XqXyXE.9.U 6 @ ; ; ; 7 ) s.L.G.q.! N ! _ ( A v Y W Y v q Y 5.5.T 8 $ ",
"# + n 2XhX,XJ K o.B l b a.Q.F.9.9.Q b Y Y b ~ s.l.p.y.t._ A A R ~ a.a.6.6.) q $ U a p ",
"@ @ u.sXf.o.} K o.B h ; v 6.a.a.i.i.i.) 7 + = c = c ! F x x D R a.a.U ; Y R 8 8 4.p & ",
"= #.jXOX&.{ { B I z : ; v Y c = l i.D.) 6 ; ; @ : b A A ,.3.R $ q q . + 5.7.0 0 s . . ",
"J .XgX&. .o.y.P ~ : = n b : h b x <.5.U $ + $ $ ; R L.v.8.2.; . + # # # >.;.+ # . u 4.",
"+.uX8X/.'. Xl.d.w $ + ; 6.<XXXe.c.8.T ; # $ $ + + @ i R -.Z $ # . . % 1 s p . 4 :.;.;.",
"[ +./.|.| h.t.w # # 6 U 6.b.N.N.c.2.a $ + & 4 8 & > @ + @ 9 T d # % X   y s + + 4.T 8 ",
"`.).@X#X{ u.s.Y # # 2 T <.F k k S D 0 # # 4 p p # 8 @ R D.R.<..   # + . p 7.7.T 5.5.<.",
"*.=X|.} x.o.b v + # # 6 q C x : A 9 $ + 2 u 4 # ;.i @ ,.R.R.I.i.Y 9.v.5.E Y R R v b Y ",
"/..Xg.m f.w.F l Z ; + $ @ + @ x , : $ @ # # 2 4 $ ; 9 1.J.<X6X<X5X2X2XiXJ.L b P G.s.t.",
"0X&.B j g G k.( n.Z @ p T 8 + + = ; ; $ + + 2 a ; ; : l t.oXl.I h.$.$.%X%XZ. X&Xl.u.#.",
".XA.o.f.O.f.w.p.A <.v.0.7.4.T 6 , ; $ $ 2 2 $ $ ; ; A c - = = N $.Z.h.h.| |  X Xu.l.G.",
"].*.].|.'.f.I ..q.t.Q ) v.S.8.q = < ; $ # & > < @ S 3./ , + = 1.6.b 7 : b t.1.( i.G.b.",
"(.].(.' I z = n b n : Y <.7 ; ; < & $ # # $ $ @ i R.n.n.W.8.@ Z 7 9 q ; 7 Y x : l A k ",
"9X}.f.| P l ; Y Y Y 9 q Z 9 9 9 # $ $ # # # # @ T T.v.b.,.i.R 5.$ $ 6 ; ; 9 = = @ x b ",
"l.X.#._ b Y ) 5.T U # # 0 p 0 # # # # # # # # $ T 8.3.c.3.R.a.T 8 + $ 6 7 ; @ = h ( ! ",
"; Q ) Y Y E :.W d 2 . f 4.p 4 4 & $ 1 1 1 1 # # 9 v.3.A i.9.7 ; $ $ 8 ; ; ; @ = Q p.q.",
"; v ; T D.T + 6 + # . 2 u # + # 4 4 1 1 1 1 # # q ) / : ; @ @ @ @ 6 9 + @ A ( ( G.oX X",
"7 @ + 6.D.q + $ # a 8 + + $ 8 4 & $ $ 4 4 2 # ; R 7 l ( Y _ Y @ w : : = c s.K.:XsXqXl.",
"= @ <.!.A v S.v @ ; + @ $ . + + @ + $ 4 8 2 6 7 x Q c p.l.K._ d.~ ; - Q K.<XK.oX:XG._ ",
"b ( 3XG.l - = = 7 @ 7 <.Z ; q $ q a 8.T.0 6 q Y _ p.s.( h.oXy.u.u.h.H.%XoXoXH.s._ l = ",
"j y.1Xq.j ( p.t.p.1.q.b.1.) S.D.8.-.v.<.q + 7 9 i.Q ..m.4X<Xy.H.%X XZ.h.! N N c c @ + ",
"j x.1Xf.k.7X7XXXy.y.q.p.a.i.s.a.c.c.v.R R a Y v b.i.H.XXK.y.Q ^ Z.%.V h - c ( Q ) q & ",
"wXwX}.f.}.+Xk.k.q.m.p.q.( : @ @ : Z ; 7 Z v.8.9./ 1.m.P.p._ _ t.K.z - ! y._ i.E.,.i & ",
"*X%Xf.z.7Xz.N M X.U.b.) x + + ; @ , + + 9 8.<.9.A l A s.b.1.6.9._ t.s.t.i.S.8.; > @ # ",
"Z.}...N | X.y.s.1.i.A 7 6 $ $ ; < ; > $ :.T Z a 7 Z Z / R 7 6 $ q 6 D 8.R < @ < > @ & ",
"y.H.X.! ~ N Q Q i.) ; + $ # & $ $ @ 9 a :.8 6 8 @ T q ; $ + + + + + & u & # u p > @ * ",
"y.y.c c b l b Y A Z $ # $ p B.~.D.8.R 7.a # . 8 T D + $ a + + 8 % % & & * & 4 + @ + $ "
};
