/* XPM */
static char *_837d5cd7ea54e6ba4dd4916b05c486dKD2Bn9Msv1pSPQt3[] = {
/* columns rows colors chars-per-pixel */
"52 64 256 2 ",
"   c black",
".  c #010101",
"X  c #020202",
"o  c gray1",
"O  c #040404",
"+  c gray2",
"@  c #060606",
"#  c #070707",
"$  c gray3",
"%  c #090909",
"&  c gray4",
"*  c #0B0B0B",
"=  c #0C0C0C",
"-  c gray5",
";  c #0E0E0E",
":  c gray6",
">  c #101010",
",  c #111111",
"<  c gray7",
"1  c #131313",
"2  c gray8",
"3  c #151515",
"4  c #161616",
"5  c gray9",
"6  c #181818",
"7  c #191919",
"8  c gray10",
"9  c #1B1B1B",
"0  c gray11",
"q  c #1D1D1D",
"w  c #1E1E1E",
"e  c gray12",
"r  c #202020",
"t  c gray13",
"y  c #222222",
"u  c #232323",
"i  c gray14",
"p  c #252525",
"a  c gray15",
"s  c #272727",
"d  c #282828",
"f  c gray16",
"g  c #2A2A2A",
"h  c gray17",
"j  c #2C2C2C",
"k  c #2D2D2D",
"l  c gray18",
"z  c #2F2F2F",
"x  c gray19",
"c  c #313131",
"v  c #323232",
"b  c gray20",
"n  c #343434",
"m  c #353535",
"M  c gray21",
"N  c #373737",
"B  c gray22",
"V  c #393939",
"C  c #3A3A3A",
"Z  c gray23",
"A  c #3C3C3C",
"S  c gray24",
"D  c #3E3E3E",
"F  c #3F3F3F",
"G  c gray25",
"H  c #414141",
"J  c gray26",
"K  c #434343",
"L  c #444444",
"P  c gray27",
"I  c #464646",
"U  c gray28",
"Y  c #484848",
"T  c #494949",
"R  c gray29",
"E  c #4B4B4B",
"W  c #4C4C4C",
"Q  c gray30",
"!  c #4E4E4E",
"~  c gray31",
"^  c #505050",
"/  c #515151",
"(  c gray32",
")  c #535353",
"_  c gray33",
"`  c #555555",
"'  c #565656",
"]  c gray34",
"[  c #585858",
"{  c gray35",
"}  c #5A5A5A",
"|  c #5B5B5B",
" . c gray36",
".. c #5D5D5D",
"X. c gray37",
"o. c #5F5F5F",
"O. c #606060",
"+. c gray38",
"@. c #626262",
"#. c gray39",
"$. c #646464",
"%. c #656565",
"&. c gray40",
"*. c #676767",
"=. c #686868",
"-. c DimGray",
";. c #6A6A6A",
":. c gray42",
">. c #6C6C6C",
",. c #6D6D6D",
"<. c gray43",
"1. c #6F6F6F",
"2. c gray44",
"3. c #717171",
"4. c #727272",
"5. c gray45",
"6. c #747474",
"7. c gray46",
"8. c #767676",
"9. c #777777",
"0. c gray47",
"q. c #797979",
"w. c gray48",
"e. c #7B7B7B",
"r. c #7C7C7C",
"t. c gray49",
"y. c #7E7E7E",
"u. c gray50",
"i. c #808080",
"p. c #818181",
"a. c gray51",
"s. c #838383",
"d. c #848484",
"f. c gray52",
"g. c #868686",
"h. c gray53",
"j. c #888888",
"k. c #898989",
"l. c gray54",
"z. c #8B8B8B",
"x. c gray55",
"c. c #8D8D8D",
"v. c #8E8E8E",
"b. c gray56",
"n. c #909090",
"m. c gray57",
"M. c #929292",
"N. c #939393",
"B. c gray58",
"V. c #959595",
"C. c gray59",
"Z. c #979797",
"A. c #989898",
"S. c gray60",
"D. c #9A9A9A",
"F. c #9B9B9B",
"G. c gray61",
"H. c #9D9D9D",
"J. c gray62",
"K. c #9F9F9F",
"L. c #A0A0A0",
"P. c gray63",
"I. c #A2A2A2",
"U. c gray64",
"Y. c #A4A4A4",
"T. c #A5A5A5",
"R. c gray65",
"E. c #A7A7A7",
"W. c gray66",
"Q. c #A9A9A9",
"!. c #AAAAAA",
"~. c gray67",
"^. c #ACACAC",
"/. c gray68",
"(. c #AEAEAE",
"). c #AFAFAF",
"_. c gray69",
"`. c #B1B1B1",
"'. c #B2B2B2",
"]. c gray70",
"[. c #B4B4B4",
"{. c gray71",
"}. c #B6B6B6",
"|. c #B7B7B7",
" X c gray72",
".X c #B9B9B9",
"XX c gray73",
"oX c #BBBBBB",
"OX c #BCBCBC",
"+X c gray74",
"@X c gray",
"#X c gray75",
"$X c #C0C0C0",
"%X c #C1C1C1",
"&X c gray76",
"*X c #C3C3C3",
"=X c gray77",
"-X c #C5C5C5",
";X c #C6C6C6",
":X c gray78",
">X c #C8C8C8",
",X c gray79",
"<X c #CACACA",
"1X c #CBCBCB",
"2X c gray80",
"3X c #CDCDCD",
"4X c #CECECE",
"5X c gray81",
"6X c #D0D0D0",
"7X c gray82",
"8X c #D2D2D2",
"9X c LightGray",
"0X c gray83",
"qX c #D5D5D5",
"wX c gray84",
"eX c #D7D7D7",
"rX c #D8D8D8",
"tX c gray85",
"yX c #DADADA",
"uX c gray86",
"iX c gainsboro",
"pX c #DDDDDD",
"aX c gray87",
"sX c #DFDFDF",
"dX c gray88",
"fX c #E1E1E1",
"gX c #E2E2E2",
"hX c gray89",
"jX c #E4E4E4",
"kX c gray90",
"lX c #E6E6E6",
"zX c #E7E7E7",
"xX c gray91",
"cX c #E9E9E9",
"vX c #EAEAEA",
"bX c gray92",
"nX c #ECECEC",
"mX c gray93",
"MX c #EEEEEE",
"NX c #EFEFEF",
"BX c gray94",
"VX c #F1F1F1",
"CX c gray95",
"ZX c #F3F3F3",
"AX c #F4F4F4",
"SX c gray96",
"DX c #F6F6F6",
"FX c gray97",
"GX c #F8F8F8",
"HX c #F9F9F9",
"JX c gray98",
"KX c #FBFBFB",
"LX c gray99",
"PX c #FDFDFD",
"IX c #FEFEFE",
"UX c white",
/* pixels */
"z M } ` F / o.X.K J Y T } Z.#.V G Q ~ h B J R *.u.9.$.x ! v & e u 7 S ! N l w f y g k 0 , 2 3 8 x j 9 > ",
"L b A I T %.>.>.o.( :.+. .>.#.] M ~ ' Q I ' ' [ R C I b P G v B g l B F ! W ) I P V V C n s 0 e > a 2 * ",
"j.x.&.W W 1.u.$._ e.8.;.-.;.-.6._ / R L h D K y r = S { #.5.1.^ d H ~ _ H ~ G [ @.W ) ( H J R U d c B h ",
"Z.R.l.G.v.~ ^ K J *.} =.%.! R ^ ' _ I m N F P K B 2 k E Q *.5. .L b m g N ' Q ' R P Q U C S P R ` N ..` ",
"4.9.' [ 2._ ..' K ( ~ E q.1.} O.` Z S D D R E ! R z n T D N U ..;. .T v s L } Y C m s e a a j W T b P ^ ",
"P P I H O.` K ! L B -...Q #.U C H t e c d R W  .i.] D X.2.~ A ! -.{ .._ g A H b m x N N k h k n x ^ M ~ ",
"V K T K ~ Q A ..-.Z b G M E j H f v 0 e t x y J i.*.P R ) C J O.%.Q d.;.L j v b H N J J b x h r V 6.| >.",
"Z.c.O.1.l.c.;.#.[ ] T ' ^ L ` 6.8.#.%.q.3.8.o.d c z 9 8 j z K R F Y 8.6.T f j q f g u m ] D 3 t I 1.0.,.",
"h.m.l.M.S.^.N.%.p.j.i.y.i.g.i.i.8.@.2.$.R [ ;.K b m d s N D ) ! n b K +.E b l M l g x  .7.[ b ( S ` =. .",
"D ] | R e. X!.h.t.x.l.v.C.u.p.2.( O.] A W X.` M @.P N C K n X._ C B z C J K b W I H ( a.:.H A N z t d a ",
"j c d P G Y W ~ 0.Y.!.9.a.d.$.` r.<.[ W } Q N f _ U D K Q D } M 5 s b b M L v U 3.[ z z i 2 , @ 4 % & V ",
"q , 7 ../.P.b.9.j.*X~.<.( 1.z.#.&.%.%./ H M B x 4 h y y k A R C j z a a L M > i N G j 4 u p - * . q h ! ",
"j ) I.}.C.!.P.H.%X5Xk.@.1.4.n.5.J A R W H m K R f c n g y k Z ^ ] d j T ` s , + 1 a B d 4 2 < : t F ..Y ",
"b..XeXP.b.K.+X+X-X]./.B.M.} 5.&.G l U ^ G P ] F A s F V c N Y ` T c c m M > 1 2 % 4 s c t q K L >.^ } / ",
"-XqXR.i.2.v.=X{.K.^.K.c././ ..( M , c / D n R J ~ N I L G K T U Y V R P x l b 8 r s f m D H =.5.&.S l E ",
"h.g.*.-.t.3.K.=XP.n.u.] s.~ K E y , 2 d I ! R Z M B F / R D z C Y A R U n P K J H N K E O.$.) V V M t r ",
"W.h.<.e.g.n.x.d.l.E.b.*.=./ ! M C u l j N c c k x J ! O.) H e s p t S h N m x E S d N ..,.^ I G n Z J 7 ",
"G.E.d.c.F.Z.V.t.c.).P.;.;.+...V w 6 3 e B d e q w g I ^ m d a z A c d L %.T Q %.X.' K ] X.} { 3.K d q ; ",
"f.7.[ g.p.;.-...E ( l.C.6.P ' o.E m n 6 t ( Q u 9 l ( ^ B j v N U #.U Y } Y ! ^ H $.o.v O. .{ L v s f k ",
"I.I.M.E.K.Q.B.y.>. .@.>.4.{ ' q.0.i.-.^ L W ) F h A H n G R L H I ) ( ) T f s R T / G Q h _ / D Z A c a ",
"m.~.R.'.5X$Xn.j.H.m.h.r.=.{ Q -.k.>.%.X.3.d.%.[ E ( J x P @.! n j H ' J M F M C C C C I C V P ! D S M F ",
"Y.^.F.Z.).x.7.2.d.y.n.l.%.r.h.w.D.B.d.5.2.p.z.:.&.3.3.] R #.} V N C L A J ( ) E T P J N b D [ ` R L n B ",
"*.H.|.W.k.N.z.a.n.7.<.8.7.$.@.8.u.g.a.+.-.O.` :.$.6.y.} I ` +.) T V A G  .$.+.O.' ' S z J A A Y J P B b ",
"r ) j.K.P G V E.7XV.+.! =.=.;.#.$.} | ' &.' _ [ ' =.,.R / / ~ I [ Z I T 6.6.` ' =.$.) E E G F F s d t s ",
"5 3 l D M / #.H.$XR.s.` ^ %.<.f.e.( R G _ ] ~ #.) } E ! ) G ..F c P ] $.O.$./ Z D U _ =.Y V G b h x n N ",
"I ` U G R b.s.f.V.Q.F.z.4.g.s.x.9.=.{ } :.3.3.[ &.8.=.) ] G P D Z z j c h h s t w v ' :.=. .| c l l c m ",
"[ 4.W X...4.j.C.H.9._ 4.t.G.Y.U.J.N.g.7.9.0.0./ =.>.9.o.) I K A l p w : : t j 9 8 u E 2.3.' T i 8 5 9 i ",
"9.7.r.e.i.m.G.].!.N...M [ 8.p.t.7.<.z.8.4.:.' ^ R / 1.$./ U E R s 5 5 ; & * 5 > > = t W S i 5 : # + @ * ",
"u.5.e.7.y.P.OX|.x.' ^ W %.` ) ] ) ) -. .W / v [ J Q ^ Q / H Z K a e t 1 % $ 5 5 : > , q : % + O + $ & % ",
"` ` V J Z &.@X#Xt.I Z A { >.-.-.{ ;.o.#.R / j R _ ..} / F f z B M G C 9 * : 2 & : : * . = $ $ @ O % * & ",
"U E ] R N ( >.@.7.N.i.%.4.%.F / )  .R ! W ^ F L ;...` ( J Z n w w a r 8 4 3 : ; : > > 5 B n l V p r 9 6 ",
"! G / K G C ~ ( O.e.x.m.s.} n r M c J F ] G x 5 v ~ ..W M d r d 2 g u 9 u n i 3 ; 9 8 c ( ] I } %.' Y P ",
"=.W Z z N I P S J [ a.0.D C V v g s x M I G J k v C R [ j w w p 5 g Y ! P _ G x n 0 < : * u s y S H F N ",
"I S ` I c i K b k S W ) B M Y / v 9 s 7 u v M z v v B d y p t u n D I ) ^ ^ D I I a : O + : : < 3 y l b ",
"U C l / ~ n x I M A i f s k ( %.U 9 9 1 f F V q y m A 6 , e a J T _ P ) ] W S ( #.T : # : . o   o = 1 1 ",
"&.z r G ~ g a Z j c 9 q a b E I A 9 > * 2 t A h p G Y U H E C I M P k S / [ [ $.M.s.6 ; 9 = <   # = : ; ",
"R k 9 0 Y ` A V j s i 7 1 u m x p 7 w 7 3 1 b M r Z G ! H I P L Y O.' ' ~ I W W +.s.D j r 3 < , q 8 2 ; ",
"Z @.` m D  .k x [ ' 4. .h 3 5 q x 9 r * > < 6 a q n H ^ Q T ) F ] ..` ~ W K ) W _ X.k < q B 7 5 r 5 & . ",
"8 y D k g C v 0 u v 1.e.| n r q z b F s c d q h x H ~ ] R D ! ( ! R Y Y %.| / l Z F s , a B 7 : & $ @ # ",
"t h N Z 9 9 5 w i 4 z J ^ T A v Z ) Q V ~ Y ~ { ' T K @.@.' N m ! ` W t d 6 q : % 8 ; % u t t 5 1 > - - ",
"d 7 p x M k d 5 8 u M 3.7.+.Q D z G N T _ U ) } G ) V ] r.} H l g N j 2 2 % $ + @ ; 1 - r 3 = = 2 < 2 8 ",
"b b N J P D ) I H / ~ 1.g.6.+.o.) L S J F B A H ( o.I J w.3.` W k w 6 0 5 , > 4 5 > 9 D h & e 1 7 3 < , ",
"[ &.{ ,.D i E @.' ] v C -.%.{ *.' ! K d g B C ) ' ` E b E ` M Z 9 9 n S 0 5 2 8 u m x B ` 0 2 > 6 4 , * ",
"p.4.' 7.#.Q } ' { ! 9 2 c F D E H g G A f F ~ ! Q F U T n Q Z E n g N l 2 7 ; # * y g c z k % 6 2 3 1 : ",
"w.3.=.&.9.0.3.F F ` P B g ] ..Q { B Z Q I F U ! X.^ (  .V I A U ( C m t q 0 ; $ - @ x C C m 4 r 0 8 5 2 ",
"e...| 6.-.} ! ) v F ^ =.G ~ T S M Y P ..w.O.^ -.#.Q k V ( ' b 3 z x n w w 5 = $ > 8 : g h x # w l p 8 3 ",
"&.[ T ) Q &.{ Y ( 6.u.5.T O.^ x U ' o.&.#. .O.+.W ] L J I C f w f a u r p p 0 < 1 4 ; @ % : u x D h 6 < ",
") ( o.I I D ~ C I { ..] D Y W  .| X.-.>.#.o.X.{ R [ ! ^ b l v Z h 4 : k l u 6 3 - * - & > 6 i s K h 3 > ",
"X...^ b S C c H ( U H Y [ F L ! o.$.<.y.4.T Q ..@.] O.` C s l a k 4 7 e h w i 4 * $ & % # > q u x S c w ",
"f.7.L ` ` I C H C ( O.( =.O.E } :.k.f.:.5.@.T ' ` U E M r & , 4 s E z 1 6 8 3 w # - + X @ O & 5 > r y w ",
"(  .$.7.} ~ M P R 8.3.&.w.6.:.o.! I ..] J ..O.#.[ K V q e 1 2 0 8 c 9 9 4 1 : , 0 i * @ , +   & + @ @ # ",
"& d l N M n A q A 6.p.9.} C F d e 8 v ~ ` $.~ ] Q W L 5 7 > - 6 q l N S g e f < z B e 6 t 6 4 9 t ; + * ",
"# 6 9 4 0 7 S l n X.p.#.G h p r i Y ..X.:.K f V k J P s B C l d T  .] [ ( D C m M A x s a f b v 7 @ + 1 ",
"L e > , 9 ; + : < ( 2.C w 2 b ' [ ` | E o.j h 2 2 j n N { $.! b Z P M H U G v L ~ F c p r g j r = o % 3 ",
"y.=.D L T u , & , G / r 7 : v J S H H m J 8 r 8 = r p B K H B d p n Z M m K J Y ] N s 5 2 9 : @ $ O @ $ ",
"@.6.r.-.7.#.B f r y Q 8 , > w f w x h a , ; 1 1 4 9 2 V J H T I E m Z b P B x M A t 9 = @ %   = % @ O + ",
"` _ { +.<.e.9.,.w - 9 > = # < * ; > 8 1 : : & > u y 8 e z S ~ } ` Z s h P i 2 3 8 q 7 = @ O o ; : * & = ",
"( H A R U G H ;.j g N u t u f 6 o , 7 t h V j z 8 p a u v m x I M 1 : t P g 2 e 1 e g d h j q 1 2 < , 1 ",
"N S v M b Z Z ` } j c B A a 8 0 8 a w t r v z L V b b a h k 9 f 9 , 9 4 l k r h 5 1 5 8 y l d r 5 5 6 8 ",
"l x B T P S M L r.N S P _ ` m p j l s f 8 9 8 h u 8 c M h k d p r j b 5 0 i t y 3 @ * 5 0 e 9 9 < 3 9 t ",
"b f ,.8...L a b O.S :.@._ $.W K V k d h s s u 3 > % 0 c l j h 8 i p t q s p i u 7 - 4 w 8 3 : > % & ; 1 ",
"z y a.#.J I i z Z v 1.2.` ' W | ) U V z x N N 9 < 6 9 g v f u w h y 6 y z h k k s e 9 > % - : , # + + # ",
"K l ;.) m C n ! f z S Z F E P J P R B c j g y 5 $ 6 h n v d i c B x g s s s y u p r 7 - - < - - * = : 2 ",
"c H O.%.K g v B I [ Z f j j M F R ` A K K Z x G V r s a r i 7 4 h r d s s f 6 9 0 1 = = 3 1 @ # & ; 3 7 "
};
