/* XPM */
static char *result[] = {
/* columns rows colors chars-per-pixel */
"64 64 55 1 ",
"  c #070503",
". c #090604",
"X c #0D0906",
"o c #0D0B09",
"O c #110C07",
"+ c #130E09",
"@ c #15110C",
"# c #1B140D",
"$ c #161310",
"% c #1A1612",
"& c #1D1915",
"* c #1F1C18",
"= c #21170E",
"- c #23190F",
"; c #251B11",
": c #291E12",
"> c #221E19",
", c #2C2115",
"< c #25211D",
"1 c #2C241C",
"2 c #312316",
"3 c #31261C",
"4 c #34291E",
"5 c #272320",
"6 c #2B2621",
"7 c #2E2924",
"8 c #342C24",
"9 c #392E23",
"0 c #342E29",
"q c #3C3126",
"w c #37312B",
"e c #3D342A",
"r c #3D3730",
"t c #3F3831",
"y c #41362B",
"u c #45392E",
"i c #483B2F",
"p c #453C32",
"a c #493D31",
"s c #4C4136",
"d c #474038",
"f c #4C433A",
"g c #504336",
"h c #51463B",
"j c #53493E",
"k c #554B41",
"l c #594E43",
"z c #5C5146",
"x c #5F5448",
"c c #61564A",
"v c #65594D",
"b c #675C50",
"n c #695D51",
"m c #6C6054",
"M c None",
/* pixels */
"MMMMMMMMMMMMMMMMMMMMMMMMMMMMMMMMMMMMMMMMMMMMMM$%MMMMMMMMMMMMMMMM",
"MMMMMMMMMMMMMMMMMMMMMMMMMMMMMMMMMMMMMMMMMMMM&<wp06*MMMMMMMMMMMMM",
"MMMMMMMMMMMMMMMMMMMMMMMMMMMMMM%@o@ooMMMMMMM&0dflxljw5%MMMMMMMMMM",
"MMMMMMMMMMMMMMMMMMMMMMMMM$$%67dd765<w7<>**@6klqufcclkp5%MMMMMMMM",
"MMMMMMMMMMMMMMMMMMMMMMM%7tddjzxvcxljlkdff7<wvx9y9pzbbve7>$MMMMMM",
"MMMMMMMMMMMMMMMMMMMMoo$7zccxjzlzcvccvk7kxd57xkqy69jvmc0658*MMMMM",
"MMMMMMMMMMMMMMMMMM$37<1dcczt8hzzcczccj0axxtfkuyyyukcnk<<5r0MMMMM",
"MMMMMMMMMMMMMMMMM5tftuquudi0dzdlccljsfyyefpeqeuyyacvvdkdwlk>MMMM",
"MMMMMMMMMMMMMMMM1rdyyiyyyyqyyfjjlhayyue1#-;3eq80hlvbkrbbccl7MMMM",
"MMMMMMMMMMMMMMM@1<8usq>4isyyyiuuyeyyyu4-;-3ye8>6hcvvf5pxccx7MMMM",
"MMMMMMMMMMMMMMM%1yuy8>@;4yyyq41qqquauuy::-,uuq65fczjlfkljfr*MMMM",
"MMMMMMMMMMMMMMMo;qyq<@@-:::::,--:9yuyua9##;qaapplkpepxke65*oMMMM",
"MMMMMMMMMMMMMMM @&>1;##-:::--,,:,yeyypay%$#,qssisuuuujd<55%MMMMM",
"MMMMMMMMMMMMMMMM O+#,--:-::=+,,,yuyuuuau**<1-18aaiiaasw65*oMMMMM",
"MMMMMMMMMMMMMMMM%6,#,:-----:-2,1euuuyiuy>&0f1@O1auuise755%oMMMMM",
"MMMMMMMMMMMMMMM>wkx9------::,;24yaiuyaajp8xxe@@#3yyyydxkp7+MMMMM",
"MMMMMMMMooo%>5wfzxcxa1-----:-:,,<39uyujzzlmxr*o#,yuyeavczy@MMMMM",
"MMMMMMo@%**5dkzcccczxk4;##----,-%>quuyjzxxbbkr;#3yuyeacclp%MMMMM",
"MMMMMM$%*5<<rvxvccczcndfq,#---:#@%uiiyujxxrkf0e;2yyuuulclk<MMMMM",
"MMMMMo11**><6zxfsjczxvfjcj0,-:#+#-9uuyqhvxkxkwp;4pyye6yzzlwMMMMM",
"MMMMM@8yy8<%1se9yjzcccjjcxxzd3;-;:3yeqslvxbxlt,#488qqejcxlt&MMMM",
"MMMMM$eyisy9yuyfxzznvffpjzjxxza,;,qyyazkfpdt4:%#1>1uyyazd0r7MMMM",
"MMMMM#9yiyuuuuxbvccxpeaqquuuskzju9yuyq4>;->-::@*1>8ayyyjkpff>MMM",
"MMMM #24qeeuyazxzclpuuauqeqqujzzfjq91--:--2,:;@11>8auuullxbxe$MM",
"MMMM.#::qyyijxxzzbf34:yyuyyyizcxfnvt-;#-:,::2=##;%>aaufxrtclt$MM",
"MMMM+--:qyqsxmvxcvh-;-,yyqyyyfjcxvxkt--:::;:::--$%>aaujnrpbzk%MM",
"MMMM@:-,yiyszzkxzcz1--:eyqyyyyszcnxll9:::;:,4422989agujl77kcxr$M",
"MMMM+--4yuuuw70zzlfa--;,yy9yuuyhzmxzze--:;,eiuuq8yyiaukf555lck5M",
"MMMM+-,yyyyu0<7xcf<pw;;=3u,>yaiujxzzcu-;:->9puay6yyquqwkr50kxba*",
"MMMMX=29yyufj8kvzz0kvw-;:3qyuuuuaflzvf;;;-#1iaaueyy1>>>0ppxccbl5",
"MMMMM+:,yyy97dvzzzlncl8--;2yeqqyeyzcmx,#---4yie9yey98>*>pzkccxk>",
"MMMMM.#:qy4>wvvzzzvvxzh::-:-3yyqeuszzce--::,yiiauuy6ee7epzkvckr%",
"MMMMMO;:97>6cvbvftxcxxx1:;;--9yyuyujzvj,;,:,qissiyyuyiuifccjt6%M",
"MMMMMO-;1;ykccvvkdvccxz,::---4yyuuujccce;-##2yuiuuq33yiahzj7$MMM",
"MMMMM+;-3qaclzzlxnnxcvq-::;;-4auuusxccxxt@o@-;4yyq,--1eesj6MMMMM",
"MMMMO-:;quglllzxxxxp0e,#-::;:yauuizzvczcz71@;--4y,---;3uy8MMMMMM",
"MMMMO;::uaalkllcvczw@;,#=:449yuuufvvmxcbnzxf8---:::-::18>MMMMMMM",
"MMMM+-,,yepzczllccj1=-:-#;qyyuuq8kvxxcvcxxmvzd,-----:-;%MMMMMMMM",
"MMMX#-::7;1pzzxllzj;,:;:*>9yuey1%fnj7kclzvvnvcs,---::-@MMMMMMMMM",
"MMM+-;;;36177pcxlvl>;::;3uuyuap1,fnzthlzcnkjzccjy:-::48&MMMMMMMM",
"MM.#;::3uauuyaqazcxp;-;#,yiiugguufvbvxzcbvhfzxcvcj88qlj1MMMMMMMM",
"MMX=;:2ypaaaaa18kcxxp;-;::4uiyiyeefjvccxvvcxvcczzlxbbvk6&MMMMMMM",
"MM+--2yyaapyaaaahnnvcf1-:;;:8qy9qqquuuiigguyshhlllxcxbcd8MMMMMMM",
"MO#--,yiaa919uayyuwfczjy;--;;29yiuyyyyqysuuyyusuhllcxxcvd<MMMMMM",
"M+;-;9yuia1*>8uufw*0zzzzf1=-::;3yuuiuyqqqyeqqye7yallljlzzw&MMMMM",
".=-;,yyuai><%>axcxdkcxlzk8>-::#:22244qqyyyt1<33&*8jllllllk8MMMMM",
"O#:;;38q4,298yaxxxcxxkflzkly1;;;::----,ssuy,<e7&&9yslcxlxxp*MMMM",
".+##-;;:;+-;8yuslxxlde8zbbbnzd6>--::,:,9yyu91e9&<yauslvvxcc0MMMM",
".+###:;::##-;3yyahxlkbcnnnllzpxxp8:::;;81yspye48uypiuizzjvneoMMM",
"MO##=:-;:;-;=#>3ayalbcnvvcdw7wxpfbk3;#;9>yaeie*1yeuauqujlxxf@MMM",
"MMO#;;--;:;#@@%>yuuscbclxxlxkbr6kcvl2-:=1uq>ey8yyeyyqyquzzzd*MMM",
"MMM.#-;::::+@@#1auuulvclbxcxvmppcccma;:;:244quiu89yqyuufffza*MMM",
"MMMMMO#=::#@@@%qp9uuknkxdkznnnnnvllvx6#;;;;:19ye1yyqyyaerpxp%MMM",
"MMMMMM X+@++@O1aauuuhxwlrkzcvvlhfkccxz6;::;---448ayqyyu7lxk<MMMM",
"MMMMMMMMMM.XO#;qauuuijkczclhauyyyihcvbh:,:;;-=,88yyyyauwllr$MMMM",
"MMMMMMMMMMMMMO#-,yyyyiaappue8eiyyyyhvkp;:::-=,8yqeyyslkkf5%MMMMM",
"MMMMMMMMMMMMMMO-;218yeqyuiu8%13yyqedkr6;:2:-=3881168erw7<$MMMMMM",
"MMMMMMMMMMMMMM.#::;uayyeuua8%--4e;>>wx1:,:-+X#$Oooo@$$MMMMMMMMMM",
"MMMMMMMMMMMMMMMO=;@3yyqyiiu4:--,q1<>0v3;-@XMMMMMMMMMMMMMMMMMMMMM",
"MMMMMMMMMMMMMMM.+=##489q93::::;-8upefc>+XMMMMMMMMMMMMMMMMMMMMMMM",
"MMMMMMMMMMMMMMMMX+##;@#:--::,::-3qpkkp+MMMMMMMMMMMMMMMMMMMMMMMMM",
"MMMMMMMMMMMMMMMMMXO@++-:-::2:::-;986>$MMMMMMMMMMMMMMMMMMMMMMMMMM",
"MMMMMMMMMMMMMMMMMMMM .+##=::--=###$MMMMMMMMMMMMMMMMMMMMMMMMMMMMM",
"MMMMMMMMMMMMMMMMMMMMMMM. XO##@X. MMMMMMMMMMMMMMMMMMMMMMMMMMMMMMM"
};
