/* XPM */
static char *last1709173338[] = {
/* columns rows colors chars-per-pixel */
"41 64 256 2 ",
"   c #1A1A38",
".  c #15172E",
"X  c #3C0A26",
"o  c #3B0D33",
"O  c #381539",
"+  c #371630",
"@  c #1D2333",
"#  c #5B0408",
"$  c #58071C",
"%  c #4E061E",
"&  c #68050A",
"*  c #760409",
"=  c #680719",
"-  c #780616",
";  c #79191A",
":  c #65111A",
">  c #480B29",
",  c #570827",
"<  c #45132C",
"1  c #581429",
"2  c #490D37",
"3  c #580B36",
"4  c #491539",
"5  c #5B143C",
"6  c #561739",
"7  c #690927",
"8  c #780927",
"9  c #681828",
"0  c #781628",
"q  c #660C36",
"w  c #780C34",
"e  c #671638",
"r  c #771835",
"t  c #5A2236",
"y  c #79252B",
"u  c #742239",
"i  c #692235",
"p  c #7E211A",
"a  c #1B1946",
"s  c #1B1C58",
"d  c #261A4B",
"f  c #351646",
"g  c #271C56",
"h  c #341956",
"j  c #330D46",
"k  c #1D2450",
"l  c #2F2650",
"z  c #161C67",
"x  c #291E65",
"c  c #1C2675",
"v  c #282467",
"b  c #382467",
"n  c #302B72",
"m  c #451946",
"M  c #5B1844",
"N  c #491A57",
"B  c #561B58",
"V  c #460D47",
"C  c #651745",
"Z  c #781A46",
"A  c #681C5C",
"S  c #761B55",
"D  c #6A0D44",
"F  c #592245",
"G  c #4A245C",
"H  c #592657",
"J  c #5A3758",
"K  c #692345",
"L  c #762544",
"P  c #672459",
"I  c #77275A",
"U  c #73335B",
"Y  c #531D6A",
"T  c #671B64",
"R  c #781B6E",
"E  c #472667",
"W  c #572766",
"Q  c #472976",
"!  c #572E74",
"~  c #473378",
"^  c #593A76",
"/  c #55336C",
"(  c #672866",
")  c #79286A",
"_  c #74336B",
"`  c #782974",
"'  c #66367A",
"]  c #783576",
"[  c #64356B",
"{  c #5F4278",
"}  c #880206",
"|  c #980508",
" . c #880917",
".. c #980817",
"X. c #981419",
"o. c #8A1219",
"O. c #AC0302",
"+. c #A70409",
"@. c #B60508",
"#. c #AA0C1C",
"$. c #A70817",
"%. c #B60818",
"&. c #A71417",
"*. c #B4131C",
"=. c #B9181A",
"-. c #B4140D",
";. c #880A25",
":. c #970927",
">. c #8A132D",
",. c #871526",
"<. c #981528",
"1. c #8C0A34",
"2. c #970B34",
"3. c #881635",
"4. c #971638",
"5. c #AC0C24",
"6. c #A70A27",
"7. c #B60A26",
"8. c #A91427",
"9. c #B71726",
"0. c #A80C34",
"q. c #BB0D33",
"w. c #A81636",
"e. c #B81637",
"r. c #902636",
"t. c #BD232A",
"y. c #A8253B",
"u. c #B62939",
"i. c #A8221F",
"p. c #C7060B",
"a. c #C80918",
"s. c #D80A19",
"d. c #CA1719",
"f. c #D91718",
"g. c #D20C0A",
"h. c #E80B17",
"j. c #F70A15",
"k. c #E9171A",
"l. c #F8151A",
"z. c #E8100B",
"x. c #D02218",
"c. c #E7261C",
"v. c #C70B26",
"b. c #D70B23",
"n. c #C81628",
"m. c #D41225",
"M. c #D2132B",
"N. c #DB132A",
"B. c #DA1826",
"V. c #C81835",
"C. c #D61B37",
"Z. c #D40E33",
"A. c #E30E25",
"S. c #F90D26",
"D. c #E41324",
"F. c #E81828",
"G. c #F81927",
"H. c #E61B34",
"J. c #F91A34",
"K. c #D82526",
"L. c #CA2634",
"P. c #D62634",
"I. c #CE2D30",
"U. c #E72527",
"Y. c #FA262A",
"T. c #E82737",
"R. c #F92835",
"E. c #EB3336",
"W. c #FB3539",
"Q. c #F33628",
"!. c #871947",
"~. c #951948",
"^. c #871A56",
"/. c #981A56",
"(. c #8E0C4F",
"). c #A91A47",
"_. c #B11750",
"`. c #862849",
"'. c #992648",
"]. c #892757",
"[. c #992558",
"{. c #8D3559",
"}. c #A9244C",
"|. c #B72446",
" X c #A72555",
".X c #B72656",
"XX c #AC314E",
"oX c #861867",
"OX c #91196C",
"+X c #AB1666",
"@X c #892966",
"#X c #992865",
"$X c #87366B",
"%X c #882776",
"&X c #972A75",
"*X c #86387A",
"=X c #9A3776",
"-X c #953367",
";X c #A72A64",
":X c #A73775",
">X c #AE3666",
",X c #CA1B47",
"<X c #C62E58",
"1X c #D12C44",
"2X c #F33045",
"3X c #C72D6F",
"4X c #FF3A60",
"5X c #A6446F",
"6X c #FD4549",
"7X c #F74950",
"8X c #DE4057",
"9X c #19268C",
"0X c #392A83",
"qX c #2F338F",
"wX c #1B38AF",
"eX c #2F35AD",
"rX c #50348B",
"tX c #73338E",
"yX c #4834AB",
"uX c #79299C",
"iX c #2E438A",
"pX c #3448A8",
"aX c #2E4CAE",
"sX c #594A90",
"dX c #694687",
"fX c #6E5095",
"gX c #5047B0",
"hX c #6944A8",
"jX c #7556A7",
"kX c #7648B7",
"lX c #6D4DB2",
"zX c #6365AE",
"xX c #3758C7",
"cX c #3A65C6",
"vX c #5552CA",
"bX c #6D52CF",
"nX c #466DCE",
"mX c #756BCC",
"MX c #596CEE",
"NX c #6C5EE5",
"BX c #90338F",
"VX c #AF358C",
"CX c #9835AA",
"ZX c #8F498F",
"AX c #9646A8",
"SX c #8856B0",
"DX c #AA50AE",
"FX c #8B64A9",
"GX c #B14998",
"HX c #8456C6",
"JX c #8F58CE",
"KX c #926DD0",
"LX c #A27CDD",
"PX c #9963D6",
"IX c #5C81E9",
"UX c #AC91EF",
/* pixels */
"1 1 < < + < 1 7 ,...$.%.7.$.6.:.OXOX(.-X-X*X( tX` ` =X&X$X*X{ sXsXeXvXMXMXxXpXiXn ",
"$ 1 < < < < > $ - <.e.n.%.%.6.:.(.(./.#X-X$XW ( B %X:X:X5XZXdXsXsXhXvXNXMXxXiXqXv ",
"% % % X + + > $ = :.5.V.P.%.%.e.).(. X/.^.I A B ( *XVX@X$XZXfXjXfXtXvXbXMXgXeXn ~ ",
"$ % % + O < o > = - | V.2XB.a.C.|.(._./.!.^.P T *XBX=X^.I 5X{ jXFXSXkXbXvXgXgXrXb ",
"= $ , < 4 O O > % - } %.E.W.x.m.,X0.)._.'.[.) ` $X%X@X^.].] ^ { FXSXKXlXbXyXrXrXb ",
"- = $ , < + o > , 7  .$.P.W.c.f.V.7.q.q.}.[.I T A ) =X#X$X) ^ fXZXFXKXKXKXgXgX0Xb ",
" .* = $ > + o o > , - 5.K.E.Y.c.M.7.Z.7.).~.D D S @X:X:X-X_ dXjXjXSXSXLXKXKXsXn b ",
"$.X. .: $ < < 2 % , 8  .9.6X6Xk.b.M.Z.$.q.2.Z S @X@X[.[.&X*XdXjXHXSXhXLXUXUXjX! b ",
"O.| ..* # , > 2 > , 7  .6.2X7X6XT.s.M.v.0.2.[.].-X^.[.;X{.] dXhXkXJXPXHXSXFXFX' [ ",
"d.O.| } - = , , 3 3 q ;. .7.2X6XT.m.b.Z.7.0. X].!.]..X>X:XBXdXhXbXbXJXSXtX] ( H M ",
"c.d.+.| } - = $ q , 7 w >.8.t.P.T.N.b.H.q.e.'.~.~.[..X>X:XZXfXbXNXNXkXuX' ( P 6 m ",
"g.K.K.-.} }  .= 7 7 7 7 >.w.9.$.P.M.M.1Xq.).~.~.'.}.).).:XZXjXlXNXbXyXrX] $XU 3 5 ",
"O.d.x.d.+.}  .- = 0 8 8 ;.2.8.#.9.v.v.C.e.e.2.4.4.}.|..X:XZXtXbXbXvXlX{ U U {.5 3 ",
"-.-.@.d.a.| |  .- 8 r w >.;.;.6.5.7.7.V.e.0.2.2.2.|.<X<X:XBXkXmXLXbXfXH 5 `.-XZ 3 ",
"n.=.+.=.d.+.$.|  .;.8 >.4.<. .6.5.5.7.7.,X0.2.4.w.|.<X<X>XVXKXKXUXlX' M 7 '.>X Xw ",
"t.=.+.O.=.+.9...:.:.;.8 3.,.>.w.w.0.6.5.V.0.0.<.4.y.3X3XGXPXPXJXlX! P K 0 '.>X>X(.",
"I.u.-.+.+.+.$.#...:.;. .,.,.>.r.3.4.:.%.V.v.7.0.6.).VXGXJXHXHXtX] _ Z e Z >X5X[.^.",
"i.X.X.| &.| | ......X.<.;.,.,.3.w 3.<.5.v.7.6.8.0.+XGXDXHXbXhX` I ].].].-X:X5X-X[.",
"& & *  .o.} } ........X.<.<.<.<.2.0.8.5.q.w.~././.OXCXDXuXuXT ) L Z Z {.].!./.!.[.",
"# # # & - * * <.....6.$.#.#.$...w.w.0.w.)./.@X&XBXBXCXCXBXR @X>X{.{.{.{.].Z ^.].Z ",
"# # # : & # & o.<.#.#.9.9.*.#.$.0.e.|._.#XR ` BXCXBXCXCXBX^.XX5XL L K L e 3 D Z Z ",
"# # # # # # & ; o...#.%.=.=.=.*.e.|.,X+XoXR tXAXBXBXVX%XoXr.y.y.r K K K q q Z L ^.",
"- & & & & : : -  .| | $.%.=.=.9.u.|.+X/.tXuXBXCXBX&X&X#X~.).r.r.r i e L e q !.Z ^.",
":. .; & & & & *  .| | +.$.&.&.X.8.XXOXoXBXCXBXS :X;X'.XXw.}.r.r.u e e L Z e Z `.^.",
"9.X. .* & * *  . .| $.*.=.%.*.9.XX3.(.R BXtXR OX[.}.r.y.u.<.r.u 1 < 1 t K 6 e K C ",
"| &.&.X.* & * i.&.8.*.9.7.=.%.9.w.4.oXoXtX] @X^.!.r.3.y.y.r.0 y 1 6 6 6 M C e C C ",
"| | &.i.X.} } 8.&.#.7.n.M.M.M.v.0.~.(.R ) @X].L `.!.3.>.<.X.p y i t 5 3 e e C 3 Z ",
"} | | X.&.X.| $.L.L.L.V.C.N.b.v.6._.#X^.I ].u 0 `.r w w ,.,.p y i t 3 1 3 D D 3 Z ",
"} | X.+.| +.9.L.1XI.I.I.T.U.A.a.q.).[.#X!.r ; 9 e r r !.'.r.p 9 i t 6 2 6 M C M C ",
"} X.t.L.%.d.P.L.t.t.=.t.K.E.U.B.v.)./.^.~.8 : p i L Z !.`.y e 9 F F 6 4 6 M C M M ",
"} | =.P.m.m.n.%.*.*.&.-.x.E.c.f.V.)./.[.~.2.o.o.y 9 r 9 u u C K K F 6 5 M C M C M ",
"+.| x.E.m.a.n.@.=.i.-.i.I.I.T.B.,X|. X/.).w.<.,.: 9 7 8 r u F F K 6 3 5 M M M C 5 ",
"a.@.d.E.B.d.n.=.+.d.-.&.L.1XC.2XN.1X1Xu.V.9.8.<.0 9 8 w 3.0 1 t F F t 6 6 3 q q 5 ",
"Z.%.%.d.d.n.n.v.@.f.f.=.y.e.,X4XH.T.2Xn.n.9.*.y.,.9 = >.2.>.9 6 t F m M 5 3 q q 6 ",
"V.5.t.t.n.v.Z.p.g.k.f.a.8.8.V.2XH.H.T.m.m.%.$.<.y 9 = 0 >.>.0 9 6 F 4 6 3 5 3 3 6 ",
"2.w.XXu.q.v.b.p.G.l.h.f.9.*.8.V.C.T.H.b.m.a.#.<.,.0 = 8 ;.3.,.9 6 4 4 2 3 5 4 2 V ",
"4.4.'.>.:.%.b.s.S.S.S.A.n.=.*.t.9.P.T.D.A.N.n.8.o.; - 8 8 0 ,.0 5 4 2 3 V M V 2 o ",
"0.4.>.8 ;.7.v.h.J.S.h.j.f.d.t.t.#.P.H.F.D.F.m.*..... .8 0 r 3.u 6 2 3 3 3 2 m O 2 ",
"q.0.w ;.:.5.a.A.J.S.j.h.z.c.m.9.t.P.m.B.s.s.s.v.5.6.:.8 0 r u r 1 6 q 7 3 2 O O m ",
"Z.q.2.1.<.#.n.R.H.J.J.S.z.z.B.m.L.I.a.f.p.a.B.T.7.7.:.- 7 r r 1 9 9 w w 3 o O O m ",
"H.Z.7.:...&.@.p.s.H.R.G.l.l.s.N.T.B.O.p.p.O.O.I.V.8.:.1.w 7 , 1 7 9 8 7 , 4 + O m ",
"J.A.V.5...$.p.p.F.F.G.l.l.l.h.b.J.R.p.@.O.O.O.@.+.$.:.;.3.r , 3 9 r 8 7 > 4 o O O ",
"S.G.Z.9.$.+.@.g.h.G.W.Y.G.l.h.J.A.G.a.-.O.d.d.@.+.5.6.1.Z D M M q Z q q < 4 O O O ",
"J.G.F.a.@.+.p.h.h.G.W.W.Y.Y.D.Y.J.k.p.p.-.d.E.U.v.7.0.1.Z D M F D Z D V O O O o O ",
"R.F.h.a.%.%.a.A.k.h.c.Y.W.R.l.l.R.D.f.g.p.g.Q.R.b.Z.0.~.].P B J ) ` J l l d f f j ",
"T.D.s.p.@.+.a.A.G.l.c.c.Y.J.h.l.G.l.G.h.g.g.W.Y.Z.Z.). X$X[ _ BXAXAXfXn v k d O f ",
"H.H.h.a.%.$.%.b.Y.Q.Q.c.F.G.j.l.j.S.S.j.z.f.W.E.A.Z.w.!.U _ %XBXAXSXmXsXiXk l j j ",
"H.H.A.s.%.$.%.a.R.Y.U.c.G.Y.j.j.J.S.j.z.z.p.U.B.b.1X X`.U _ OXoXuXCXmXnXpXiXl h j ",
"J.D.B.m.v.+.%.a.2XR.G.G.l.j.Y.j.A.R.G.j.b.b.s.A.H.,X~.].`.`.`.#X%XkXgXgXnXaXz v g ",
"G.D.b.d.7.$.5.v.T.J.Y.J.l.l.l.j.f.R.Y.j.b.b.A.b.C.,X~.!.'.).~.~.R tXgXnXIXcX9Xc x ",
"G.D.a.7.6.:.:.5.V.b.Y.Y.l.l.l.U.E.Q.Q.z.k.s.b.Z.,X,X/.(._._./.^.T Y qXpXnXnXqXc n ",
"D.b.v.0.4.1.1.:.7.%.R.Y.l.z.h.W.6XQ.Q.c.Y.g.b.n.,X<X+X+X+X_.+XoXT Y n aXcXcXaXqX0X",
"s.M.e././.^.^.!.w.#.U.Y.k.k.f.6X6XE.c.z.G.g.d.9.)..XVXVX3X+X^.I T Q qXpXxXcXaXwX9X",
"%.7.).[.$X` ) ) '.w.L.K.c.f.f.4X6XU.c.c.G.g.f.9.:./.VXVXVXOXC C Y rXyXaXaXaXaXaXqX",
":.:.(.@XtX] [ ` I !.y.9.n.a.g.R.2XJ.Q.c.f.x.U.n.2.^.%X*XOXI C B tXyXyXeXwXwXaXaXqX",
"(.Z A _ dXrX! ! P S 3.2.9.%.p.H.H.W.Q.c.g.x.P.9.~./.oXT ( ( F N 0XyXyXeXwXwX9XeXqX",
"P P ( ^ ' sXrX~ ! B D w 2.$.a.a.2X2XR.z.g.x.n.w.~.^.OX$X*X( H N rXyXyXeXeX9X9X9Xc ",
"/ E ! ^ { ~ Q n rX! B D ;...%.p.W.T.k.h.g.d.#. .~.^.&XBX] W N W Y rXyXeX9X9Xz z z ",
"dX^ ^ { ^ b b rX{ ~ E M w w.V.T.Q.Y.F.a.O.| | w.2.(.%XBXtX~ B Y Y 0X0X0X0Xz z z s ",
"fXdX^ ^ / E n ~ n ~ N V q >.9.K.s.s.7.%.*.9.w.4.(.(.A ! rXrXY N h x x x x x s s s ",
"{ { G G G E E E ~ E h < , 0 o.$.7.6.:.;.<.w.!.D (.S B m b ~ E h h d g g z s a a   ",
"m m m m N G N N ^ J m 6 e 0 ,.;.4.!.!.S w q D ( T P M O f l b d d d s a j s a   d ",
"> > < m N N G G [ J < < 1 : & 1 i J ! tX] ] / l l l 4 < f l d   a a a a a a       ",
"> > 2 4 V V N G [ F t < 1 $ : 9 J sXjXrXQ E / l l @ X 1 m f @ @ a   a a d a   . . "
};
