/* XPM */
static char *result[] = {
/* columns rows colors chars-per-pixel */
"80 80 240 2 ",
"   c #020202",
".  c #060609",
"X  c #07080B",
"o  c #0A0A0D",
"O  c #0C0E12",
"+  c #0F1016",
"@  c #0F1218",
"#  c #111215",
"$  c #12141B",
"%  c #18191C",
"&  c #161A22",
"*  c #191C25",
"=  c #1B1E29",
"-  c #1D2025",
";  c #1D222C",
":  c #212633",
">  c #272B33",
",  c #232935",
"<  c #262C3A",
"1  c #282E3E",
"2  c #1F2F52",
"3  c #2C3343",
"4  c #2F3748",
"5  c #333E45",
"6  c #313748",
"7  c #323B4C",
"8  c #232F59",
"9  c #26315D",
"0  c #353E52",
"q  c #293363",
"w  c #2C3368",
"e  c #323C6C",
"r  c #353978",
"t  c #344148",
"y  c #35414B",
"u  c #364254",
"i  c #394455",
"p  c #394757",
"a  c #3B455A",
"s  c #3C4B5C",
"d  c #3C515E",
"f  c #3E4C62",
"g  c #3E4C69",
"h  c #3D5265",
"j  c #3E596B",
"k  c #394576",
"l  c #3F5E70",
"z  c #3E6172",
"x  c #42575E",
"c  c #414D64",
"v  c #424E6A",
"b  c #425768",
"n  c #43536C",
"m  c #454C79",
"M  c #465573",
"N  c #445A73",
"B  c #485779",
"V  c #4A5A7D",
"C  c #47676B",
"Z  c #476679",
"A  c #4A747B",
"S  c #577878",
"D  c #56817D",
"F  c #688B7F",
"G  c #3D3B86",
"H  c #413C8D",
"J  c #453F94",
"K  c #3E4884",
"L  c #474B84",
"P  c #4B5D83",
"I  c #485688",
"U  c #4A4499",
"Y  c #4D5793",
"T  c #51599A",
"R  c #4B6284",
"E  c #456B87",
"W  c #4B6B84",
"Q  c #4B648A",
"!  c #4B6B8B",
"~  c #49778A",
"^  c #547889",
"/  c #4B6A94",
"(  c #4B7394",
")  c #4A7697",
"_  c #4B7A94",
"`  c #4A7B9C",
"'  c #527490",
"]  c #4E4BA4",
"[  c #5349AA",
"{  c #5556A9",
"}  c #5849B6",
"|  c #5957B8",
" . c #5564A9",
".. c #497AA1",
"X. c #5A69B3",
"o. c #6169BD",
"O. c #5F4EC1",
"+. c #5D55C3",
"@. c #624FC8",
"#. c #6254C8",
"$. c #6959D6",
"%. c #5A6AC6",
"&. c #6566D7",
"*. c #6472D6",
"=. c #705EE3",
"-. c #6C69E4",
";. c #7367EA",
":. c #7465EB",
">. c #6A77E7",
",. c #7275EC",
"<. c #776AF1",
"1. c #796CF3",
"2. c #7574F4",
"3. c #7778F7",
"4. c #3FA7AD",
"5. c #4B878C",
"6. c #56868A",
"7. c #57958C",
"8. c #4A839B",
"9. c #498799",
"0. c #548898",
"q. c #4B939C",
"w. c #49989A",
"e. c #569897",
"r. c #6A8F90",
"t. c #659997",
"y. c #4DA89E",
"u. c #54A49C",
"i. c #56A99B",
"p. c #5AB69D",
"a. c #74A58B",
"s. c #67A999",
"d. c #76A79A",
"f. c #68B79B",
"g. c #76B89A",
"h. c #4984A3",
"j. c #468AA5",
"k. c #478AA5",
"l. c #5287A2",
"z. c #4997A4",
"x. c #4494AA",
"c. c #439CAB",
"v. c #539BA1",
"b. c #6E9BA6",
"n. c #4AA8A6",
"m. c #43A4AB",
"M. c #43ACAB",
"N. c #54A8A3",
"B. c #4DBBA6",
"V. c #44B3AA",
"C. c #49B7A8",
"Z. c #56B7A3",
"A. c #5AB3A2",
"S. c #65ABA3",
"D. c #75A8A1",
"F. c #66B8A4",
"G. c #75B9A4",
"H. c #5CC79E",
"J. c #7ED58F",
"K. c #63CA9C",
"L. c #68C99A",
"P. c #6BCC99",
"I. c #70CC95",
"U. c #77C899",
"Y. c #78D394",
"T. c #4EC0A4",
"R. c #56C3A2",
"E. c #68C3A3",
"W. c #79C7A4",
"Q. c #7ED2A1",
"!. c #5F80D9",
"~. c #6B8ADA",
"^. c #6D8CED",
"/. c #6697EB",
"(. c #6E8AF7",
"). c #7384F8",
"_. c #6B96F8",
"`. c #5DB8F4",
"'. c #66A7F6",
"]. c #73A7F1",
"[. c #64B7F5",
"{. c #77B7F5",
"}. c #5DC3F3",
"|. c #63CBF3",
" X c #6FCEF3",
".X c #77D7F3",
"XX c #8BB599",
"oX c #90BAA7",
"OX c #84D78E",
"+X c #86D88F",
"@X c #8DD98D",
"#X c #94DB8C",
"$X c #9CDD8C",
"%X c #87C89A",
"&X c #94C29D",
"*X c #83D692",
"=X c #8AD696",
"-X c #94DA91",
";X c #99D995",
":X c #A3DE8C",
">X c #A9DF8D",
",X c #A4DD97",
"<X c #A6E08D",
"1X c #ACE18E",
"2X c #B1E28E",
"3X c #ABE193",
"4X c #ABE198",
"5X c #B4E496",
"6X c #89CAA4",
"7X c #96C7A9",
"8X c #99D5A7",
"9X c #90D3AA",
"0X c #A8D9A7",
"qX c #B5DAA8",
"wX c #ABD0B0",
"eX c #BADAB4",
"rX c #B9E4A7",
"tX c #B4E1AF",
"yX c #C2E79C",
"uX c #C3DFB5",
"iX c #C9EAA9",
"pX c #D5EEAC",
"aX c #C8E7B7",
"sX c #D4EDB3",
"dX c #DBF0B9",
"fX c #E2F2BE",
"gX c #85A5F1",
"hX c #87D9F5",
"jX c #90D0F6",
"kX c #97E4F5",
"lX c #A8E9F6",
"zX c #B9EFF8",
"xX c #D8EEC6",
"cX c #E6F3C8",
"vX c #EBF6D4",
"bX c #F1F8D5",
"nX c #F3F9DD",
"mX c #C7F3F9",
"MX c #D8F7FA",
"NX c #F7FBE5",
/* pixels */
"                    o o               .     . o               .   . .         X .         . . o                                                         .       ",
"                                                              o O   X O O @ @ $ $ O O # X . X .         .                 o                           o o       ",
"              .                                           . o $ $ & = : 1 1 3 3 4 3 < < ; * $ O O .           .         . O                           o         ",
"            o .                                     . o @ & ; 6 7 a g n M B B B B B M n v a 0 1 ; & $ O .   . .                     .               .           ",
"            % O                           .     o O $ = 3 0 v M B V V V B B B B B V P P P V V N v 0 1 ; & O . .     o               . o                         ",
"            o .                           . o o @ ; 3 a M B B B m M B B V P P P Q Q P P P P B V P V B c 6 = $ o .                   o o           .             ",
"                                          X + & 3 a N B B B B B V P Q / / ' ` ..8.j.l.k.h.8._ / Q R P P V c 3 = # o                                             ",
"                        .           . o o $ : u M V P P P Q Q / / ' ....k.x.c.m.V.B.Z.Z.p.A.Z.n.z.8._ Q P P B u , $ +                                           ",
"                    .     $ -       X O * 3 g P Q / ) ` ..8.j.j.k.x.c.n.4.T.T.T.H.K.J.+X$X4X4X,X=XW.A.v._ Q R P n 3 & $ O .                                     ",
"                          o o     . @ * 7 M E / ` h.j.z.x.c.4.4.C.C.B.B.R.H.H.K.Y.Y.+X$X2XyXsXdXcXdXrX8XF.v._ R P N 0 ; + .     .                               ",
"                        . o     . @ = 0 V ! ` ..h.x.4.4.4.4.B.T.T.R.R.K.P.P.Y.Y.Y.J.J.+X$X3X5XpXcXbXbXcXaX8XF.q.! P P 0 = @ o .                                 ",
". o                           . O ; u B / h.h.j.x.c.4.4.4.T.T.H.P.P.Y.J.J.+XJ.+XJ.+XJ.+X+X@X$X1XiXfXbXnXNXvXaX6XN.' Q V a = % $           o     o $             ",
"                          o o O = 0 R ) ..j.j.x.c.4.4.T.T.H.I.OX@X@X@X$X$X$X$X-X#X#X#X#X@XJ.+X+X$X5XsXvXnXNXnXcX0XS.( Q P 0 = O .               % 1             ",
"            + o             O * 4 Z ` j.j.x.x.c.4.4.V.T.L.OX#X$X$X:X$X:X$X:X<X$X:X<X:X:X$X$X#X#X#X#X>XiXfXnXNXNXvXeXf.` P V 0 = O                               ",
"  .         - #           o $ 3 K ` j...j.x.4.4.4.T.R.P.OX@X#X#X$X:X:X:X:X<X<X<X<X:X:X<X<X<X:X$X$X#X#X>XyXpXvXNXNXvXtXF.' Q B 3 % X                             ",
"            + .       .   + , n ....x.x.x.c.4.4.T.H.Y.J.@X#X#X#X-X$X$X$X$X:X$X<X<X:X$X<X<X<X:X<X:X:X:X:X2XiXpXcXNXNXvXeXS.' P v 1 +                             ",
"                        o = 0 ! j.j.k.x.x.c.n.E.Y.=X;X<X1X3X:X:X$X$X$X$X$X$X$X:X:X$X$X$X:X:X$X$X$X#X=X*X=X=X,XiXcXnXNXvXwXv./ P a = O                           ",
"                      . @ 3 z 9.j.j.k.x.c.F.F.f.s.f.g.%X$X1X2X2X<X<X$X$X$X$X$X:X<X<X<X<X:X$X#X@XJ.L.A.u.q.e.v.D.oXeXvXNXxX6X_ P M 3 $ o         .               ",
"                    o O ; f _ c.j.h.k.c.S.e.0.0.8._ _ 0.f.=X>X2X2X2X<X$X$X#X#X$X:X<X:X:X$X#X*XK.Z.m.h.) ) ) ` 8.l.t.oXxXbXaXs.! M f : O .                       ",
"                    . $ 4 W x.j...h.v.N.v.N.f.F.S.v.8.! ( e.U.$X2X2X2X<X$X#X#X$X:X:X$X$X#X*XK.B.m.j...) 8.j.m.N.Z.n.z.b.eXxX8X0.B n 0 ; O                       ",
"                    O , g 9.m.h.h.v.v.S.W.8X0X0X0X7XG.6.W V ~ s.@X:X>X:X#X#X@X#X$X:X:X$X@XI.R.M.c.x.x.x.c.M.C.C.C.C.m.9.0.7XqXd.V n c : O           .     .     ",
"                  . $ 4 Z w.z.` e.S.7XuXaXeXqX0XqXuXaXwXXX^ N W 7.J.$X#X#X#X@X@X:X:X:X$X+XE.B.m.x.x.j.x.z.c.y.w.w.w.w.y.v.b.XX6X^ c v 4 $ o             .       ",
"                  o * s 5.N.8.0.S.7XqXXXF S b C S S r.wXuX7Xr.N N e.U.OX#X@X@X#X$X$X<X$X*XR.m.x.h.x.x.x.5.E l h s h j D a.g.XX&Xt.c n a ; o                     ",
"                  + , N w.u._ e.g.XXS v v m m L L m n Z XXeXuXd.Z Z 7.I.J.OX@X#X$X$X3X-XL.n.k.h.h.j.8.z g v m m m L m h h 6.XX&Xd.Z s n < $ .                   ",
"  . o           . @ 4 W n.w.5.u.D C v U [ [ } } } } [ I R t.7XeXd.Z Z u.P.J.@X#X$X:X,X*Xn.k.` ` j.~ n v L U [ } } } } [ Y P ^ d.g.S s M 5 % X                   ",
"    o . o       . % s _ y.w.e.~ d k | $.@.} } @.#.#.#.} { Q 0.7XqXXXZ Z y.I.+X#X$X5X;XF.k.) ` h.E g m { @.O.} O.O.$.$.@.O.{  .0.s.r.x N a , o     .       .     ",
"          o     . ; n 9.y.5.5.h B #.;.:.:.$.=.<.2.3.,.&.@.| / 0.oXeXr.b ~ p.Y.#X>X5X%Xv.( ` k.E s L #.=.=.=.=.$.=.2.).,.-.@.{ ) q.t.C c n 4 +     .       .     ",
"                o , N w.i.5.l g o.;.<.<.1.2.1.(.{.jX{.].>.#.} / v.wXwXr.Z w.K.+X,X,XN.) ' k.~ h B #.:.1.1.1.1.1.).{.jX X].>.@.{ 8.s.D s M 3 +                 . ",
"                O 3 Z z.i.D f T ;.1.<.1.3.3.(.'.kXmXmXkX{.;.@.| / S.eXoXZ E i.*X,X6X0.( q.9.b m +.:.<.1.2.3.3.).].jXmXmXkX].&.[ / u.7.x N 4 $   .   o   % o     ",
"                O 3 W p.s.Z M %.).;.:.1.3.)._.{.lXMXMXMXlX{.>.+.] _ G.wXr.C w.Y.,XS./ q.q.N c | ;.<.1.1.3.3.)._.{.lXMXMXMXjX>.J I u.s.C M 7 $           % O     ",
"                O 7 ( Z.a.C L *.>.@.$.<.3.3._.[.kXmXMXMXMXlX].$.[ I q.6X&XS ~ U.=X0.8.v.~ g T -.1.<.<.1.3.3.(._.[.hXmXmXmXjX>.U K k.i.C N 0 ; %   .             ",
"                O 0 ~ f.s.j T ^.X.K } <.2.3.'.}. XkXzXMXMXMXjX^.| U ( i.8Xr.W s.g.0.w.q.j m &.3.<.<.1.3.3.3._.'.}.hXzXkX.X'.-.] G ..u.C N u $   . o             ",
"                O u ~ f.a.j T ^.%.G +.>.(.(.'.}.|..XkXzXMXMXzX X&.U I w.W.g.Z s.f.l.N.~ s { >.3.<.<.1.1.3.).'.`.}.kXzXhX[.).:.[ r ..z.C N u *     X             ",
"          o .   @ u ^ p.s.N T ^.%.G } >.(.'.`.}.|..X.XlXmXMXmXhX^.} U 5.p.U.6.e.s.n.w.N M *.).;.:.<.1.2.)._.`.}.}..XkX X_.1.$.U G ..N.C M u *           o o     ",
"          O o   + 7 ~ A.d.A I >.%.G G +.3.'.`.}.|.|..XkXlXmXmXlX{.%.U Y u.L.u.7.i.N.5.h / >.3.;.:.<.1.3.(.`.}.`.`.`.[._.;.$.[ r k ..y.C n a ; X X               ",
"          o o   O 4 A y.g.r.B %.>.G 8 G +.(.`.}.|.|.|.hXlXlXlXlXhX{.{ Y e.p.p.s.p.n.W n %.).).-.=.1.2.).'.`.}.[.'._.(.3.$.} G w K q.u.x n 7 * X                 ",
"                O 3 E m.f.XXV T &.] 9 9 G O.>.'.}.|.|..XlXlXkX.XhXjX*.] ` n.A.s.F.u.N L &.]._.$.=.<.3._.[.[.'._.(.).2.$.[ H q w / y.w.x n 4 *                   ",
"    $         o X < Z w.N.oX6.P +.%.G 8 9 G [ &./.`.|.|..XzXkX X X X^.+./ z.Z.f.L.e.j Y ,.jXgX%.:.1.(.'.'.(.).3.3.1.:.O.G 9 9 K 8.N.6.p M 4 $                   ",
"  . #       . o o : n w.z.XX&X^ Y &.O.w 8 q G U +.*./.[.|.jXkX|.[.[._.&./ y.Z.f.W.w.n { gXjXgX$.:.3.'.(.,.:.2.3.1.:.+.J q 2 k E k.N.A p v < O     X             ",
"                O = f 9.z.d.qXd.` K +.+.G 8 8 r J [ +.&.,.).gXjX[.'.`.>.{ v.B.s.6X7.n { gXjX/.&.3._.>.-.:.<.1.1.:.+.U w 2 k K 8.z.e.b c f ; O .                 ",
"                o & u ^ y._ oXiXs.( Y #.| G 9 q r G [ } @.$.>.].].'.'.>. .N.Z.i.6X7.n X.).{.!.>.^.>.=.:.1.1.<.$.} G q 9 k I ` j.N.6.i n p = o                   ",
"              X . $ 3 W u.~ r.aX0Xd.' Y | } H q 9 r G [ $.=.-.2.3.,.-.#.T u.E.f.W.e.N | -.*.| &.,.2.2.,.;.$.} J r w q k I _ 9.z.S.C y n 6 %           .         ",
"                  O : N w.5.Z oXsX0Xs.' I T U r q 8 w r ] O.$.-.&.} U K / N.6Xf.P.u.N  .>.| G +.*.&.$.+.] G e q q r L P ( k.n.A.r.p p v , $ .     .         O   ",
"    o       .     O * p 6.e.N D eXdX0Xg.0.! I U e w 8 8 w r G G G r 9 k 9.F.0XS.6Xp.Z I &.{ w r G G G r w 9 9 e K L E ( t.A.E.S.Z y c a ; O                 - o ",
"                  % * 4 A y.z h s.xXsXrX%Xe.( R I L r q 9 q 8 9 q w e I z.6X7XD.tX6Xe.R { ] w 8 q 8 9 9 q k k L B Q 0.D.U.E.G.0.f y b 0 & .       . .       % . ",
"o o               $ + , N e.w.d z oXxXxXrX*Xp.0.( P I I m k k e k K I ( z.G.S.F.xXxX%Xe./ P m m k k k k m m B Z ^ d.6X6XF.W.d.V i p n 1 O                       ",
"                    o * i 6.y.j p D 9XvXxXiX=XP.i.q._ ~ P P P P P P E 9.N.N.m.F.xXNXsX%Xe.W P V B P K Z V W 6.d.%X6XW.Z.G.oX^ v 5 f a = O               $ X     ",
"                      @ 3 Z w.5.u d e.8XvXvXdX,XY.T.n.z.q.j.9.8.8.8.k.m.M.m.m.F.tXNXnXaX&Xg.t.6.6.6.5.e.s.g.U.W.E.Z.C.E.7Xr.B i y g 7 $ .               : $ .   ",
"              .     . O ; g 5.q.j p z y.8XcXnXcXrX9XK.T.V.m.c.x.k.x.x.c.M.n.N.f.G.wXxXcXiX,X=X%X%XU.g.F.S.A.N.V.M.C.E.eXD.Q v 5 p f : +                 X       ",
"  +           + .     o $ 7 ~ z.z y d w.H.9XsXcXcXsX4X*XE.B.m.z.z.v.n.Z.A.Z.p.K.F.A.D.7XqX,X*XH.C.n.n.z.z.m.M.C.T.6XaX7X' V a y v 0 - o             o           ",
"                        O : j 9.9.p t z C.H.OX4XiXpXpX4X#XP.E.F.E.G.E.W.W.E.K.L.R.R.n.q.r.a.I.L.T.C.C.M.V.B.T.E.=XiXtX0.R v 5 i c 1 + X                         ",
"                        o & 0 ~ x.z t p 5.B.H.J.-X<X3X3X3X;X6XG.S.W.tXxXdXrXJ.f.Z.B.C.n.8.Z A 7.p.K.E.L.P.P.*X,XsXsXD.( V p y s u * X                           ",
"                        . @ < M 9.~ p y j y.H.P.@X<X4X5X=XE.N.x.F.iXxXxXwXb.0._ 8.e.u.p.N.z.E h S I.OXOXOX@X$X5XiX8X0.P v y i v 1 $             .             . ",
"                          o * u ~ 9.l 7 p z p.P.+X<XyX5X6XZ.x.v.9XrXoXr.'  .| o.o.X. .0.S.S.9.N Z u.I.Y.J.@X$X5X0Xt.Q V a y s p ; O                 .     . .   ",
"                          . O < M 9.E p t d 5.P.-X3XsXcXaXQ.v.F.,XXXQ | *./././.].].].X.0.S.F.~ ~ M.B.H.I.@X$X,Xg._ V c y y n 1 $                               ",
"                            o * u E 9.l y y Z p.@X3XaXbXcXrX9X9X8Xs.Y {  .!./././.~.~.X...g.F.8.` c.4.C.H.#X,X;Xe.! B i t f i = o                       . .     ",
"                  .           O : n 8.E s 5 s 5.P.+X5XsXcXcXvXxX4X%Xt.W Y {  . .X.X. .0.g.G.N.k.` x.m.B.U.5X5Xg.' P c 5 i n 1 $                               X ",
"                            . o % 7 Z 8.z y y z i.P.=X4XsXnXNXnXcXrX,XXXa.0./ ( ' 0.d.g.F.N.c.x.c.c.C.U.4XpX8X0.P M i 5 c y & o .                               ",
"          .                 # - $ ; f ( ) g t i ~ p.P.*X4XdXnXNXnXcXdXiX;Xf.i.Z.p.p.A.A.n.c.c.4.m.n.L.,XiXrXs./ B a 5 s c : +                                   ",
"        o   > #             O # o $ 1 N ) z i t d 5.H.Y.@X5XcXNXNXnXcXpX,XL.H.H.E.R.V.m.m.m.4.4.C.E.$XrXrXg._ V c 7 y n 3 % o                                 . ",
"            o .                 X O * u E ~ h t t j e.P.J.-X4XdXnXnXbXpX;XE.B.V.M.c.x.c.M.C.M.B.K.-X3X4XG.0.P c i t v u = + o .                                 ",
"  .       .                       X @ : n ( E i 1 y z i.I.J.-X4XpXfXbXfXiX-XK.B.M.M.M.V.C.B.R.Y.$X3X,XW.e.Q m i 5 p c 1 $ +                               X     ",
"            .         . o       X o o $ 4 V ( N t 1 p A p.J.*X@X-X4XrXyX5X$XY.K.T.T.T.T.R.Y.-X$X3X$XU.N.( M p t y b 6 $ O .                                     ",
"            o         . O             O * u W ~ h 5 5 p ~ f.J.+X@X@X;X$X$X@XJ.P.K.K.K.Y.+X-X>X3X,XU.N.` V c t t v u ; O                                       . ",
"o $                                   o O : g ! E p 5 t s ~ p.+X@XOX@X@X@XOXOXJ.J.+X@X#X:X:X:X-XU.n.8.Q n y t x f , + X       X                   . .           ",
"o #                             .       . $ 1 n ( z t 5 t h ~ L.@X#X@X#X$X#X#X#X:X:X:X:X#X-XY.E.n.k.! M i 1 i c 4 $ X                           + $ .           ",
"      . .   .                             o & 6 Z ~ j t 1 t d ^ g.#X:X:X<X:X<X<X<X:X@X+XY.K.B.m.k./ B s 1 y b 5 & o             . .             o o             ",
"            .   .                   .       O ; 0 P / h t 5 t d A s.-X>X1X1X1X<X#X=XP.R.B.M.m.j.) V a 1 t c 0 = + o o           O o                       .     ",
"                    .                       O + = 0 R E x 5 5 y c W s.#X>X2X2X$XY.H.V.M.M.4.j./ V c 5 5 x s : +                                                 ",
"                      . #                 X   o @ 3 n R ~ d 5 5 y s Z e.%X-X=XI.Z.z.x.4.c.k.) P s 5 5 s c > $ o     o                 .                         ",
"                                                X = 1 f R E f t 5 y s N ^ e.y.z.` ` j.x.k.) P a 7 5 c s < $ o                                                   ",
"                          o .                   . o + : f V E j y 5 y i g R / ( ) h.k.j...P a 5 t v s , $ o                               o     o               ",
"                          # $                     . o $ : u B E n i 5 i a B _ w.c.x.8.Q M i t y v s , # .                 .     .         o                     ",
"o                     o O   o     .   .               o $ ; 0 M V v y 5 y c 5.i.w.~ M p y y p n i ; # o           X     .                     .                 ",
"                      $ &         .                     X O * 3 c M c 7 5 5 s j j p t t p v g 4 = O o                             . o .       .                 ",
"    # .               o o                                 . O & : 0 v c s i t t t y s c c i , % O o                               o X .       .                 ",
"    O .                                     .                 O O & , 7 a c c c h d s 0 1 * + O .   . . .                       . .                             ",
".         . o .                 o       o               .       . . + & ; , 3 3 3 1 ; & + o .                                       o o o                       ",
"                      . .       o .   .                           . . . $ + + + & $ o o                                                 o       .               ",
"            .             o     # o       .                             .     . .     .           .                                                             "
};
