/* XPM */
static char *_f7c3708a61f47cbb4f95ef38ab91d2a26V2Omk9grynLTnM[] = {
/* columns rows colors chars-per-pixel */
"80 80 236 2 ",
"   c #010202",
".  c #0B0806",
"X  c #050609",
"o  c #05090C",
"O  c #0A0A0C",
"+  c #130C0A",
"@  c #19110E",
"#  c #050D11",
"$  c #0C0D12",
"%  c #051214",
"&  c #0D1115",
"*  c #09151B",
"=  c #07181B",
"-  c #111214",
";  c #14151B",
":  c #1B1818",
">  c #281712",
",  c #241813",
"<  c #2D2217",
"1  c #372718",
"2  c #120F28",
"3  c #0B1C24",
"4  c #0A1E25",
"5  c #161A21",
"6  c #1C1D23",
"7  c #15132B",
"8  c #19152E",
"9  c #15192F",
"0  c #1A1730",
"q  c #151D32",
"w  c #1D1B33",
"e  c #28192C",
"r  c #36172F",
"t  c #221E36",
"y  c #291A34",
"u  c #0B2227",
"i  c #0C242B",
"p  c #162335",
"a  c #112B31",
"s  c #162B3A",
"d  c #182A38",
"f  c #16303D",
"g  c #19313E",
"h  c #252429",
"j  c #292836",
"k  c #25223A",
"l  c #29263E",
"z  c #3A2A37",
"x  c #2D343A",
"c  c #36343A",
"v  c #492D1B",
"b  c #50192E",
"n  c #491B33",
"m  c #68192D",
"M  c #781C32",
"N  c #57372B",
"B  c #4E3232",
"V  c #702736",
"C  c #5C4936",
"Z  c #67482A",
"A  c #694738",
"S  c #755032",
"D  c #163542",
"F  c #193543",
"G  c #153B47",
"H  c #1A3B45",
"J  c #193D4B",
"K  c #2D2B42",
"L  c #322E45",
"P  c #293846",
"I  c #343648",
"U  c #35344A",
"Y  c #39364C",
"T  c #3A394D",
"R  c #2B3F51",
"E  c #363B50",
"W  c #3E3D52",
"Q  c #45394A",
"!  c #57354B",
"~  c #423E53",
"^  c #6D334E",
"/  c #1C434C",
"(  c #1B464D",
")  c #1A4453",
"_  c #1D4B53",
"`  c #1A4C5A",
"'  c #1F5057",
"]  c #1D535C",
"[  c #264C55",
"{  c #374756",
"}  c #344951",
"|  c #215255",
" . c #265559",
".. c #235C5C",
"X. c #24605E",
"o. c #1C5463",
"O. c #1D5A64",
"+. c #1C5E6A",
"@. c #304F62",
"#. c #285B64",
"$. c #395A67",
"%. c #1E6874",
"&. c #236568",
"*. c #236C73",
"=. c #336770",
"-. c #484547",
";. c #424155",
":. c #454559",
">. c #484958",
",. c #4A4A5D",
"<. c #524F53",
"1. c #56485A",
"2. c #755847",
"3. c #6E5052",
"4. c #5F634A",
"5. c #786A53",
"6. c #4E4D61",
"7. c #554D62",
"8. c #495765",
"9. c #525265",
"0. c #595966",
"q. c #565669",
"w. c #555A6A",
"e. c #5A5B6C",
"r. c #5E5E71",
"t. c #66566A",
"y. c #735069",
"u. c #74556B",
"i. c #57606E",
"p. c #4E6974",
"a. c #5E6272",
"s. c #586976",
"d. c #69646B",
"f. c #626374",
"g. c #696676",
"h. c #666979",
"j. c #6B6C7C",
"k. c #766977",
"l. c #6D707E",
"z. c #76737B",
"x. c #8D1E31",
"c. c #902F35",
"v. c #854C2C",
"b. c #88532B",
"n. c #94562B",
"m. c #9D5B2B",
"M. c #804D30",
"N. c #8B5634",
"B. c #985935",
"V. c #A45C2B",
"C. c #956A35",
"Z. c #9B6936",
"A. c #AB642C",
"S. c #A7682D",
"D. c #B36A2C",
"F. c #B56B2C",
"G. c #B6712D",
"H. c #BC732C",
"J. c #A46635",
"K. c #A77538",
"L. c #B67834",
"P. c #C57A2D",
"I. c #C77B2D",
"U. c #C47D30",
"Y. c #8B2D47",
"T. c #85365B",
"R. c #96375D",
"E. c #A53B5E",
"W. c #893A64",
"Q. c #963B65",
"!. c #A83A68",
"~. c #874F4B",
"^. c #906A4E",
"/. c #AE7746",
"(. c #894368",
"). c #95456C",
"_. c #9C4D74",
"`. c #A84776",
"'. c #B44273",
"]. c #8B716F",
"[. c #AA7D62",
"{. c #C4457F",
"}. c #BA843B",
"|. c #CD812E",
" X c #D1852E",
".X c #CA8635",
"XX c #D28A34",
"oX c #D18C37",
"OX c #CC923F",
"+X c #D4923B",
"@X c #D8963C",
"#X c #B3894F",
"$X c #A1896F",
"%X c #C99448",
"&X c #D79D45",
"*X c #DDA246",
"=X c #DBAA5B",
"-X c #5D7783",
";X c #706F80",
":X c #6F7281",
">X c #697986",
",X c #737583",
"<X c #797786",
"1X c #757986",
"2X c #7B7D8B",
"3X c #867885",
"4X c #7E818F",
"5X c #7F8290",
"6X c #87838D",
"7X c #95858A",
"8X c #828592",
"9X c #868996",
"0X c #8A8B95",
"qX c #8A8D9A",
"wX c #8E929D",
"eX c #9C9596",
"rX c #91949E",
"tX c #A49891",
"yX c #9296A1",
"uX c #959AA5",
"iX c #999CA6",
"pX c #999EA9",
"aX c #9DA2AC",
"sX c #A0A4AE",
"dX c #A3A8B2",
"fX c #A5AAB5",
"gX c #AAAEB8",
"hX c #A7B0B8",
"jX c #ADB2BB",
"kX c #B1B5BE",
"lX c #CAB08F",
"zX c #B5BAC3",
"xX c #BDC5CD",
"cX c #C0C6CE",
"vX c #C6CCD4",
"bX c #C8CED6",
/* pixels */
"  X     X O ;         X X                     X X   X                   X                     O                     X X                                         ",
"  X       $ h                                 X X X                                   $ $ X o                       X X       X                                 ",
"          X O                       X         X O X                   X       X X X   X X       X                             X X                               ",
"        X O         X       O c                 X   X       X X                 X $ & O     $ X O                           X X                   X O           ",
"          X                 X -                             X X       X X $ i f %.%.%.O.+.+.o.( u o             O X       X $ X             O     X O           ",
"          o   X               X $                   X X             * G +.*.+.*.&.] O.&.&...] O.%.O.s o         x &                         X     5 E           ",
"  X X         X                                     & o       o D O.+.&...( ..&._ ` ...._ O.*.8.&.*.*.%.G X     X X                               X o           ",
"                      ; X           X               #     o i +.&._ #.| ( f | | D _  .D ] X.( 8.8.) ` =.=.) o                                   X               ",
"      X               I &                         X   X G +.O...' ) | ( g q d p d f P h.s.g ) @.qX) ` w.$.+.D                                                   ",
"                      o X           X X             # +.*./  . .H d d p 9 7 7 7 q d q q 9.s.=.@.j.$.#.h.#.o.o.g $             X                                 ",
"                X             X X X       a       3 o.....g H f d 9 9 7 7 7 7 7 P K 9 ) @.{ i.t.1.e.E ,.#.#.>X8XI O       X                                     ",
"                              X 3 X       X     ( ] &.| H d d p 9 7 7 7 7 7 7 7 7 ;.a.} $.9.u.(.{.`.`.y.h.a.h.[ $       o                         X             ",
"  X           X                               ) *./ ( f d q 9 7 7 7 7 7 9 7 9 9 7 q $.@.,.W.`.(.!._.'._.u.{ #.o.3       = X                       X             ",
"                        = X                 G *. .f f s q 9 7 7 7 9 9 q d d s g p o.} 8.`.`.`.R.).T.!.T.).1Xi.>X>X1X0.-     o         $ X           X           ",
"    O   X X     X O                     O 3 *...H p d d 9 7 7 7 9 d d H | _ )  .$.$.{ g.Q.)._.Q.^ W.).R.'.g.~ e.6.j 6 -     X %       X               X       X ",
"    X O           X         X %         ` ` ..H s 9 q q 7 7 7 7 p f J D u % } w.6.9.1.(.'.)._.V 8 e Q.Q.R.g.1Xs.3 X     o     %                                 ",
"                  X       O X %       3 *.g H s d 9 7 9 7 I :XdXxXxXhXl.c ; 6 O X &.a.e.R.).R.c.Z N W.(.R.h.9.8.} o     X     X               X     X           ",
"            X                   X X o +...d f d q 9 7 k yXvXvXvXvXvXvXcXgXqX; u X ` } u.'.(.W.^ c.Y.!.E.^ ,.q.,X4X:X&       X O ;     X                         ",
"          X           # =   X f   X / &...s d d 9 7 Y gXzXzXxXvXcXzXaXqXqXyXiX; 5 s.a.0.)._.(.T.Q.W.).Q.f.,Xp.d - j ,.X   ; j ,X0.              X               ",
"          O                 X a   X ] ../ f d d 9 w dXuXqXkXdX<Xu.W.T.T.^ t.z.l.,X>.=.l.1.).R._.`.(.'.t.;.i.{       X     ; x 0.-               X               ",
"    X               O             o ' | f f d q 9 2XyXqXwX<X(.^ n r y y y r r ! j   s $.f.:.t.).!.).1.,. .} :Xh     $ $ x 6 X 6   O - X X o o       X         X ",
"  X     X           X X           O./ / f d p 9 k iXwX9Xy.^ r 7 7 w k K L t 7 w w 6.;.w.2X8.l.{ ;.w.,.j.P X j a.$ a.yX;.O   X     - : X   ; X     X O         X ",
"        X         o o O X       % +.F g f d 9 7 Y yX8Xy.n 7 9 0 t t f.fXdX9XW k j.7.9X,Xw.[  .w.,X/ / h.x     ,.qXf.f.h                   o X     X             ",
"                  # X X         u ..F d f p 7 7 ;.qX^ r 0 f.qXj.e.r.:.z e k I ~ 9X^ 8XqXS N * >.9.#   -.5 $ f.4Xq.,.;                               X X         ",
"                        @ v   X ( &.H d s q 9 7 ;.1.e w qXaX9.T Y l 7 N B ~ 6.T 8X! h.qX#X}.C.5.6     h c 9Xf.9.c   X 3     %                         O   O h - ",
"  X X                   + @   X G &.H s d q 7 7 t e 7 K f.k N B t Y 9.:.9.1XI l 8XL ;.4X$X+XS.oXK.+ - 1Xj.9.;.- O     X     o                   X         X - O ",
"  O X                     X   X o...g s d q 7 w e.t t k q.K B c 9.2X8Xf.j.:.K w l.k K qX].+X+XoX%X].2Xq.,.j   X X %                           O $               ",
"                              # ` _ g d q 9 7 ,Xt.q.6.0 e.8Xj.;.f.9X6.f.qXK I 9 K 0 w qXz.+XZ.#Xz.:X2X,.6   X     u   X o                         X $     X     ",
"                    X %       * #.J d p 9 7 w 9Xt.t.h.k k 9.:.wX:X9.,.h.I t k 8 I 9 8 l.2XL.5.2X8XyXrXf.1 X u O         X X         X               X           ",
"                    % u       3 &.H d 9 0 k 2.9X9.^ h.L 9 ;.w W q.f.9.W ;.T w q.1Xh.9.6.2X0XiX9XiX9X9X#XOX@   X                 X                   X       $ X ",
"X                         3 X 3 *.| s s 8.$X%X2X:Xy 1.;.7 W f.Y t w q.1X,.L r.qX~ rX,X5XyX,.f.8XuX8XwX#X@X}.@       X X       X X             X   X             ",
"                          % X # &...g d x &X%XeX9XW t I 7 w W 9Xt ,.9.W W Y ,.T L j.yXj.T z ,X8XrXiX0X&XoXXXK.      . Z ,   O X             X & X X             ",
"    X O     X       X       O # ` | g d K.oX XtXiXe.0 w k k yX9.I T 6.9.~ k w Y :XwX,.B S ,.wXyXiXe.-.+X+X&XK.C       v +                     o             o   ",
"      o               X X   X = O.) F c S |.|.lXiX2X9.,.2Xl.9Xq.t.! ;.t 0 0 l 9Xe.Q M.S g.f.j.q.~ :.u.&X+XXX#XZ.O               X             X             X   ",
"                      C.m..   X &.| F C K.XXS.=XzXzX1XqXf.dXf.q.q.W W W K t ,.~ N n.M.q.8XY :.9.k.7X7XXX+X XOX+XZ   o       % X X         X                     ",
"                      S M.      / &.( C..XXXS.XX[.qXkXgX1.3.q.j.T ,.:.:.9.I z b.V.b.c W 9.t.! ! 1.iX$X X+XoX@X&XN.X * X       X           X         X           ",
"X                     @ @       i &. .%X@X X|.XXL.wXzXfX2X1.f.r.;.a.,Xe.:.j m.n.Z e ,.w q.qXj.:.2XfX/.+XXX&X@X@X#X          O                                   ",
"X   X     X O         =         X ` 5..XoXoXXXL.J.zXdXaXjXf.6.r.qXsXj.,.;.7X~.tXsX,.T 7 j.wX9Xh.iXdXS.+XU..X*X*X&X1     X Z.K.Z O X                             ",
"    O     X -         =   X       s J.+X+XXX X|./.jXwXuXwX;X,.:.j.4X,.Q 3X9XzX4X8XK 9 2 4XwX9XqXgXaXH.P.P.S.&X@X+XS     1 P.H..X< X                             ",
"                    X & X   o o   & L.XX&XG.K. XL.jX9XwXwX8XI ;.:.-.A n.k.gXqXyXqXe.8 8 9XwX8XsXaXeXP.P. XP.XX*X+XC.    S.n.n.D.<           O           X       ",
"          X   X > b n e O       X + .XXX@XS.Z.P.L.kX4XwXwX9XK L B m.N.3.g.gX9X8XqX8Xk k <XwX9XdXiX$XP.P. XXXP. XL.Z.    S n.m.b..                               ",
"  X       X $   b x.x.c.^ Q X   X , |.XX XG.L.A./.pX9XwXqX1XI h N ].jXzX].h.l.2XwXqXI K ! a.e.8XgX^.P.P.U.P.+X|.H.K..   X @ < +   X     X             X       X ",
"O : X     X $   b M x.V 3XyXqXT X : .XN.A 2.2.A <.dXwXwX,X9.w Q iXcXjXuXy.8X6.0X,Xj.,.6.I Q j.qXfXS.P.P.P.P..XoXH.Z.+           X X   X             X           ",
"  O     X X     + ^ x.<XqXj.h.uXg.: 2.^.%X|.+XXXZ.uXwX9Xj.;.t.zXjXdXyXwXu.k.9.f.K ;.q.,.K ,.rXf.^.F.F.H.P.A.S.P.|.K.O X u                         X           X ",
"        X -   X - r ! rX2Xl t 8Xq.~ ~.Y.~.B.L.oXK.aXrX8Xj.t.sXdXgXsXyXqX1.1.l l :.:.9.T W k a.~.V.V.A.F.P.H.P. XXX^.X   X % %                             X O   ",
"              X 6 - j j.0Xq.6.e.f.3Xb m x.M ^ B.L.aXyXwX<X3XaXzXgXyXqX9.! y 7 Y ~ Y Y e.a.L ,X3.V.V.V.A.D.H.P.oXXX5.a     % o                             ; p $ ",
"                      j e.qX2Xf.6XY.].B c.J.Z.~.D.qXiXrXu.iXdXaXrXqXe.T K 0 k K l 9.,.q.sXfX6.z.m.V.n.m.V.H.P.oXXX4.`                                     # ; O ",
"                X       h :.9.9X~.3X9.<.XXoXH.P.P.t.,X;Xg.wXwXwX9Xf.T l 7 K Y 9.q.K L 1XrXzX,X8XB.V.m.V.V.F.H..X}.} O.              X             X     X X     ",
"              X       o * - Q Q ^ ,XK ^.L.oXH.P.P.3.2X9X1Xq.,Xj.9.Y Y ,.j.,Xq.K 8 w ~ q.qXiXcXj.B.V.V.V.V.A.F.D.C.F H               X                   X X     ",
"              O X   X X X   b M t ;.-.+X+XXXP.P.Z.,.[.aXyX,XL W j.f.f.,.I t 8 7 7 w k I f.rXiX6Xn.V.V.V.V.D.H.S.-...]                                           ",
"      X                 X o r x.n O   S |.+XP.G.d.2.H./.].].9.;.e.W I l 9 7 7 7 7 7 w l W u.Y.Q.y.m.V.V.A.D.P.C.P ..O.  X o X                                   ",
"            X     o 3   X : : M b     @ L.oXS.3.0.L.H.P.A.J.,.a.sX2X,.I k 9 7 7 k 9 9 0 V M u.qXxX^.V.M.F.A.P.C d H J   X X X o                               X ",
"                o & o     X   b M O   X Z P.N.j.S P.P.A.M.n.,.1XdXwX9.I w 8 7 t z.f.w n b ,.9XwXuX0Xv.A.D.F.L.d H | G                   X         X           O ",
"                          X     b b X   X K.~.a.m.H.P.V.V.b.T 0X9X8X6.I t 7 7 Q V.[.0.r k W :XwXf.uX].F.A.H.A s _ ..D                         X         X X     ",
"              X         u J     X :   X   N d.q.m.H.D.m.V.S L ).R.Y.Y.V b 8 8 2.V.V.^.7.7 K 9.2X1XkXzXB.A.S.j d | | a   X     X X                               ",
"O                       G J i s D ] _ ` ( D q.e.m.H.F.V.m.3.c ].y.^ ! b b M r b.V.V.V.].T w W 9.2XkXvX^.G.-.g g H _ 3 # o =                       X             ",
"                        p ` / ] _ _ ' ] #._ { 1XS P.D.A.2.q.C gXwXwXh.:.K 8 z V.V.V.n.B.k.w I 6.q.aXvX].C H s / ( _ X o       * u             X X X             ",
"                    X   = D H F H H J H J &.R f.<X^.N.3.0.C ~.fXwXwXr.,.l w A V.V.V.m.n.^.q.w W 6.1XwXa.H d g | H H           X o X                             ",
"            X h :       X h & * = o o u G ` &.R q.1Xf.>.A V.^.wX8XwXe.6.l k N.V.V.V.m.A.H.t.K l q.e.:X8.g d ( H _ 3                               X       X     ",
"            X : -         - X         X u J o.G $ ; : S m.D.2.zX8X1X9.,.w l n.V.V.A.H.A.V.z.w L r.qXyXw.g H H / H       X                 X       X       X     ",
"                    X     X =       %   $ / ' `     % . < N 2.xXzXwX9.,.w T ^.A.D.D.D.F.n.rXL K f.wXuXi./ _ H D #     1 n.1 X O                                 ",
"                X           X       a   o J &.o.3   * X X   : aXcXqXf.6.l t d.V.A.A.b.B [ iXW I h.wXiXi.( g ) o       > n.,                                     ",
"                  X X           X X     X D ( &.] G # X *     a.zXqXf.e.:.t rXN N x _ O. .iXY l f.yXgXi.H J 3         . , X                                 X X ",
"o X X X O           O               <     3 _ _ ] .._ _ D G s $.2X8Xf.8X9.l r.-X] | ( H F yXW k q.rXjXi.D %         % %     o                 X X           X   ",
"      X O O             #         . Z     X d F ..H _ H J H J H h.,XqXwX,XW L wXf d s d F 2XY l 6.qXgX>.X   # 3                                     X o         ",
"                X X     X                   * s f / ..F ( f F H P 4XwXwX9X6.l r.E F _ F  .w.;.~ r.8XwXc         X 3         X X                   X X           ",
"                X X           X               3 H F H g ..F ..| H s.yXwXwXf.L k 1Xs ( H D ,XY 8 l ,.f.c X X                     X               X $ ; o X       ",
"                              i                 * a H s d d g g F P 2XaXwX2XL I 9.} J s u q.:.;.:.6.f.iX-.O                     X X             X O - X X       ",
"                      X   3   = X                   o % i i s f D J 8.fXyXj.:.I L j.&     0.:.k T Y e.wXgXz.O X   X             O O                     X       ",
"          X               X               X     o o           X X X h 9XqXqXK w Y q.$     O l.:.I T 9XwXjXgX<.X       = o       O o                       o X   ",
"    X                       X $       X O o     X X X $ o X O       O z.qXe.;.:.I 6.        X <.6.;.e.4XaXvX1X  X     X X             O o                   X   ",
"      X -     X   X           X     o d 5         X X Z }.; &   X X   O yX6.~ ,.K Y X X X       <.j.9.W :.8Xe.  i X                   X X                       ",
"    X X X                           X O X           + S.b.@ O     O   j j.e.:.K I h   X * X     X -.9Xj.8X4XT                                 X X O   O         ",
"          X X               X       X         X X     > <             0.jXiX4Xq.6.$   X X   X X X X - <.0.9.j                   X         & X                   ",
"  X       - h                                 % =   X X $ X           wXvXgXqX6.9.      X   X X                               X X         X                     ",
"      X   X $                               X           X - O     X X 9XbXrX6.f.j       u     X             X X         X o                     X               ",
"    X 6 ;         X O X                                 X X           e.zX,Xe.1X6 X X                       X X     X X             X X             X           ",
"    X 6 ;                                 X       X               X   - l.e.f.>.X X                                               o $ O X     X O         X     ",
"                                                  X                     h 0.-.O                   o                   X         X X             X               ",
"                                X           X                                             X X       X                         X O   X O                         "
};
