/* XPM */
static char *e79fe7ab36cb489ec610a58237fe9be5R1pGFZ44YGhTETkV[] = {
/* columns rows colors chars-per-pixel */
"80 80 213 2 ",
"   c #010202",
".  c #050609",
"X  c #05090B",
"o  c #0A0A0C",
"O  c #07100F",
"+  c #010C12",
"@  c #0C0D12",
"#  c #021216",
"$  c #0D1214",
"%  c #00131B",
"&  c #091619",
"*  c #0C1A1A",
"=  c #131415",
"-  c #111319",
";  c #131A1D",
":  c #191A1C",
">  c #10201F",
",  c #001621",
"<  c #011A23",
"1  c #001D29",
"2  c #171C26",
"3  c #1B1D23",
"4  c #01222C",
"5  c #132524",
"6  c #1E232A",
"7  c #152D2B",
"8  c #002533",
"9  c #012935",
"0  c #012C3B",
"q  c #0A2C3A",
"w  c #102D3A",
"e  c #00353D",
"r  c #0B313F",
"t  c #193634",
"y  c #242526",
"u  c #24272D",
"i  c #2F3139",
"p  c #2A323E",
"a  c #21413F",
"s  c #002F40",
"d  c #023343",
"f  c #0B3745",
"g  c #053A4A",
"h  c #093D4D",
"j  c #093F50",
"k  c #2D3443",
"l  c #024147",
"z  c #00434C",
"x  c #0B4555",
"c  c #0A4456",
"v  c #0E4A5C",
"b  c #1B4955",
"n  c #144D5D",
"m  c #01535B",
"M  c #16505F",
"N  c #234645",
"B  c #285854",
"V  c #2E635E",
"C  c #0F4E61",
"Z  c #104F60",
"A  c #005760",
"S  c #005E68",
"D  c #135263",
"F  c #1A5262",
"G  c #175A6B",
"H  c #155B6C",
"J  c #155D71",
"K  c #01666E",
"L  c #006B77",
"P  c #176476",
"I  c #196374",
"U  c #1C6A7B",
"Y  c #326B66",
"T  c #37736E",
"R  c #246474",
"E  c #276F74",
"W  c #246B7B",
"Q  c #2C737D",
"!  c #2A797E",
"~  c #3A7975",
"^  c #3D807A",
"/  c #40817B",
"(  c #1D6E81",
")  c #017B85",
"_  c #007D88",
"`  c #1B7385",
"'  c #237485",
"]  c #287585",
"[  c #227788",
"{  c #237C8D",
"}  c #317680",
"|  c #337D86",
" . c #267F91",
".. c #01848F",
"X. c #00909F",
"o. c #36818A",
"O. c #318C8E",
"+. c #268293",
"@. c #278798",
"#. c #298A9B",
"$. c #349598",
"%. c #0298A4",
"&. c #1A92A3",
"*. c #2B8EA1",
"=. c #2C93A5",
"-. c #2897A9",
";. c #2E9BAD",
":. c #379DA0",
">. c #2C9DB0",
",. c #00A6B6",
"<. c #00AEBD",
"1. c #28A6B9",
"2. c #30A3B5",
"3. c #3FAFB2",
"4. c #31A6BA",
"5. c #33AABD",
"6. c #2CB5B2",
"7. c #37B9BB",
"8. c #418B84",
"9. c #43928B",
"0. c #489B94",
"q. c #4BA39B",
"w. c #48A8A4",
"e. c #42B5B7",
"r. c #56BCB2",
"t. c #56C3BC",
"y. c #5CC3BA",
"u. c #5EC9BF",
"i. c #61C7BE",
"p. c #00AEC0",
"a. c #00B6C6",
"s. c #05BCC6",
"d. c #2EAEC2",
"f. c #32AEC1",
"g. c #2FB3C7",
"h. c #32B2C6",
"j. c #31B6CA",
"k. c #31B9CD",
"l. c #42B1C0",
"z. c #02C2CD",
"x. c #00C4D8",
"c. c #3AC7DA",
"v. c #00CDE2",
"b. c #00D2E9",
"n. c #4AC9CA",
"m. c #56C8C6",
"M. c #5ECBC1",
"N. c #5ED3C8",
"B. c #53D0D3",
"V. c #65CDC4",
"C. c #65D0C6",
"Z. c #63D5CA",
"A. c #6AD3CA",
"S. c #63D8CD",
"D. c #69D8CE",
"F. c #74D5CE",
"G. c #73D8CF",
"H. c #76C9D2",
"J. c #68D7D4",
"K. c #6CDBD2",
"L. c #7AD4D6",
"P. c #76DAD2",
"I. c #7ADDD6",
"U. c #7CDFD9",
"Y. c #74E0D7",
"T. c #75E0D8",
"R. c #7DE1DA",
"E. c #6ADBE0",
"W. c #79DDE4",
"Q. c #81C9D3",
"!. c #81DBD5",
"~. c #86DED9",
"^. c #81E3DD",
"/. c #8CE2DC",
"(. c #80DFEA",
"). c #85E6E1",
"_. c #8AE5E3",
"`. c #87E8E3",
"'. c #8CEAE5",
"]. c #8AE6E8",
"[. c #95E7E2",
"{. c #93EAE7",
"}. c #9CEAE6",
"|. c #94E5EB",
" X c #99E6EB",
".X c #92EDEA",
"XX c #9CECE9",
"oX c #96F0EC",
"OX c #9AF1EE",
"+X c #9DF3F1",
"@X c #A2EDE9",
"#X c #A9EEEC",
"$X c #A7F1EF",
"%X c #ADF1EF",
"&X c #ADEDF5",
"*X c #A3F5F4",
"=X c #ACF5F4",
"-X c #B4F4F2",
";X c #BCF6F5",
":X c #B8F8F8",
">X c #C2F1F7",
",X c #C3F8F7",
"<X c #CBF5FD",
"1X c #C6F9F8",
"2X c #CCFAFA",
"3X c #D3F6FE",
"4X c #DAF7FE",
"5X c #D4FBFC",
"6X c #DCFCFE",
"7X c #E2FEFF",
"8X c #ECFAFF",
"9X c #F4FCFF",
"0X c #F9FDFF",
/* pixels */
"          - .                 X       o .                     .             .               . o                                                               . ",
"                                      . .             .   o o                               .                               .                               . @ ",
"  . .                       .                                                 .     o .                       .             = o                                 ",
"                          . .                           . o         .                                         . .       .       .         .               .   . ",
"= =                                                     . .               . -           .               .             . o         .                       .     ",
": =           .                     .                                     . @                           .               .               . $ .           .       ",
"              . .                   .                                                                 .                                 . o .                   ",
"                                                                                        .         . .                               .                           ",
"                  .       . X o                           .                                       o o                         .                         .       ",
"        o .   . @ 3                               . . .                       .             .                             o .                                   ",
"                o :                                 . . .             .                   . $ o . .     .                         .                             ",
"                .                 . o     .         X o                     .         X             .                               . .                         ",
"              . o         .       - i                     .       o                     . o     . o . .                         o .           . .     . o       ",
". .                                 . .                           .         .             o . .                     o :         o .     .       o     X 3       ",
"                .   .               . o                   o .                                 @                     @ 6                 .             o p .     ",
"$ @                         .                             o           .             o o                                                                         ",
"3 :                       . p o                                       o             o o               .   .                                         .           ",
"- @                         2 o           . .                                                                                                                   ",
"  .                   .                   . .                                               . . .   : :       .                   .                             ",
"                                    . . .                   . .           .     . .       . o       @ @                                                         ",
"                                                                    .                         o                                                       .         ",
"        .         . .                                                           . .   .       . .     .                                   . .                   ",
"          .     .       .                     .               .       .               o       . .             o                           X @           .       ",
"          o . . .     . o                   . .               o .   o : o                           . .   .   o     .                                           ",
"            .                   .                                     : o                                 .         . .                                         ",
"                        .       .     .                                                                         . @               .         .           .       ",
"                            .           . .     .     .           .                     o . . = .     .         @ k o .           .                           . ",
"                o                       .       .                                       .   . o   . @ . .       . - .                               .           ",
"          .               o                     o .                     # < % & ;           .     . @                                 . o   .   .               ",
".       . .   . .         .                   o .                 # l K S A m z e 1 X           o             .                       o y o   @ @       o       ",
"                          . o .               .         .       9 ) %._ ....) L A l 9 %       @ p X                             .       .     o o       .       ",
"              .             . .               .               e ..<.%.,.<.p.,.%.) S l 4 %       .                                                               ",
"                                    .         o   .         4 ) s.<.a.x.v.v.x.a.%.) A e 4 +       . o .       X         . .                               o . . ",
"                                    .                     X m %.z.a.v.b.b.b.v.x.<.X.L z 9 < .     . .               . .                                   .   o ",
"        X .     .                             .   . . X + , 0 e d d d d 0 0 0 0 0 0 0 9 8 1 % + X . .               . .   .                       o o           ",
"        . .                                 . + + % , < 1 8 0 0 0 0 d d d d d d d d s 0 0 0 8 8 1 , % + + .                                       . o   @       ",
"                                      . X % < 4 8 0 0 d d d d g g g g g g g g g g g g d d d d d d 0 0 9 8 1 % X . X           .           .             X       ",
"                                  X % 1 0 0 0 0 g h x v D G H I I P U H F W J D P P I H G D v x x g g 0 0 0 0 0 4 % + .             .                   . .     ",
"-     .                       X < 8 0 0 g h Z H P P F { ' n +.*.=.=.=.n U L.7.r @.=.=.*.#.@.n U { F D H C x d 0 9 0 9 1 +           o                           ",
"X                           % 9 0 d h v G U [ +.#.D U H.l.M ;.h.j.k.k.k.1.;.>.g.j.j.j.h.f.4.D >.Q.&.h +.[ U I v j d 0 0 0 %     . . .             @ X .         ",
".         . .     .       + 0 d h v D I [ @.*.;.2.4.1.5.h.g.>.+.] Q } } | o.o.o.| } Q ] { -.d.h.5.2.2.;.=.#. .' H C x g 0 0 %                     o             ",
".         . o             , 0 g v D n W W ' ;.4.f.h.d.` R Q $.3.m.J.W.].|. X X|.].(.J.m.e.$.! R U 2.h.5.2.;.{ R W F v x g 0 8                     o .           ",
"  .                       % 0 g v q ` W.c.f #.4.f.-.q Q 6.n.W.&X<X3X4X4X4X4X4X4X4X4X3X3X;X).n.7.O.w { h.4.;.q 1.(.1.q v h d 4       .                           ",
". @ .                       4 d j v D R ] { =.>.4.n b 6.n.E.<X3X4X7X8X8X9X0X0X9X9X8X7X4X3X3X].n.6.E r f.2.;.#.] W G D v g 0 .     . .         . .       .       ",
"    . .                       , 0 g x D I ' +.#.=.@.b O.7.B._.;X3X4X4X7X7X7X7X7X7X4X4X3X>X XB.7.$.b +.;.=.#.+.( J D x g 4 .                             .       ",
"    . .   .     . .               % 8 d h v G U ' { @.] } w.S.D.*X,X4X3X3X3X3X3X3X<X:XI.S.N.:.| ] *.#.+.[ U H C x f 4 .               .                         ",
"          o     o =                   X % q d g h v G I U m.S.T.*X1X7X7X7X7X7X7X7X5X*XR.S.S.:.[ ( U H Z x h q < #                   . . .                       ",
"  o .           . .         @ .           6 - . # , 4 9 R S.S..X*X2X7X7X7X7X7X7X7X6X*XoXS.S.t.x f 9 4 % X                                       .             . ",
". .           .     .     @ o .           . .       @ 6 q.S.K.*X*X5X7X7X7X7X7X7X7X7X=X*XP.S.S.B                 .                                               ",
".               . @       @ . .                       N Z.S.`.*X*X6X7X7X7X7X7X7X7X7X:X*X.XS.S.r.@   . .                                     . .           .     ",
"      o : .     . @       .           .           . X w.S.S.OX*X=X7X7X7X7X7X7X7X7X7X;X*X*XK.S.Z.B                   .                 .     .             .     ",
"        @       .               @     .   . .     . t C.S.T.*X*X:X7X7X7X7X7X7X7X7X7X1X*X*X`.S.S.r.                          .                         .         ",
"        .     X -   . o .     o k @   . o       .   0.S.S..X*X*X1X6X6X6X6X6X6X6X6X6X5X*X*X+XD.S.S.V                         .                                   ",
"  .                 X u $                   . . @ a Z.S.K.+X+X+X5X6X6X6X6X6X6X6X6X6X6X*X+X+X^.S.S.r.O         .       . .   .                                 o ",
"                            .                   . 0.S.S.).+X+X*X5X6X6X6X6X6X6X6X6X6X6X=X+X+X.XS.S.S.B         o                                               o ",
"  o                                             7 C.S.S..X+X+X*X6X6X6X6X6X6X6X6X6X6X6X-X+X+X+XT.S.S.y.o       .                           .                   . ",
"  @ .                                 .   .     0.S.S.Y.+X+X+X=X6X6X6X6X6X6X6X6X6X6X6X;X+X+X+X.XS.S.S.Y X     .         .                 .                 . . ",
"  . .               o .   .           .       t Z.S.S.'.OXOXOX-X5X5X5X5X5X5X5X5X5X5X5X,XOXOXOXOXP.S.S.r.$ o       . o                                       .   ",
"            .                                 9.S.S.K..XOXOXoX;X3X3X3X3X5X3X5X3X3X3X3X1XoXOXOXOX).S.S.S.V o .       . . .       .                               ",
"                  .           . : .         7 C.S.S.R..XoXoX.X1X5X5X5X5X5X5X5X5X5X5X5X2XOXoXoX.X.XK.S.S.y.*                     . o                             ",
"                  .   o $ .     .           0.S.S.S.'..XoXoXOX2X2X5X2X5X2X2X2X2X2X2X2X5XOXoXoXoX.X^.S.S.S.Y         . .                       .       .         ",
"                                        . 7 N.S.S.P..X.X.X.XOX2X2X2X2X2X2X2X2X2X2X2X2X2X=X.X.X.X.X'.S.Z.S.y.$     . . .             .             .         . o ",
"                    .                     8.Z.S.S.)..X.X.X.X$X1X1X1X1X1X1X1X1X1X1X1X1X1X-X.X.X.X.X.XI.S.S.Z.~ .   . o       .       .                           ",
"    . o                                 7 Z.Z.Z.D.'..X.X.X.X-X1X1X1X1X1X1X1X1X1X1X1X1X1X;X.X.X.X.X{.`.S.Z.Z.y.&                                       .         ",
"                                      . 9.Z.Z.Z.T.'.'.'.'.'.-X,X,X,X,X,X,X,X,X,X,X,X,X,X;X.X'.'.'.'.'.P.Z.Z.Z.Y       .   . .                       . .         ",
"                              .       5 M.Z.Z.Z.`.'.'.'.'.'.-X,X;X;X;X;X;X;X,X;X;X,X;X;X;X{.'.'.'.'.'.^.Z.Z.Z.u.;     X                 .                       ",
"                  . y :       . 6 .   8.Z.Z.Z.K.`.`.`.`.`.'.-X;X;X;X;X;X;X;X;X;X;X;X;X;X;X{.`.`.`.`.`.`.D.Z.Z.Z.~                                     .       . ",
"y :               . : o         -   5 C.Z.Z.Z.T.).).`.`.).{.-X-X-X-X-X-X-X-X-X-X-X-X-X-X-XXX`.`.`.`.`.).T.Z.Z.Z.y.&                                   .       . ",
"$ o                               X ^ C.Z.Z.Z.).).).).).).{.-X-X-X-X-X-X-X-X-X-X-X-X-X-X-XXX).).).).).).).Z.Z.Z.Z.T           .   o                             ",
"                      .           ; M.Z.Z.Z.I.).).).).).^.XX%X%X%X%X%X%X%X%X%X%X%X%X%X%X%X@X^.).).).).).).P.S.Z.Z.M.*       . .                                 ",
"                        . .       8.Z.Z.Z.Z.R.^.^.^.^.^.^.@X#X#X#X#X#X#X#X#X#X#X#X#X#X#X#X@X^.^.^.^.^.^.^.R.Z.Z.Z.Z.T       o .       .                         ",
"      X   . . o           o     > u.Z.Z.Z.D.^.^.^.^.^.^.^.@X@X@X@X@X@X@X@X@X@X@X@X@X@X@X@X@X^.^.^.^.^.^.^.^.K.Z.Z.Z.u.&             .             . .           ",
"o           . o o               T Z.Z.Z.Z.I.R.R.R.R.R.R.^.@X@X@X@X@X@X@X@X@X@X@X@X@X@X@X@X@X/.R.R.R.R.R.R.R.I.Z.Z.Z.Z.^                                   X     ",
"    .                 . .     * V.C.C.C.Z.U.U.U.U.U.U.U.^.}.}.}.}.}.}.}.}.}.}.}.}.}.}.}.}.}./.U.U.U.U.U.U.U.U.A.C.C.C.y.*       . o                   . .       ",
"                      . .     ~ C.C.C.C.G.U.U.U.U.U.U.U./.[.[.[.[.[.[.[.[.[.[.[.[.[.[.[.[.[./.U.U.U.U.U.U.U.U.P.C.C.C.C.T           .                 o : o .   ",
"                            * y.C.C.C.C.P.I.I.I.I.I.I.I./.[.[.[.[.[.[.[.[.[.[.[.[.[.[.[.[.[./.I.U.I.U.U.U.U.U.U.A.C.C.C.V.;           .               . @ . .   ",
"                          . T C.C.C.C.A.I.I.I.I.I.I.I.I./././././././././././././././././././.I.I.I.I.I.I.I.I.I.G.C.C.C.C.^         . -                       . ",
"          .               * i.C.C.C.C.G.P.P.P.P.P.P.P.P./././././././././././././././././././.I.P.P.P.P.P.P.P.P.P.C.C.C.C.i.5 .       o                       . ",
"          .               Y V.V.V.V.C.G.P.P.P.P.P.P.P.P.~.~.~.~.~.~.~.~.~.~.~.~.~.~.~.~.~.~.~.P.P.P.P.P.G.P.P.P.P.A.V.V.V.V./             . o .                 ",
"            . $     .   $ y.V.V.V.V.A.G.F.F.F.F.F.F.F.P.!.!.!.!.!.!.!.!.!.!.!.!.!.!.!.!.!.!.!.P.G.F.F.F.F.F.F.F.G.G.V.V.V.V.i.5             .         .         "
};
