/* XPM */
static char *_98ae92e5a7a48ab8981495a8e6ce602BqV4qCPe0gYZgqTY[] = {
/* columns rows colors chars-per-pixel */
"80 80 217 2 ",
"   c #010102",
".  c #050609",
"X  c #04090C",
"o  c #0A0A0C",
"O  c #010D13",
"+  c #0C0D11",
"@  c #000F18",
"#  c #0D1213",
"$  c #01141C",
"%  c #091719",
"&  c #131315",
"*  c #15181C",
"=  c #001622",
"-  c #001B24",
";  c #001D2A",
":  c #1B1D23",
">  c #0D2121",
",  c #01222B",
"<  c #132827",
"1  c #002533",
"2  c #032A37",
"3  c #012C3B",
"4  c #01313B",
"5  c #0B303F",
"6  c #1C3735",
"7  c #22282A",
"8  c #2A3036",
"9  c #233836",
"0  c #1E423F",
"q  c #023242",
"w  c #0B3544",
"e  c #0C3745",
"r  c #033A44",
"t  c #063B4B",
"y  c #0A3D4D",
"u  c #2F3544",
"i  c #00434C",
"p  c #0A4354",
"a  c #044955",
"s  c #0E4B5C",
"d  c #134A55",
"f  c #114C5C",
"g  c #354745",
"h  c #2B5455",
"j  c #005A65",
"k  c #125263",
"l  c #125466",
"z  c #165B6C",
"x  c #185869",
"c  c #225A66",
"v  c #006978",
"b  c #1A6678",
"n  c #01737D",
"m  c #366D68",
"M  c #36736D",
"N  c #296A77",
"B  c #29737E",
"V  c #397B75",
"C  c #465B5A",
"Z  c #4C6C69",
"A  c #546F6D",
"S  c #56706E",
"D  c #567674",
"F  c #597774",
"G  c #5A7876",
"H  c #5C7E7B",
"J  c #607F7D",
"K  c #3D847D",
"L  c #54827D",
"P  c #5D807D",
"I  c #006F82",
"U  c #1E6F80",
"Y  c #007689",
"T  c #1F7384",
"R  c #227485",
"E  c #237B8C",
"W  c #297B8A",
"Q  c #257E90",
"!  c #637F85",
"~  c #018994",
"^  c #3F8881",
"/  c #32878E",
"(  c #268294",
")  c #288597",
"_  c #298A9C",
"`  c #369699",
"'  c #009AA8",
"]  c #1A96A7",
"[  c #2C93A5",
"{  c #2796A8",
"}  c #2D9BAD",
"|  c #2E9AAC",
" . c #3B92A3",
".. c #00A7B6",
"X. c #30B1AF",
"o. c #2BA6BA",
"O. c #30A3B6",
"+. c #31A5B8",
"@. c #31AABD",
"#. c #458788",
"$. c #5E8682",
"%. c #568A89",
"&. c #46928C",
"*. c #4D938D",
"=. c #57938E",
"-. c #498B93",
";. c #499795",
":. c #4A969B",
">. c #4B999E",
",. c #589999",
"<. c #608784",
"1. c #618886",
"2. c #618D89",
"3. c #63938F",
"4. c #649491",
"5. c #649993",
"6. c #659D99",
"7. c #51A29B",
"8. c #66A29D",
"9. c #69A39E",
"0. c #4B9DA2",
"q. c #4B9FAE",
"w. c #509FA1",
"e. c #4BA2A6",
"r. c #4BA5AA",
"t. c #41A8AB",
"y. c #4CA9AD",
"u. c #53A2A5",
"i. c #59A8A7",
"p. c #52B3B2",
"a. c #5CB4B3",
"s. c #5AB7B5",
"d. c #66A7A1",
"f. c #68A5A0",
"g. c #67ABA5",
"h. c #68ABA5",
"j. c #66AFA9",
"k. c #68AFA9",
"l. c #66B2AC",
"z. c #69B3AC",
"x. c #67BCB4",
"c. c #69BBB5",
"v. c #6ABBB4",
"b. c #47C3BF",
"n. c #5DC5BC",
"m. c #66C3BB",
"M. c #6CC4BC",
"N. c #66C8BF",
"B. c #00B8CA",
"V. c #32AEC1",
"C. c #33B6C9",
"Z. c #30B8CC",
"A. c #54B6C5",
"S. c #00C4D6",
"D. c #3FC4C4",
"F. c #00D8EE",
"G. c #49CACB",
"H. c #5CC9C5",
"J. c #5DD1C8",
"K. c #65CCC3",
"L. c #6ECAC2",
"P. c #68CAC8",
"I. c #71CDC5",
"U. c #64D1C6",
"Y. c #63D5CA",
"T. c #6BD4CB",
"R. c #64D8CD",
"E. c #6FD8CF",
"W. c #73D3CB",
"Q. c #79D5CE",
"!. c #72D8CF",
"~. c #6FCAD5",
"^. c #6DDBD2",
"/. c #62D5DC",
"(. c #7CD7D1",
"). c #75DAD2",
"_. c #7CDED8",
"`. c #77E1D9",
"'. c #7EE1DA",
"]. c #6BD7E0",
"[. c #76DDE2",
"{. c #83DCD7",
"}. c #87DFD9",
"|. c #82E3DD",
" X c #8CE1DC",
".X c #90E4DF",
"XX c #85E6E1",
"oX c #8AE8E3",
"OX c #8CEAE5",
"+X c #95E6E1",
"@X c #9BEAE6",
"#X c #92EEEA",
"$X c #9CEBE8",
"%X c #97F0EE",
"&X c #9AF1EE",
"*X c #9DF3F1",
"=X c #A4EEEA",
"-X c #A6EEEA",
";X c #A3F2EF",
":X c #ABF0ED",
">X c #A9EBF3",
",X c #A2F5F4",
"<X c #ABF4F3",
"1X c #B2F3F2",
"2X c #BBF5F5",
"3X c #BCF6F8",
"4X c #C3F9F7",
"5X c #C7F5FB",
"6X c #C4F9F9",
"7X c #CBFAFA",
"8X c #D4F6FE",
"9X c #D9F7FE",
"0X c #D3FBFC",
"qX c #DCFDFE",
"wX c #E2FEFF",
"eX c #EDFAFE",
"rX c #F1FCFF",
/* pixels */
"          & .                 X       o .                     .             .               . o                                                               . ",
"                                      . .             .   o o                               .                               .                               . + ",
"  . .                       .                                                 .     o .                       .             & o                                 ",
"                          . .                           . o         .                                         . .       .       .         .               .   . ",
"& &                                                     . .               X %           .               .             . o         .                       .     ",
"* &           .                     .                               $ r a i i 4 - X                     .               .               . # .           .       ",
"              . .                   .                           $ j ~ n n n v j i 4 -                 .                                 . o .                   ",
"                                                              , n ..~ ' ' ' ' ~ v a 4 ; X         . .                               .                           ",
"                  .       . X o                           . - n ......B.S.S.B...~ v i 2 -         o o                         .                         .       ",
"        o .   . + :                               . . .   X j ' S.B.S.F.F.F.F.S...~ j r 1 $                               o .                                   ",
"                o *                                 . . X , a v I Y Y Y I n n v v j a q 1 = % + X .                               .                             ",
"                .                 . +     .   . O O $ = = ; , 1 2 3 3 3 q q q q 3 3 2 2 1 ; ; = $ $ O X .                           . .                         ",
"              . o         .       & 8   . X @ = ; 1 2 3 3 q q q q q q q q q q q q q q q q q q 3 2 1 1 ; = O X . .               o .           . .     . o       ",
". .                               . X $ ; 1 3 3 3 q r t y p p s s k k k f f s s s s s p p y t r r q 3 2 3 3 1 - O X X &         o .     .       o     X :       ",
"                .   .         . O ; 1 2 3 q y s k z x c x U E Q ( ) ) w ] ~.] w ( ( Q E R T z k k f s p t 3 2 2 2 1 ; O                 .             o 8 .     ",
"# +                         O ; 2 3 r p s z b R Q y ) ].o.w | +.@.@.V.[ ( q.) _ V.@.o.O.| ) 5 C./.b p T b z s t q 2 2 2 ; .                                     ",
": *                       X 2 3 r p k z T Q _ [ | _ (  .[ @.Z.Z.o.{ _ ( ( Q Q ( ( _ { o.Z.Z.O.[  .E _ [ ) E R b s p r 3 2 1 .                       .           ",
"& +                       , 3 t p k z b E [ | O.@.V.Z.o.E B B / ` t.p.H.H.P.P.H.H.p. .` W B B E @.C.@.+.| [ ) R z k s y q 2 -                                   ",
"  .                   .   , q y s w T A.) y | @.V.o.k h ` X.G.[.>X5X8X8X8X8X9X8X8X8X3X=X[.G.X./ d b V.V.+.[ w [ A.b w s t 3 -     .                             ",
"                          O 3 t p p z -.R b | O.V.y c X.G.[.5X8X9XwXwXeXrXrXrXrXeXwXwX9X8X2X/.D.X.y k V.+.| b W -.x s s t 4 X                                   ",
"                            O 2 r p k b R ( _ [ O.x c X.G.].2X8X9XwXwXeXeXrXrXeXeXwX9X9X8X1X/.D.X.d b O.| [ ) E b z s p 3 O                           .         ",
"        .         . .         . $ 2 r p k z U E ) _ R N ` b.R.|.3X5X8X8X8X8X8X8X8X8X4X$X_.J.X.` N ( [ _ ) E b z s p q $                   . .                   ",
"          .     .       .           O - 2 r y s x b U R R n.R.'.,X7XwXwXqXqXqXqXwX6X*XR.R.J./ Q ( E b b l s p w , O                       X +           .       ",
"          o . . .     . o                 X $ ; 1 4 y p B R.R.&X,XqXwXwXwXwXwXwXwX7X,X'.R.R.` l k p e 2 , % . o     .                                           ",
"            .                   .                   . X p.R.^.,X<XqXwXwXwXwXwXwXwXqX,X*XR.R.J.> X X       .         . .                                         ",
"                        .       .     .               0 Y.R.XX,X1XwXwXwXwXwXwXwXwXwX<X,X`.R.R.m                 . +               .         .           .       ",
"                            .           . .     .     7.R.R.,X,X3XwXwXwXwXwXwXwXwXwX1X,X#XR.R.n.#     .         + u o .           .                           . ",
"                o                       .       .   6 Y.R.'.,X,X6XwXwXwXwXwXwXwXwXwX3X,X,X).R.R.M . + . .       . & .                               .           ",
"          .               o                     o X 7.R.R.#X,X,X7XqXqXqXqXqXqXqXqXqX6X,X,XOXR.R.n.* +                                 . o   .   .               ",
".       . .   . .         .                   o . 6 Y.R.^.*X*X*X0XqXqXwXqXqXqXqXqXqX7X*X,X*X^.R.R.m           .                 .     o 7 o   + +       o       ",
"                          . o .               .   ;.R.R.XX*X*X,XqXqXqXqXqXqXqXqXqXqX0X*X*X*X|.R.R.n.%                           .       .     o o       .       ",
"              .             . .               . 6 R.R.R.&X*X*X<XqXqXqXqXqXqXqXqXqXqXqX,X*X*X&XR.R.R.V                                                           ",
"                                    .         o ;.R.R.`.*X*X*X2XqXqXqXqXqXqXqXqXqXqXqX<X*X*X*X`.R.R.n.*       X         . .                               o . . ",
"                                    .         < Y.R.R.oX*X*X*X6XqXqXqXqXqXqXqXqXqXqXqX1X*X*X*X#XR.R.R.M             . .                                   .   o ",
"        X .     .                             ;.R.R.^.&X&X&X&X7X0X0X0X0X0X0X0X0X0X0X0X3X&X&X&X&X).R.R.J.*           . .   .                       o o           ",
"        . .                                 6 Y.R.R.XX%X%X%X&X7X0X0X0X0X0X0X0X0X0X0X0X6X%X%X%X%XoXR.R.R.V                                         . o   +       ",
"                                          . &.R.R.R.#X#X#X#X&X7X7X7X0X0X7X7X0X0X0X0X0X7X&X#X#X#X#X^.R.R.H.%     . o           .           .             X       ",
"                                          < Y.Y.R.).#X#X#X#X;X7X7X7X7X7X7X7X7X7X7X7X7X7X&X#X#X#X#X'.Y.R.Y.K       o                 .                   . .     ",
"&     .                                 . &.Y.R.Y.XX#X#X#X#X<X7X7X7X7X7X7X7X7X7X7X7X7X7X;X#X#X#X#X#XR.R.R.H.>                       o                           ",
"X                                 .     < K.R.R.^.#X#X#X#X#X1X7X7X7X7X7X7X7X7X7X7X7X7X7X:X#X#X#X#X#X`.R.R.Y.V   .               . . .             + X .         ",
".         . .     .       .       .   . ^ Y.Y.Y.`.OXOXOXOXOX3X4X4X4X4X4X4X4X4X4X4X4X4X4X1XOXOXOXOXOXoXR.R.Y.K.>                                   o             ",
".         . o                     o   < Y.R.Y.Y.XXOXOXOXOXOX4X4X4X4X4X4X4X4X4X4X4X4X4X4X1XoXOXOXOXOXOX).R.R.Y.^ .                                 o .           ",
"  .                                 . #.Y.Y.Y.^.oXoXoXoXoX#X3X3X3X3X3X3X3X3X3X3X3X3X3X3X2XoXoXoXoXoXoXXXY.Y.Y.H.>         .         .                           ",
". + .                               > H.Y.Y.Y.'.oXoXoXoXoX$X2X2X2X2X2X2X2X2X2X2X2X2X2X2X2XOXoXoXoXoXoXoX^.Y.Y.Y.K         .       . .         . .       .       ",
"    . .                       .     ^ Y.Y.Y.T.XXXXXXXXXXXX=X1X1X1X1X1X1X1X1X1X1X1X1X1X1X1X#XXXXXXXXXXXXX`.Y.Y.Y.Y.<                                     .       ",
"    . .   .     . .               < K.R.R.R.).XXXXXXXXXXXX=X<X1X1X1X1X1X1X1X1X1X1X1X1X1X<X$XXXXXXXXXXXXXXXT.R.R.Y.^                   .                         ",
"          o     o &               V Y.Y.Y.R.'.|.|.|.|.|.|.=X:X:X:X:X:X:X:X:X:X:X:X:X:X:X:X$X|.|.|.|.|.|.|.).Y.Y.Y.K.>               . . .                       ",
"  o .           . .         + . % K.Y.Y.Y.^.|.|.|.|.|.|.|.=X=X=X=X=X=X=X=X=X=X=X=X=X=X=X=X=X|.|.|.|.|.|.|.'.R.Y.Y.Y.&.                          .             . ",
". .           .     .     + o . K Y.Y.Y.Y._.'.'.'.'.'.'.|.=X=X=X=X=X=X=X=X=X=X=X=X=X=X=X=X=X|.'.'.'.'.'.'.'.^.Y.Y.Y.K.<                                         ",
".               . +       + . > n.Y.Y.Y.T._.'.'.'.'.'.'. X@X$X$X$X$X$X$X$X$X$X$X$X$X$X$X@X@X|.'.'.'.'.'.'.'._.U.Y.Y.U.#.                    . .           .     ",
"      o * .     . +       .   M U.U.U.U.E._._._._._._._.+X@X@X@X@X@X@X@X@X@X@X@X@X@X@X@X@X@X|._._._._._._._._.T.U.U.U.U.<             .     .             .     ",
"        +       .           % K.U.U.U.U._._._._._._._._.+X+X+X+X+X+X+X+X+X+X+X+X+X+X+X+X+X+X X_._._._._._._._.).U.U.U.U.&.                            .         ",
"        .     X &   . o .   M U.U.U.U.T._._._._._._._._. X.X.X.X.X.X.X.X.X.X.X.X.X.X.X.X.X.X X_._._._._._._._._.T.U.U.U.K.< .                                   ",
"  .                 X 7 # # n.U.U.U.U.!.).).).).).).)._. X X X X X X X X X X X X X X X X X X X).).).).).).).).).!.U.U.U.U.&..                                 o ",
"                          M U.K.K.K.U.).).).).).).).).(.}.}.}.}.}.}.}.}.}.}.}.}.}.}.}.}.}.}.}.(.).).).).).).).).).U.K.K.K.U.6                                 o ",
"  o                     % n.K.K.K.K.T.!.!.!.!.!.!.!.!.(.{.{.{.{.{.{.{.{.{.{.{.{.{.{.{.{.{.{.{.(.!.!.!.!.!.!.!.!.!.T.K.K.K.K.&.            .                   . ",
"  + .                   m K.K.K.K.K.W.W.!.!.W.W.W.!.W.(.{.(.{.(.(.(.(.{.{.(.(.(.(.(.(.(.(.(.{.Q.W.W.W.W.!.W.!.!.W.W.K.K.K.K.K.<           .                 . . ",
"  . .               o # s.K.K.K.K.L.W.W.W.W.W.W.W.W.W.Q.Q.Q.Q.Q.Q.Q.Q.Q.Q.Q.Q.Q.Q.Q.Q.Q.Q.Q.Q.Q.W.W.W.W.W.W.W.W.W.W.L.K.K.K.K.;.                            .   ",
"            .         m K.K.K.K.K.L.W.W.W.W.W.W.I.I.W.Q.Q.Q.Q.Q.Q.Q.Q.Q.Q.Q.Q.Q.Q.Q.Q.Q.Q.Q.Q.Q.T.W.W.W.W.W.W.W.W.W.T.K.K.K.K.N.6                               ",
"                  . # a.N.N.K.N.K.I.I.I.I.I.I.I.I.I.I.W.W.W.W.W.W.W.W.W.W.W.W.W.W.W.W.W.W.W.W.W.L.I.I.I.I.I.I.I.I.I.L.K.N.N.N.N.*.o                             ",
"                  . h N.m.N.N.N.K.L.I.I.L.L.L.L.L.L.I.I.I.I.I.I.I.I.I.I.I.I.I.I.I.I.I.I.I.I.I.I.L.I.L.L.L.L.L.L.I.I.I.L.N.N.N.N.N.6           .       .         ",
"                  # l.m.m.m.m.m.L.L.L.L.L.L.L.L.L.L.L.I.I.L.L.L.L.I.I.I.I.I.L.L.I.I.I.I.L.I.I.L.L.L.L.L.L.L.L.L.L.L.L.L.m.m.m.m.m.*.X             .         . o ",
"                  h m.m.m.m.m.m.M.M.M.M.M.M.M.M.M.M.M.M.M.M.M.M.M.M.M.M.M.M.m.s.p.p.p.s.m.M.L.m.m.m.m.M.M.M.L.M.M.M.M.M.m.m.m.m.m.m.6                           ",
"    . o         X i.x.x.x.x.x.m.m.m.m.M.M.M.m.m.m.M.M.M.M.M.M.M.M.M.M.M.M.a.y.y.y.y.y.y.y.p.a.y.y.y.y.x.m.m.m.M.M.M.m.m.m.x.x.x.x.x.*.                .         ",
"                h x.x.x.x.x.x.x.x.x.M.v.x.v.x.x.x.x.v.v.v.x.x.x.x.x.x.x.y.r.y.y.r.r.y.y.y.y.r.r.y.y.y.a.x.v.v.x.x.x.x.v.x.x.x.v.x.x.x.9             . .         ",
"              o i.v.v.v.v.v.v.v.x.v.x.x.v.v.v.v.v.x.v.v.v.v.v.x.v.v.a.r.r.r.r.r.r.r.r.r.r.r.r.r.r.y.y.a.v.v.v.v.x.v.v.x.v.v.v.v.v.v.v.%..                       ",
"              g z.v.v.v.z.z.z.v.v.v.v.v.v.v.v.v.v.v.v.v.v.v.v.v.v.i.r.r.r.r.r.r.r.r.r.r.r.r.i.l.y.r.i.v.v.v.v.v.v.v.v.v.v.v.v.z.z.z.z.v.9             .       . ",
"7 *           ,.l.z.v.z.l.l.z.z.v.z.z.z.z.z.z.z.z.z.z.z.z.z.z.z.i.e.e.e.e.e.e.e.e.e.i.i.r.e.j.z.z.z.z.z.z.z.z.z.z.z.z.z.z.z.z.z.l.l.z.l.=.            .       . ",
"# o         g l.k.k.l.k.k.l.k.k.k.l.k.l.k.l.l.l.k.k.l.k.k.l.k.u.e.e.e.e.e.e.i.k.u.u.k.l.e.e.k.k.k.l.l.k.k.l.k.k.k.k.k.l.k.k.l.l.l.l.k.l.g.9                     ",
"          X =.g.g.g.g.h.g.g.g.g.h.h.h.h.g.g.g.h.h.h.h.g.h.h.u.0.u.0.0.0.0.i.h.g.0.g.g.g.0.e.g.g.g.h.g.g.g.g.g.g.h.g.g.g.h.g.h.h.g.g.g.g.g.%..                   ",
"          9 d.d.d.d.d.d.d.d.d.d.d.d.d.d.d.d.d.d.d.d.d.d.d.u.0.u.d.0.0.0.d.d.d.u.w.d.d.d.0.u.d.d.h.k.d.d.d.d.d.d.d.d.d.d.d.d.h.d.d.d.d.d.d.d.9                   ",
"      X X =.9.f.8.8.8.8.8.9.8.8.8.9.8.8.8.8.8.8.8.8.8.8.>.>.>.8.,.>.>.8.8.8.8.>.8.8.8.8.>.8.8.8.8.9.8.9.9.8.8.8.8.8.8.8.8.8.8.8.8.8.8.8.8.8.L .   . .           ",
"o       9 6.6.8.8.6.6.6.6.6.6.6.6.6.6.6.6.6.6.6.6.,.:.:.:.:.6.,.:.:.,.6.6.6.,.6.6.6.6.,.,.6.6.6.6.6.6.9.8.6.6.6.6.6.6.6.6.6.6.6.6.6.6.6.6.6.6.9           X     ",
"    . . H 5.5.5.5.5.5.5.5.5.5.5.5.5.5.5.5.5.5.5.5.,.,.5.5.5.5.:.:.,.5.5.5.5.5.5.5.5.5.:.5.5.5.5.5.5.5.5.5.5.5.5.5.5.5.5.5.5.5.5.5.5.5.5.5.5.5.L       . .       ",
"      9 4.4.3.3.3.3.3.4.4.3.4.3.3.3.4.3.3.3.3.3.3.4.3.3.3.3.=.;.;.3.3.4.3.3.3.3.3.3.=.=.5.4.3.3.3.4.4.4.3.3.4.4.4.4.3.3.3.3.3.3.3.3.4.3.3.3.3.3.9     o * o .   ",
"    . D 2.2.2.2.2.2.2.2.2.2.2.2.2.2.2.2.2.2.2.2.2.2.2.2.2.%.-.-.%.2.2.2.2.2.2.2.2.%.-.2.3.2.2.2.2.2.2.2.3.2.3.3.2.2.2.2.2.2.2.2.2.2.2.2.2.2.2.2.A     . + . .   ",
"    7 $.$.$.$.$.$.$.$.$.$.$.<.$.$.$.$.$.$.$.$.$.$.$.$.$.%.-.-.%.$.$.$.$.$.$.$.$.$.$.$.$.1.$.$.$.$.$.$.<.1.<.$.$.$.$.1.<.<.$.$.$.$.$.1.2.$.$.$.$.$.7           . ",
"    Z H P P H H P H H H H H H P H H H H H H H P P P %.#.#.#.#.P H H P H H H H H P H P P H H H P H H H H H H P H H H P H H H P P H H P $.H H H H H g           . ",
"  7 G G G G G G G G G G G G G G G G J G G G G H G G G D G H G G H G G G G G G G G G G G G G G G G G G G G G G G G G G G G G G G G G G G G G H G G g             ",
"  C S S A S D G S S S S D S A A A S S A S S ! G S S S S D S S S G D S S S S S S S S S A S F S S S S S S S S S G S S A S S S S S A A S S S S S S A g   .         "
};
