/* XPM */
static char *_06eeb93082a41dc8437ec0c88d77c508TBR2vEwKWeUbhu1[] = {
/* columns rows colors chars-per-pixel */
"80 80 201 2 ",
"   c #010202",
".  c #060609",
"X  c #05090B",
"o  c #0A0A0C",
"O  c #010D13",
"+  c #0C0D11",
"@  c #000F18",
"#  c #011116",
"$  c #0D1215",
"%  c #01141C",
"&  c #0A151A",
"*  c #0C1B1C",
"=  c #121315",
"-  c #111319",
";  c #15181D",
":  c #191A1B",
">  c #001622",
",  c #011B24",
"<  c #001D2A",
"1  c #171C26",
"2  c #1B1D23",
"3  c #01212C",
"4  c #1F2226",
"5  c #1C222B",
"6  c #012633",
"7  c #002836",
"8  c #002C3B",
"9  c #01333D",
"0  c #0C303E",
"q  c #193736",
"w  c #242526",
"e  c #24272D",
"r  c #2A2E3F",
"t  c #2A323E",
"y  c gray20",
"u  c #1F423F",
"i  c #002F40",
"p  c #023242",
"a  c #083543",
"s  c #0A3947",
"d  c #053B4B",
"f  c #0A3C4C",
"g  c #163D49",
"h  c #2D3443",
"j  c #00434B",
"k  c #00484F",
"l  c #1D4247",
"z  c #0A4354",
"x  c #004A53",
"c  c #0E4759",
"v  c #004C5A",
"b  c #0E4B5D",
"n  c #104453",
"m  c #124D5D",
"M  c #00515B",
"N  c #224440",
"B  c #215059",
"V  c #2E635F",
"C  c #0F4E60",
"Z  c #104F60",
"A  c #055866",
"S  c #115263",
"D  c #1A5261",
"F  c #155B6C",
"G  c #1A5969",
"H  c #255B63",
"J  c #01646C",
"K  c #1B616E",
"L  c #016774",
"P  c #006B76",
"I  c #006C7D",
"U  c #176372",
"Y  c #1B6375",
"T  c #1C6B7D",
"R  c #01727D",
"E  c #326D68",
"W  c #2A6A77",
"Q  c #29737E",
"!  c #367670",
"~  c #3B837E",
"^  c #006D80",
"/  c #1E6F81",
"(  c #007384",
")  c #00788B",
"_  c #1B7384",
"`  c #1E7F90",
"'  c #217384",
"]  c #2D7F85",
"[  c #217788",
"{  c #247B8C",
"}  c #2A7E8E",
"|  c #307B8A",
" . c #257F91",
".. c #2A7F90",
"X. c #018893",
"o. c #008D9B",
"O. c #1D8B9B",
"+. c #03949D",
"@. c #2F8288",
"#. c #258294",
"$. c #298494",
"%. c #288799",
"&. c #278A9C",
"*. c #2A8B9D",
"=. c #358D96",
"-. c #379699",
";. c #0095A3",
":. c #009EAD",
">. c #2B8EA0",
",. c #2C92A4",
"<. c #2696A8",
"1. c #2E9AAC",
"2. c #3896A6",
"3. c #2F9EB0",
"4. c #05ABB3",
"5. c #01ACBA",
"6. c #00B0BD",
"7. c #27A8A5",
"8. c #3EA4A8",
"9. c #29B1AD",
"0. c #2CA2B5",
"q. c #2AA6BA",
"w. c #30A3B6",
"e. c #31A6B9",
"r. c #31A9BD",
"t. c #39BAB8",
"y. c #38BCBC",
"u. c #45968E",
"i. c #4A8592",
"p. c #489C94",
"a. c #4AA29A",
"s. c #4A9DAC",
"d. c #47A9A6",
"f. c #52AEA6",
"g. c #4CB6B6",
"h. c #50B1B0",
"j. c #5AC3BA",
"k. c #5DCABF",
"l. c #00BBCD",
"z. c #2DADC1",
"x. c #31AEC2",
"c. c #2FB6CA",
"v. c #33B1C3",
"b. c #34B9CC",
"n. c #32BCD1",
"m. c #4FB4C3",
"M. c #56B7C5",
"N. c #00C3D7",
"B. c #03CAD4",
"V. c #00C6D9",
"C. c #3EC3C3",
"Z. c #00D5EB",
"A. c #00DBF2",
"S. c #46C9CA",
"D. c #5DCCC1",
"F. c #5AC5C8",
"G. c #52CED0",
"H. c #62CCCF",
"J. c #60D2C7",
"K. c #63D6CC",
"L. c #64D8CD",
"P. c #69C8D4",
"I. c #67DAD0",
"U. c #6BDBD2",
"Y. c #61D4DC",
"T. c #71DFD5",
"R. c #7BDFD8",
"E. c #74E0D7",
"W. c #76E1D8",
"Q. c #7BE3DC",
"!. c #68D4E0",
"~. c #73DCE1",
"^. c #7FDFE4",
"/. c #82E3DD",
"(. c #84E7E2",
"). c #86E9E3",
"_. c #8CEAE6",
"`. c #93EEEA",
"'. c #9FE8EF",
"]. c #97F0EE",
"[. c #99F1EE",
"{. c #9DF3F1",
"}. c #A6EBEF",
"|. c #A3F1EF",
" X c #B4EFF5",
".X c #A3F5F4",
"XX c #ABF5F4",
"oX c #B3F5F5",
"OX c #B9F7F5",
"+X c #BBF6F8",
"@X c #C3F3FB",
"#X c #CBF5FD",
"$X c #C4F9F9",
"%X c #CBFAFA",
"&X c #D4F6FE",
"*X c #D9F7FE",
"=X c #D2FBFC",
"-X c #DCFDFE",
";X c #E2FEFF",
":X c #ECFAFE",
">X c #F1FCFF",
/* pixels */
"          - .                 X       o .                     .             .               . o                                                               . ",
"                                      . .             .   o o                               .                               .                               . + ",
"  . .                       .                                                 .     o .                       .             = o                                 ",
"                          . .                           . o         .                                         . .       .       .         .               .   . ",
"= =                                                     . .               . -           .               .             . o         .                       .     ",
": =           .                     .                                     . +                           .               .               . $ .           .       ",
"              . .                   .                                                                 .                                 . o .                   ",
"                                                                                        .         . .                               .                           ",
"                  .       . X o                           .                                       o o                         .                         .       ",
"        o .   . + 2                               . . .                       .             .                             o .                                   ",
"                o ;                                 . . .             .                   . $ o . .     .                         .                             ",
"                .                 . o     .         X o                     .         X             .                               . .                         ",
"              . o         .       - y                     .       o                     . o     . o . .                         o .           . .     . o       ",
". .                                 . .                           .         .             o . .                     o ;         o .     .       o     X 2       ",
"                .   .               . o                   o .                                 +                     + 4                 .             o r .     ",
"$ +                         .                             o           .             o o                                                                         ",
"2 ;                       . t o                                       o             o o               .   .                                         .           ",
"- +                         1 o           . .                                                                                                                   ",
"  .                   .                   . .                                               . . .   ; ;       .                   .                             ",
"                                    . . .                   . .           .     . .       . o       + +                                                         ",
"                                                                    .                         o                                                       .         ",
"        .         . .                                                           . .   .       . .     .                                   . .                   ",
"          .     .       .                     .               .       .               o       . .             o                           X +           .       ",
"          o . . .     . o                   . .               o .   o ; o                           . .   .   o     .                                           ",
"            .                   .                                     : o                                 .         . .                                         ",
"                        .       .     .                                                                         . +               .         .           .       ",
"                            .           . .     .     .           .                     o . . = .     .         + h o .           .                           . ",
"                o                       .       .                                       .   . o   . + . .       . - .                               .           ",
"          .               o                     o .                       .   o :           .     . +                                 . o   .   .               ",
".       . .   . .         .                   o .                   .         . o               o             .                       o w o   + +       o       ",
"                          . o .               .         .                   .                 + t X                             .       .     o o       .       ",
"              .             . .               .                                                 .                                                               ",
"                                    .         o   .                           X                     . .       X         . .                               o . . ",
"                                    .                                             . X             . .               . .                                   .   o ",
"        X .     .                             .   .                           . o o +           .   .               . .   .                       o o           ",
"        . .                                       .   . .   .                 . o         . .   .                                                 . o   +       ",
"                                          . o o .     o . . .             .               .                     . o           .           .             X       ",
"                                              . . .   . . X           .   . .               X o                   o                 .                   . .     ",
"-     .                                           .                                                                                 o                           ",
"X                                 .                                                               . . X         .               . . .             + X .         ",
".         . .     .       .       .   .         .                                                   .                                             o             ",
".         . o                     o     . .                                 .               .                                                     o .           ",
"  .                                                         . .               o                                           .         .                           ",
". + .                                                                       X o       .                 .     . .         .       . .         . .       .       ",
"    . .                       .                           . .               o     .             .               .                                       .       ",
"    . .   .     . .                               . . =               % 9 k k j 9 3 O                 .         .                     .                         ",
"          o     o =                       5 $   o . . o           X x X.R R R P A x 9 < X             .         .                   . . .                       ",
"  o .           . .         + .           5 -   .               % J 4.+.;.:.:.;.X.P M p 3 O                                                     .             . ",
". .           .     .     + o .           . .       + 5       # J 4.5.5.l.N.N.l.5.o.I v 9 < X                   .                                               ",
".               . +       + . .                       o       j +.B.6.V.Z.A.A.Z.V.5.o.J d 6 >       . .                                     . .           .     ",
"      o : .     . +       .           .           . .   X . % x L R ( ) ) ( ^ I I L A v p 6 , O                     .                 .     .             .     ",
"        +       .               +     .   . .   . O O % % > < < 6 6 8 8 8 i p p p 8 8 8 8 6 3 < > % % O X .                 .                         .         ",
"        .     X -   . o .     o h +   . o . X O % < 6 6 8 8 p p p p p p p p p p p p p p p p p p 8 8 7 6 < > @ X .           .                                   ",
"  .                 X e $             X O , 6 8 8 8 9 p d f z z c b b Z S m m m b b b c z z f d p p p 8 8 8 8 7 < % X . .   .                                 o ",
"                            .   . O < 6 8 8 p d c S F F G G T { { #.%.%.n _ P.v.a [ #. .{ [ ' Y D D m C z f p 8 8 8 7 3 O .                                   o ",
"  o                           . , 8 8 p f c F T [ { m U Y.b.0 &.w.r.r.x.1.{ s.=.{ r.r.e.w.0.1.0 q.!.O.s ' T F Z f p 8 8 8 3 O             .                   . ",
"  + .                       . 6 8 a z b F / { %.,.1.,.{ 2.2.0.n.c.q.<.&.#.$.} } ..#.%.<.0.c.b.q.,.2.} %.,.*.#.[ Y S z d 8 8 8 X           .                 . . ",
"  . .               o .   . % 8 a z S F Y { *.1.w.r.x.b.z.#.Q Q ] =.8.g.F.F.H.H.F.F.g.d.-.@.Q Q [ 0.b.x.e.3.,.*.[ Y S C z p 8 3                             .   ",
"            .               , 8 f b s F m.1.s ,.e.x.x.Y l =.t.S.~.'.+X#X&X&X*X&X&X&X&X@X}.^.G.y.-.B m q.x.r.1.f ` M.#.a b f 9 6 .                               ",
"                  .         X 8 a z z S i.| Y ,.w.r.F g 7.C.Y. X&X*X-X;X:X>X>X>X>X:X;X;X*X&X@X~.S.9.H s v.e.3.T ' i.Y c b f p # . o                             ",
"                  .   o $ .   X 6 a z Z F _  .*.,.1.T g 7.C.Y. X&X*X-X;X:X:X>X>X:X:X;X;X*X&X@X~.S.9.H F e.1.,.*.{ T F b z p %                 .       .         ",
"                                  % 7 a z b F T [ #.*.{ W =.t.L.R.oX#X&X&X&X&X&X&X&X&X#X}./.K.t.-.W [ ,.>.%.{ T F Z z s < .         .             .         . o ",
"                    .                 O , 6 a f c S U T [ [ h.L.T..X$X;X;X-X-X-X-X;X=X.XT.L.L.-.} #.{ / Y F b z a 6 & .     .       .                           ",
"    . o                                   .   # , 3 8 d z K K.L.)..X%X;X;X;X;X;X;X;X-X.X_.L.L.h.F S c s 8 3 % X                                       .         ",
"                                      .   .           . X ~ K.L..X.X=X;X;X;X;X;X;X;X-XXX.XU.L.J.q & -                 .   . .                       . .         ",
"                              .       .                 * D.L.Q..X.X-X;X;X;X;X;X;X;X;XoX.X).L.K.u.- 2           o     X                 .                       ",
"                  . w :       . 4 .               .     ~ K.L.`..XXX;X;X;X;X;X;X;X;X;X+X.X{.I.L.K.q .       . . X                                     .       . ",
"w :               . : o         -                     * k.L.U..X.XOX;X;X;X;X;X;X;X;X;X$X.X.XQ.L.K.u.                                                  .       . ",
"$ o                               .                   ! K.L.)..X.X$X-X-X-X-X-X-X-X-X-X=X.X.X].L.L.K.q                         .   o                             ",
"                      .           .                 & D.K.L.{..X{.%X-X-X;X-X-X-X-X-X-X-X.X.X.XW.L.K.a.          .           . .                                 ",
"                        . .           . .   .       ! K.L.Q.{.{..X=X-X-X-X-X-X-X-X-X-X-X.X{.{._.L.L.J.q .                   o .       .                         ",
"      X   . . o           o                       & j.K.L._.{.{..X-X-X-X-X-X-X-X-X-X-X-XXX{.{.{.U.L.K.p.o   .                       .             . .           ",
"o           . o o                                 E K.L.U.[.{.{.XX-X-X-X-X-X-X-X-X-X-X-XOX{.{.{.(.L.L.K.N                                                 X     ",
"    .                 . .                       & D.L.L.(.[.{.{.oX-X-X-X-X-X=X=X-X-X-X=X+X{.{.{.[.U.L.K.a.                      . o                   . .       ",
"                      . .                       E K.L.L.`.[.[.[.OX=X=X=X=X=X=X=X=X=X=X=X%X[.[.[.[.Q.L.L.K.q . o .                   .                 o ; o .   ",
"                                              o j.L.L.E.].].].].$X=X=X=X=X=X=X=X=X=X=X=X%X].].].].`.L.L.K.d.o o                       .               . + . .   ",
"                          . .                 E K.L.K.).`.`.`.`.%X=X=X=X%X%X=X=X=X=X=X%X=X[.`.`.`.`.W.K.L.K.u       .               . -                       . ",
"          .                                 & j.K.K.U.`.`.`.`.[.%X%X%X%X%X%X%X%X%X%X%X%X%X|.`.`.`.`._.K.K.K.a.              . .       o                       . ",
"          .                       . $       V K.K.K.Q.`.`.`.`.|.%X%X%X%X%X%X%X%X%X%X%X%X%XoX`.`.`.`.`.U.K.K.K.l       .                   . o .                 ",
"            . $     .   .           .     + j.K.K.L._.`.`.`.`.XX%X%X%X%X%X%X%X%X%X%X%X%X$XOX`.`.`.`.`./.K.K.K.f.X                           .         .         "
};
