/* XPM */
static char *_5a1e249c0734fffab8bfc5851e4e0dah78WJxeOvwSxD3io[] = {
/* columns rows colors chars-per-pixel */
"80 80 221 2 ",
"   c #010102",
".  c #050609",
"X  c #04090C",
"o  c #0A0A0C",
"O  c #000C12",
"+  c #0C0D11",
"@  c #000F18",
"#  c #021215",
"$  c #0C1213",
"%  c #00131B",
"&  c #04171C",
"*  c #0E1B1B",
"=  c #131315",
"-  c #11141A",
";  c #15191E",
":  c #191A1C",
">  c #001621",
",  c #011A24",
"<  c #001D29",
"1  c #1A1D24",
"2  c #002026",
"3  c #01222C",
"4  c #182528",
"5  c #162C2B",
"6  c #002533",
"7  c #012935",
"8  c #012C3B",
"9  c #092B39",
"0  c #102D3A",
"q  c #00353D",
"w  c #0B313F",
"e  c #1B3936",
"r  c #242528",
"t  c #2D313B",
"y  c #002F40",
"u  c #013242",
"i  c #023646",
"p  c #083944",
"a  c #053A4A",
"s  c #093D4D",
"d  c #093F50",
"f  c #2A3342",
"g  c #00434C",
"h  c #0B4555",
"j  c #0A4456",
"k  c #0E4A5C",
"l  c #1B4955",
"z  c #144D5D",
"x  c #01535B",
"c  c #16505F",
"v  c #2B5955",
"b  c #315A57",
"n  c #2D635E",
"m  c #0F4E61",
"M  c #104F60",
"N  c #005760",
"B  c #005E68",
"V  c #135263",
"C  c #185667",
"Z  c #155B6C",
"A  c #155D71",
"S  c #01666E",
"D  c #006B77",
"F  c #176476",
"G  c #196374",
"H  c #1C6A7B",
"J  c #24656F",
"K  c #336A66",
"L  c #36736E",
"P  c #3B736F",
"I  c #256774",
"U  c #246B7B",
"Y  c #2C737D",
"T  c #2A797E",
"R  c #387670",
"E  c #3D7E78",
"W  c #417E79",
"Q  c #3D817C",
"!  c #48817C",
"~  c #1D6E81",
"^  c #017B85",
"/  c #007D88",
"(  c #1B7385",
")  c #237485",
"_  c #247687",
"`  c #237C8D",
"'  c #327A83",
"]  c #267F91",
"[  c #01848F",
"{  c #00909F",
"}  c #35848B",
"|  c #268293",
" . c #278798",
".. c #298A9B",
"X. c #2C9293",
"o. c #349598",
"O. c #0298A4",
"+. c #1A92A3",
"@. c #2B8EA1",
"#. c #2C93A5",
"$. c #2897A9",
"%. c #2E9BAD",
"&. c #379DA0",
"*. c #2C9DB0",
"=. c #00A6B6",
"-. c #00AEBD",
";. c #28A6B9",
":. c #30A3B5",
">. c #3FAFB2",
",. c #31A6BA",
"<. c #33AABD",
"1. c #2CB5B2",
"2. c #37B9BB",
"3. c #488581",
"4. c #428A84",
"5. c #43928A",
"6. c #489C94",
"7. c #53A39B",
"8. c #48A8A4",
"9. c #4BA6AB",
"0. c #4CA8AE",
"q. c #5EAEA7",
"w. c #53ACAD",
"e. c #52AEB1",
"r. c #4FB3B3",
"t. c #5AB4B3",
"y. c #59B6B3",
"u. c #57BCB3",
"i. c #66B5AF",
"p. c #67BBB3",
"a. c #63BDB9",
"s. c #6CBFB8",
"d. c #5BC4BA",
"f. c #5BC7BE",
"g. c #62C4BB",
"h. c #67C4BB",
"j. c #6BC2BB",
"k. c #00AEC0",
"l. c #00B6C6",
"z. c #05BCC6",
"x. c #2EAEC2",
"c. c #32AEC1",
"v. c #2FB3C7",
"b. c #32B2C6",
"n. c #31B6CA",
"m. c #31B9CD",
"M. c #42B1C0",
"N. c #02C2CD",
"B. c #00C4D8",
"V. c #3AC7DA",
"C. c #00CDE2",
"Z. c #00D2E9",
"A. c #4AC9CA",
"S. c #56C8C6",
"D. c #5FCBC1",
"F. c #56D2D0",
"G. c #6DC7C0",
"H. c #65CBC2",
"J. c #6ECAC3",
"K. c #71CEC6",
"L. c #71CFC8",
"P. c #64D0C6",
"I. c #63D5CA",
"U. c #6BD3CA",
"Y. c #63D8CD",
"T. c #69D8CF",
"R. c #73D3CC",
"E. c #7AD5CE",
"W. c #73D8CF",
"Q. c #76C9D2",
"!. c #68D7D4",
"~. c #6CDBD2",
"^. c #79D7D0",
"/. c #76DAD2",
"(. c #7BDCD5",
"). c #7AD0DB",
"_. c #7CDFD9",
"`. c #75E0D8",
"'. c #7DE1DA",
"]. c #6ADBE0",
"[. c #79DDE4",
"{. c #81C9D3",
"}. c #81DBD5",
"|. c #86DED9",
" X c #81E3DD",
".X c #8CE2DC",
"XX c #80DFEA",
"oX c #85E6E1",
"OX c #8AE5E3",
"+X c #87E8E3",
"@X c #8CEAE5",
"#X c #8AE6E8",
"$X c #95E7E2",
"%X c #93EAE7",
"&X c #9CEAE6",
"*X c #92EDEA",
"=X c #99E8EA",
"-X c #96F0EC",
";X c #9AF1EE",
":X c #9DF3F1",
">X c #A2EDE9",
",X c #A9EEEC",
"<X c #A7F1EF",
"1X c #ADF1EF",
"2X c #ADEDF5",
"3X c #A3F5F4",
"4X c #ACF5F4",
"5X c #B4F4F2",
"6X c #BCF6F5",
"7X c #B8F8F8",
"8X c #C3F8F7",
"9X c #C9F4FB",
"0X c #C6F9F8",
"qX c #CCFAFA",
"wX c #D3F6FE",
"eX c #DAF7FE",
"rX c #D4FBFC",
"tX c #DCFCFE",
"yX c #E2FEFF",
"uX c #ECFAFF",
"iX c #F6FCFF",
/* pixels */
"          - .                 X       o .                     .             .               . o                                                               . ",
"                                      . .             .   o o                               .                               .                               . + ",
"  . .                       .                                                 .     o .                       .             = o                                 ",
"                          . .                           . o         .                                         . .       .       .         .               .   . ",
"= =                                                     . .               . -           .               .             . o         .                       .     ",
": =           .                     .                                     . +                           .               .               . $ .           .       ",
"              . .                   .                                                                 .                                 . o .                   ",
"                                                                                        .         . .                               .                           ",
"                  .       . X o                           .                                       o o                         .                         .       ",
"        o .   . + 1                               . . .                       .             .                             o .                                   ",
"                o :                                 . . .             .                   . $ o . .     .                         .                             ",
"                .                 . o     .         X o                     .         X             .                               . .                         ",
"              . o         .       - t                     .       o                     . o     . o . .                         o .           . .     . o       ",
". .                                 . .                           .         .             o . .                     o :         o .     .       o     X 1       ",
"                .   .               . o                   o .                                 +                     + 4                 .             o t .     ",
"$ +                         .                             o           .             o o                                                                         ",
"1 :                       . t o                                       o             o o               .   .                                         .           ",
"- +                         1 o           . .                                                                                                                   ",
"  .                   .                   . .                           # & & # X           . . .   : :       .                   .                             ",
"                                    . . .                   . .   # a S B N x g q 2 X     . o       + +                                                         ",
"                                                                7 ^ O./ [ [ ^ D N g 7 %       o                                                       .         ",
"        .         . .                                         q [ -.O.=.-.k.=.O.^ B g 3 %     . .     .                                   . .                   ",
"          .     .       .                     .             2 ^ z.-.l.B.C.C.B.l.O.^ N q 3 O   . .             o                           X +           .       ",
"          o . . .     . o                   . .           X x O.N.l.C.Z.Z.Z.C.B.-.{ D g 7 , X       . .   .   o     .                                           ",
"            .                   .                   X X O > 7 q u u u u 8 8 8 8 8 8 8 7 6 < % O X X X     .   .     . .                                         ",
"                        .       .     .     X O @ % > < 3 6 7 8 8 q u u u u u u u u y 8 8 7 6 3 < > % @ O X     . +               .         .           .       ",
"                            .         X X # , 3 6 7 8 u u u u u u u u u u a a u u u u u u u u u u y 8 7 6 < % X X 4 o .           .                           . ",
"                o                 X # < 7 8 7 8 i s j k V C Z G G F H Z C U A V F F G Z Z V k j j a u 8 7 7 8 8 3 % O X                             .           ",
"          .               o   X , 6 7 8 i s M Z F F V ` ) z | @.#.#.#.z H ).2.w  .#.#.@... .z H ` C V Z m j u 8 7 7 7 < O             . o   .   .               ",
".       . .   . .         . # 7 8 u s k C H _ | ..V H Q.M.c %.b.n.m.m.m.;.%.*.v.n.n.n.b.c.,.V *.{.+.s | ` H G k d i 8 7 7 >           o r o   + +       o       ",
"                          O 7 u s k V F `  .@.%.:.,.,.<.n.v.*.| ) Y ' ' ' } } } ' ' Y ) ` $.x.b.<.:.:.%.#...] ) Z m j i 7 7 %   .       .     o o       .       ",
"              .           > 8 a k V z U U ) %.:.c.b.x.( J Y o.>.S.!.[.#X%X=X=X=X#X[.!.S.r.o.T J H :.b.<.:.%.` I U V k j a 8 6                                   ",
"                          % 8 s k 8 ( [.V.p ..,.c.$.9 Y 1.A.[.2X9XwXeXeXeXeXeXeXeXeXwXwX5XoXA.2.X.0 ` b.,.%.9 ;.XX;.9 k d u 3                             o . . ",
"                            3 u d k V I ) ` #.*.,.z l 1.A.].9XwXeXyXuXuXiXiXiXiXiXuXuXeXwXwX#XA.1.I w c.:.%...) U Z V k s 8 X                             .   o ",
"        . .     .             & 7 a j V G ) | ..#. .l X.2.F.OX6XwXeXeXyXuXuXuXuXyXeXeXwX8X=XF.2.o.l | *.#...| ~ A V j a 3 X                       o o           ",
"        . .                     X % 6 u s k Z H ) `  .) ' 8.Y.T.3X8XeXwXwXwXwXwXwX9X7X(.Y.I.&.' _ @...| _ H Z m j p 3 X                           . o   +       ",
"                                      X # 3 8 i s k Z G H S.Y.'.3X0XyXyXyXyXyXyXyXrX3X'.Y.Y.&._ ~ H Z M j s 9 , # +           .           .             X       ",
"                                            . X # > 3 8 J Y.Y.*X3XqXyXyXyXyXyXyXyXtX3X-XY.Y.d.j p 9 3 % X         o                 .                   . .     ",
"-     .                                           .     7.Y.~.3X3XrXyXyXyXyXyXyXyXtX4X3X/.Y.Y.v                                     o                           ",
"X                                 .                   e I.Y.+X3X3XtXyXyXyXyXyXyXyXyX7X3X*XY.Y.u.$ . . X         .               . . .             + X .         ",
".         . .     .       .       .   .         .     8.Y.Y.;X3X4XyXyXyXyXyXyXyXyXyX6X3X3X~.Y.I.v   .                                             o             ",
".         . o                     o     . .         e I.Y.`.3X3X7XyXyXyXyXyXyXyXyXyX0X3X3X+XY.Y.u.                                                o .           ",
"  .                                                 6.Y.Y.*X3X3X0XtXtXtXtXtXtXtXtXtXrX3X3X:XT.Y.Y.n                       .         .                           ",
". + .                                             e I.Y.~.:X:X:XrXtXtXtXtXtXtXtXtXtXtX3X:X:X XY.Y.u.$   .     . .         .       . .         . .       .       ",
"    . .                       .                   6.Y.Y.oX:X:X3XrXtXtXtXtXtXtXtXtXtXtX4X:X:X*XY.Y.Y.v           .                                       .       ",
"    . .   .     . .                             5 I.Y.Y.*X:X:X3XtXtXtXtXtXtXtXtXtXtXtX5X:X:X:X`.Y.Y.d.$         .                     .                         ",
"          o     o =                       4 $   6.Y.Y.`.:X:X:X4XtXtXtXtXtXtXtXtXtXtXtX6X:X:X:X*XY.Y.Y.K         .                   . . .                       ",
"  o .           . .         + .           4 - e I.Y.Y.@X;X;X;X5XrXrXrXrXrXrXrXrXrXrXrX8X;X;X;X;X/.Y.Y.u.$                                       .             . ",
". .           .     .     + o .           . . 5.Y.Y.~.*X;X;X-X6XwXrXrXrXwXwXwXwXwXwXwX0X-X;X;X;XoXY.Y.Y.n       .                                               ",
".               . +       + . .             5 I.Y.Y.'.*X-X-X*X0XrXrXrXrXrXrXrXrXrXrXrXqX;X-X-X*X*X~.Y.Y.d.$                                 . .           .     ",
"      o : .     . +       .           .     6.Y.Y.Y.@X*X-X-X-XqXqXqXqXqXqXqXqXqXqXqXqXrX;X-X-X-X*X XY.Y.Y.K         .                 .     .             .     ",
"        +       .               +     .   5 P.Y.Y./.*X*X*X*X;XqXqXqXqXqXqXqXqXqXqXqXqXqX4X*X*X*X*X@XY.I.Y.d.+               .                         .         ",
"        .     X -   . o .     o f +   . o 4.I.Y.Y.oX*X*X*X*X<X0X0X0X0X0X0X0X0X0X0X0X0X0X5X*X*X*X*X*X(.Y.Y.I.L               .                                   ",
"  .                 X r $               5 I.Y.Y.T.@X*X*X*X*X5X0X0X0X0X0X0X0X0X0X0X0X0X0X6X*X*X*X*X%X+XY.Y.I.d.*       . .   .                                 o ",
"                            .           4.Y.Y.Y.`.@X@X@X@X@X5X8X8X8X8X8X8X8X8X8X8X8X8X8X6X*X@X@X@X@X@X/.Y.Y.Y.L                                               o ",
"  o                                   4 D.I.I.I.+X@X@X@X@X@X5X6X8X8X6X6X6X6X8X8X8X8X6X6X6X%X@X@X@X@X@X XI.I.I.f.$                         .                   . ",
"  + .                                 4.I.I.I.~.+X+X+X+X+X@X5X6X6X6X6X6X6X6X6X6X6X6X6X6X6X%X+X+X+X+X+X+XT.I.I.I.L       .                 .                 . . ",
"  . .               o .   .         5 P.I.I.I.'.+XoX+X+XoX%X5X5X5X5X5X5X5X5X5X5X5X5X5X5X5X&XoX+X+X+X+XoX'.I.I.I.d.* o                                       .   ",
"            .                       Q I.I.I.Y.oXoXoXoXoXoX%X5X5X5X5X5X5X5X5X5X5X5X5X5X5X5X&XoXoXoXoXoXoXoXU.Y.I.I.L X . .       .                               ",
"                  .           . : ; D.I.I.I.(.oXoXoXoXoX X&X1X1X1X1X1X1X1X1X1X1X1X1X1X1X1X>X XoXoXoXoXoXoX/.Y.I.I.D.*           . o                             ",
"                  .   o $ .     . 4.I.I.I.I.'. X X X X X X>X,X,X,X,X,X,X,X,X,X,X,X,X,X,X,X>X X X X X X X X'.I.I.I.I.R .                       .       .         ",
"                                4 f.I.I.I.T. X X X X X X X>X>X>X>X>X>X>X>X>X>X>X>X>X>X>X>X>X X X X X X X X X~.I.I.I.D.*             .             .         . o ",
"                    .           R I.I.I.I.(.'.'.'.'.'.'..X>X>X>X>X>X>X>X>X>X>X>X>X>X>X>X>X>X.X'.'.'.'.'.'.'._.I.I.I.I.Q     .       .                           ",
"    . o                       * H.P.P.P.I._._._._._._._..X&X&X&X&X&X&X&X&X&X&X&X&X&X&X&X&X&X.X_._._._._._._._.U.P.P.P.f.*                             .         ",
"                              E P.P.P.P.W._._._._._._._..X$X$X$X$X$X$X$X$X$X$X$X$X$X$X$X$X$X.X_._._._._._._._./.P.P.P.P.R . .                       . .         ",
"                            * d.P.P.P.P./././././._._./..X$X$X$X$X$X$X$X$X$X$X$X$X$X$X$X$X$X.X/./._._._./._./._.U.P.P.P.H.*             .                       ",
"                  . r :     L P.P.P.P.U././.(.(././././..X.X.X.X.X.X.X.X.X.X.X.X.X.X.X.X.X.X.X/././././././././.W.P.P.P.P.E                           .       . ",
"r :               . : o   * g.P.P.P.P.W././././././././..X.X.X.X.X.X.X.X.X.X.X.X.X.X.X.X.X.X.X(./.^./././././././.P.P.P.P.g.*                         .       . ",
"$ o                       K H.H.H.H.H.W.W././././././.^.|.|.|.|.|.|.|.|.|.|.|.|.|.|.|.|.|.|.|.^.W././././././././.U.H.H.H.H.E .   o                             ",
"                      . $ u.H.H.H.H.U.W.W.W.W.W.W.W.W.^.}.}.}.}.}.}.}.}.}.}.}.}.}.}.}.}.}.}.}.^.W.W.W.W.W.W.W.W.W.W.H.H.H.H.H.4                                 ",
"                        P H.H.H.H.H.R.R.R.R.R.R.R.R.R.^.^.^.^.^.^.^.^.^.^.^.^.^.^.^.^.^.^.^.^.^.R.W.R.R.R.R.R.R.R.R.H.H.H.H.H.W       .                         ",
"      X   . . o       $ y.H.H.H.H.H.R.R.R.R.R.R.R.R.R.E.E.E.E.E.E.E.E.E.E.E.E.E.E.E.E.E.E.E.E.E.R.R.R.R.R.R.R.R.R.R.U.H.H.H.H.h.*   .             . .           ",
"o           . o o     b H.H.H.H.H.J.L.L.L.L.L.L.L.L.L.R.R.R.R.R.R.R.R.R.R.R.R.R.R.R.R.R.R.R.R.R.L.L.L.L.R.L.L.L.L.L.L.H.H.H.H.H.3.                        X     ",
"    .               $ p.h.h.h.h.h.J.J.J.J.J.J.L.J.J.L.L.L.L.L.L.L.L.L.L.L.L.K.K.L.K.K.K.K.L.L.L.L.J.J.J.J.L.J.J.J.J.J.J.h.h.h.h.g.5                   . .       ",
"                    K h.h.h.h.h.h.J.J.J.J.J.J.J.J.J.J.L.L.L.L.L.L.L.L.L.K.L.L.L.K.K.K.L.L.L.L.L.J.J.J.J.J.J.J.K.J.J.J.J.h.h.h.h.h.W .                 o : o .   ",
"                  o q.h.h.h.h.h.h.G.G.G.G.G.G.G.G.G.G.J.K.J.J.G.J.K.K.J.G.G.j.j.h.h.j.j.K.K.J.J.J.J.G.G.J.G.J.J.G.G.G.G.h.j.j.h.h.h.4 .               . + . .   ",
"                . v j.h.h.j.j.j.j.j.j.j.j.j.j.j.j.j.j.j.j.j.j.j.j.j.j.j.j.j.a.e.0.0.0.0.y.a.j.y.y.y.y.j.j.j.j.j.j.j.j.j.j.j.j.h.h.p.3.-                       . ",
"          .     $ q.p.p.p.p.p.s.j.j.j.j.j.j.j.j.j.j.j.j.j.j.s.s.j.j.j.j.a.w.0.0.0.0.0.0.0.0.e.0.0.0.0.y.j.j.j.j.j.j.j.j.j.p.p.p.p.p.p.5                       . ",
"          .     v p.p.p.p.p.p.p.p.p.j.p.s.s.p.s.s.s.s.s.p.s.p.p.s.p.p.y.9.9.9.9.9.9.9.9.9.9.9.9.9.9.9.w.p.p.p.p.p.p.p.p.s.p.p.p.p.p.p.!   . o .                 ",
"            . - 7.i.p.p.p.p.p.p.p.p.p.p.p.p.s.s.p.p.p.p.p.p.p.p.s.p.w.9.9.9.9.9.9.9.9.9.9.9.9.w.9.9.9.y.p.p.p.s.p.p.p.p.p.p.p.p.p.p.p.i.5   .         .         "
};
