/* XPM */
static char *result[] = {
/* columns rows colors chars-per-pixel */
"80 80 251 2 ",
"   c #856772",
".  c #A46E76",
"X  c #595D8D",
"o  c #5E6396",
"O  c #64659B",
"+  c #686BA6",
"@  c #6D70AB",
"#  c #7173AC",
"$  c #6C76B4",
"%  c #7777B5",
"&  c #737AB4",
"*  c #7B7CBC",
"=  c #5C76DA",
"-  c #787EC4",
";  c #757BD1",
":  c #6D7DE5",
">  c #97768E",
",  c #AA7C8F",
"<  c #8D7AAD",
"1  c #9B7DA2",
"2  c #A37DA1",
"3  c #817FC2",
"4  c #7B81BD",
"5  c #7788B9",
"6  c #7D83C4",
"7  c #7782C8",
"8  c #7B87D5",
"9  c #6B84E9",
"0  c #7B88E9",
"q  c #7B8DF8",
"w  c #7793FA",
"e  c #7C94FB",
"r  c #B38295",
"t  c #8882BB",
"y  c #9885B5",
"u  c #B08DAF",
"i  c #A689B7",
"p  c #B78DB7",
"a  c #CA8B9B",
"s  c #C88DAA",
"d  c #CA93A9",
"f  c #D492AA",
"g  c #CA8EB8",
"h  c #D48FB8",
"j  c #C992B8",
"k  c #D795B9",
"l  c #D493BC",
"z  c #8384C5",
"x  c #8485CA",
"c  c #8588C8",
"v  c #8B8BCD",
"b  c #9589C8",
"n  c #8894CB",
"m  c #9496CD",
"M  c #8486D7",
"N  c #848BD4",
"B  c #8D8DD3",
"V  c #848DDC",
"C  c #8C8DDB",
"Z  c #938DD3",
"A  c #9A8CD5",
"S  c #918EDC",
"D  c #8792D8",
"F  c #8C92DA",
"G  c #9392D4",
"H  c #9B93D4",
"J  c #999CD4",
"K  c #9292DC",
"L  c #9B94DD",
"P  c #9C9ADB",
"I  c #A98DC7",
"U  c #B88ECD",
"Y  c #A991CA",
"T  c #B794C9",
"R  c #A48ED6",
"E  c #A699D7",
"W  c #A494DC",
"Q  c #AC94DC",
"!  c #B697D8",
"~  c #9BA6D6",
"^  c #A3A3DA",
"/  c #8789E4",
"(  c #858CEE",
")  c #8B8CEC",
"_  c #938EE5",
"`  c #998EE5",
"'  c #948EEB",
"]  c #9B8EEC",
"[  c #8C96E5",
"{  c #8D93ED",
"}  c #9492E3",
"|  c #9C91E4",
" . c #9C9CE4",
".. c #9493EB",
"X. c #9A92EC",
"o. c #949AEA",
"O. c #9B9BEB",
"+. c #858BF2",
"@. c #8B8EF3",
"#. c #858EFA",
"$. c #8B8DFA",
"%. c #938EF4",
"&. c #9A8FF5",
"*. c #938FFA",
"=. c #8495F3",
"-. c #8C92F5",
";. c #849CF7",
":. c #8C9AF5",
">. c #8494FB",
",. c #8C94FA",
"<. c #849AFC",
"1. c #8B9BFD",
"2. c #9493F4",
"3. c #9B93F5",
"4. c #949AF4",
"5. c #9C9AF5",
"6. c #9494F9",
"7. c #9C95F9",
"8. c #949BFC",
"9. c #9C9CFB",
"0. c #A28EEA",
"q. c #A997E6",
"w. c #A39DE3",
"e. c #A394EC",
"r. c #A39CEC",
"t. c #AC9CEB",
"y. c #BA98E7",
"u. c #B39CED",
"i. c #A68FF0",
"p. c #A294F3",
"a. c #AA94F2",
"s. c #A49BF4",
"d. c #AB9DF4",
"f. c #A396F9",
"g. c #A997FA",
"h. c #A39CFB",
"j. c #AC9DFB",
"k. c #B396F4",
"l. c #B59BF4",
"z. c #BA9DF6",
"x. c #B196F9",
"c. c #B39DFB",
"v. c #B99EFA",
"b. c #9CA4E6",
"n. c #9FB0EC",
"m. c #87A1FC",
"M. c #8CA1FD",
"N. c #95A1F4",
"B. c #9BA3F3",
"V. c #93A2FC",
"C. c #9CA3FD",
"Z. c #99A9F8",
"A. c #9CAAFE",
"S. c #A6A6EB",
"D. c #A4A1EC",
"F. c #B8A3EA",
"G. c #A7B9EA",
"H. c #A4A3F3",
"J. c #ACA2F4",
"K. c #A6ABF5",
"L. c #A4A2FD",
"P. c #ACA3FD",
"I. c #A2AAFC",
"U. c #ADA9FD",
"Y. c #B3A2F4",
"T. c #BCA3F5",
"R. c #B7ABF6",
"E. c #B4A4FD",
"W. c #BAA4FC",
"Q. c #B4AAFD",
"!. c #BBABFE",
"~. c #AAB4FA",
"^. c #B9B3F7",
"/. c #B6B3FE",
"(. c #BDB2FE",
"). c #BCBAFE",
"_. c #C98EC9",
"`. c #D38FCC",
"'. c #C697C7",
"]. c #CB93CC",
"[. c #CD9ACD",
"{. c #D493C3",
"}. c #DA94C3",
"|. c #D395CC",
" X c #DA94CB",
".X c #D89ACC",
"XX c #C494D4",
"oX c #CD94D3",
"OX c #CD94DC",
"+X c #C798DA",
"@X c #D394D3",
"#X c #DC97D5",
"$X c #D29AD4",
"%X c #D394DC",
"&X c #DB96DD",
"*X c #D39ADB",
"=X c #E298CC",
"-X c #E699D8",
";X c #D8A7DE",
":X c #CB94E3",
">X c #C598E5",
",X c #CB9AE3",
"<X c #C495EC",
"1X c #CC96EA",
"2X c #CA96EC",
"3X c #C29AEE",
"4X c #CA9AED",
"5X c #D395E4",
"6X c #D49AE6",
"7X c #DC9AE4",
"8X c #C798F2",
"9X c #C49DF4",
"0X c #CA9BF2",
"qX c #E499E4",
"wX c #EA9BE7",
"eX c #F29FE4",
"rX c #C5ACED",
"tX c #D9A2E3",
"yX c #C4A2F6",
"uX c #CBA2F4",
"iX c #C5ABF6",
"pX c #C2A4FB",
"aX c #CAA5FB",
"sX c #C2ADFD",
"dX c #C9ABFC",
"fX c #D1A5F4",
"gX c #C4B7F7",
"hX c #C4B3FE",
"jX c #CAB5FE",
"kX c #C5BAFD",
"lX c #CCBAFD",
"zX c #D3B8FD",
"xX c #D2BDFD",
"cX c #E9A1EB",
"vX c #F2A4ED",
"bX c #B9CCED",
"nX c #B7C8F5",
"mX c #CCC3FE",
"MX c #C8C4FE",
"NX c #D1C6FB",
"BX c #D4C2FD",
"VX c #DAC5FD",
"CX c #DBCBFD",
"ZX c #C5D9F5",
"AX c #D7D5FE",
"SX c #E2CDFE",
"DX c #E4D1FD",
"FX c #E3DAFE",
"GX c #CEE1F7",
"HX c #D6E8F8",
"JX c #E4E9FD",
/* pixels */
"@XOX5X8X8X8X8X0X4X0X0XzXSXjX!.sXsXsXsX!.W.W.hX!.sXBXlX!.!.sXlXkX!.W.!.Q.Q.).).Q.Q.MX(.J.L.U.).FXMX/.L.9.5.( 0 3 3 < y.yXyX9X9Xz.9X9XuXpX9XpXzXVXSXSXCXCXBXBXlXhX",
"%X2X8X<X8X<X<X<X2X0X0XxXSXzXhXhXsXkXsXW.W.sXhX!.hXlXhX(.sXlXBXCXVXlX!.W.Q.)./.Q.U./.U.5.h.L.U./.Q.Q.4.-.>.: : ; < Q yX9XyXyXW.pXpXpXjXjXsXsXxXVXSXCXBXBXCXCXlXW.",
":X8X<X<X<X<X<X<X8X<XaXDXSXBXxXzXjXzXjX!.!.sXhX!.hX!.Q.sXkXhXlXxXVXBXkX!.Q.U.Q.Q.U.P.P.2.h.L.P.U.U.P...+.0 : ; b k.v.z.v.pX9XyXpXW.pXjXhXsX!.sXjXBXBXlXlX(.!.!.c.",
"<X<X:X<X<Xy.8X0X8X8XzXSXCXCXBXlXxXxXjX!.!.!.!.E.!.Q.Q.!.lXkXjXxXlXjXsXjX(.P.U.U.P.P.L.5.L.L.P.L.L.h.6.q 0 M M 0.9Xx.v.v.v.v.yXpXpXpXsXhXhXW.!.hXxXlXBXCXCXsXc.x.",
"9X8X2X2X8X9XaXaXaXaXBXCXBXlXzXlXjXlXjXsXW.!.!.W.!.hX!.hXhXjXlXjXzXjXjXsXhXE.E.Q.U.E.U.C.L.L.P.h.L.h.+.q ( 3 x q.k.z.c.W.v.v.pXpXpXpXsXjXsX!.sXsXlXlXjXlXxXzXpXv.",
"aXaX0XaXaXpXdXaXaXdXmXCXBXjXVXlX!.jXhXsX!.sXsX!.hXhXjXlXkX!.sXjXjXjXzXhXsXE.U.U.L.U.U.9.L.P.P.U.P.h.%.+.+.' q.t.l.k.l.W.W.v.W.pXsXpXsXdXsXhXhXjXlXxXsXsXlXlX!.W.",
"pXpXpXpXpXdXaXaXaXdXlXCXBXkXCXBXhXhXlXjXsX!.hXkXkXjXjXjX!.!.E.hXhXjXkXsX!.E.P.P.P./.Q.9.h.L.L.h.L.h.X.@.*.a.u.k.l.k.z.T.E.W.v.iXzXdXpXsXhXhXsXsXlXlXjXlXlX!.!.!.",
"pXsXpXpXpXaXsXpXpXpXjXCXBX/.BXBXxXkXlXjXjX!.kXlXjXhXhXhX!.W.W.E.!.sXsXhX!.E.j.j.E.).P.9.9.h.h.h.h.7.X.) X.l.l.l.z.l.l.v.pXT.z.pXxXzXjXjXhXsXE.!.!.W.hXjXkXsX!.E.",
"pXsXsXpXW.9XpXpXpXW.jXCXlXE.!.zXxX(.hXkXjXhXlXlXjXsXsXsXsXE.W.sXE.W.!.!.!.E.J.h.P.U.7.>.6.h.h.h.h.5.] L q.z.z.l.l.l.z.z.W.z.k.z.zXzXzXjX!.W.W.sX!.W.!.sXjXhX!.c.",
"W.W.sXv.v.v.W.W.pXsXjXjXkXE.v.sXhX!.E.!.sXsXjXkXjX!.E.kXlX!.W.dXW.E.E.E.E.P.E.h.h.j.,.q ,.9.7.9.9.2.] W y.z.z.z.v.T.v.c.k.x.l.z.dXlXBXkX!.W.hXsX!.sXhXsXsXhXW.W.",
"sXv.v.v.v.c.c.T.W.hXsXW.W.x.v.v.W.!.E.W.W.W.!.sX!.W.c.!.!.E.E.sXsXE.P.j.j.j.h.h.6.h.>.e ,.9.9.7.9.2.X.r.S.W.W.T.v.l.l.l.l.T.!.!.!.hXhXhXsXsX!.!.!.!.!.kXlXlX!.c.",
"c.E.W.W.W.c.c.c.E.W.!.c.c.x.c.v.W.!.E.c.E.W.W.E.E.E.P.!.W.E.L.E.dXsXj.P.E.L.5.&.&.&.6.=.,.6.6.6.L.2.2.s.(.(.!.!.W.T.c.T.W.!.!.!.!.!.sXsXjXhXhX(.!.!.hXjXlXkXsXE.",
"E.W.v.gXjXc.x.c.c.P.j.j.x.x.c.c.E.E.c.j.j.c.E.P.j.j.j.E.E.E.L.I././.L.8.R.rXp.*.6.*.3.2.6.6.*.*.7.6.2.K.hX/.(.!.!.!.!.!.hX!.!.!.!.!.!.!.jXBXkX!.!.hXhXjXjXhXW.E.",
"c.W.c.pXgXc.x.x.E.E.c.j.j.c.j.E.c.E.Q.E.P.c.E.j.f.h.j.E.E.P.P.8.V.~.A.,._ _.Q %.&.s.3.{ 4.5.*.7.h...O.R.kX).(.(.!.(.(.(./.!.!.Q.E.!.!.E.!.kX!.E.W.hXkXhX!.W.E.j.",
"l.gXY.a.a.k.k.g.E.P.c.j.j.j.P.c.j.E.!.E.E.E.j.j.h.f.j.j.j.j.h.9.:.V.L.8.( I R &.2.U.O.%.3.3.7.f.g.O.w.J.hXhXhX(./.(.(.(.(.(.!.E.E.E.E.W.!.!.sXhX(.jXjXjXsX!.E.E.",
"s.^.l.i.a.a.0.p.E.E.E.P.j.c.P.P.P.E.!.!.E.E.P.h.f.f.h.j.j.j.h.9.8.,.5.7.+.M &.7.5.5.3.3.3.3.f.j.j.O.s.J./.hX(.(.hX(.hX(.!.!.!.Q.E.E.E.E.!.hXkXkXjXhX!.!.hXhX!.E.",
"] X.' e.e.0.] 3.P.E.P.j.j.j.j.P.E.E.!.!.!.W.P.h.3.&.3.g.j.P.h.h.9.6.6.4.8.3.6.7.6.%.3.3.p.p.g.g.g...d.Y.J.!.!.!.hX!.!.Q.!.!.!.Q.!.E.E.E.!.BXlXkXlXsXW.E.W.!.E.E.",
"] ] ' _ ' ` ` ] j.U.U.j.j.j.j.P.P.j.E.!.Q.Q.Q.P.s.%.' &.P.c.j.s.L.8.:.6.5.I.5.7.6.6.3.p.f.&.&.&.5.5.l.J.r.P.Q.E.Q.!.!.Q.Q.!.W.W.W.E.W.E.!.BXxXzXjXhX!.W.sXW.P.L.",
"] .._ _ S } _ ) h.E.E.P.j.j.P.P.j...5.Q.!.Q.!.E.E.p.X.X.d.g.h.5.h.9.6.=.:.4.6.6.6.6.Y.H.&.7.7.-.>.9.P.d.P.E.E.U.U.P.(.!.E.W.E.W.!.E.E.E.E.xXCXlXlXjX!.!.sXsXQ.L.",
"} } F B C C C } O.E./.Q.P.P.P.P.P.) +.5.!.Q.E.E.P.E.d.a.iXc.p.X.L.9.-.$.,.6.6.6.*.2.B.5.-.&.2.,.>.5.d.d.E.U.U.P.h.E.NX!.!.Q.!.E.W.E.E.W.E.hXlXjXjXjXsX!.E.sXsX~.",
"} F G Z Z x x } o.U./.Q.E.P.L.P.h.) / / H.Q.E.P.E.j.j.W.DXVXs.) 2.5.6.,.6.$.7.2.%.@.-.+.2.) -.,.#.6.h.s.U.U.P.L.h.P.E.E.Q./.!.E.E.W.E.E.!.!.hXsXjXjXsX!.E.E.E./.",
"F G B c v * - S } s.Q.E.P.P.L.L.7.) / M ) P.P.j.h.j.g.j.iXDXxX] ..9.6.2.6.6.-.$.-.$.) @.+.+.@.-.>.4.9.s.P.U.Q.Q.P.j.P.l.c.E.E.!.kXhXE.E.Q.Q.!.hXhXdXsX!.E.P.h.9.",
"G B z - 3 + @ 3 x | E.P.j.L.L.9.7.%.+./ ) h.P.j.h.h.h.g.d.gXCXh.3.8.8.6.,.%.-.2.@.2.+.-.) ) -.$.:.8.h.5.j.E.E.!.Q.E.hX(.Q.E.!.mXkX(.Q./.)./.U.W.!.!.!.!.j.j.Q.3.",
"} v 3 x 3 + O # 4 ..h.U.P.L.L.h.7.3.%.%.&.h.s.r.j.h.f.g.g.g.Q.j.5.4.9.h.9.2.2.-.-.2.( ( +.@.2.$.6.5.L.5.L.s.E./.(.jXBXkX!.!.Q.(.Q.Q.Q./.)./.U.U.E.E.c.E.P.h.^.! ",
"N G Z H n + O 5 % ..7.P.P.h.L.L.7.3.*.%.&.7.e.P h.h.7.f.g.c.j.h.s.5.L.L.L.C.6.+.+.-.) +.+.$.$.>.5.5.5.5.h.P.U./.Q.(./.(.Q.!.!.!.Q.Q.(.!.Q.Q.U.U.U.P.j.j.P.f.7.! ",
"z G R H 6 o X 5 z X.p.p.h.L.P.L.7.7.&.&.&.3.O.r.s.p.7.3.p.g.j.f.s.L.L.L.L.P.L.9.6.8.6.,.:.-.>.:.4.5.5.5.9.P.U.Q.Q.P.P.I.Q.!.!.!.E.!.lXkX/.U.P.U.P.P.U.h.h.2.&.X.",
"c G J H 8 5 + $ C 3.p.p.h.h.h.h.7.&.&.&.&.3.s.J.d.s.3.3.&.g.g.g.P.U.Q.P.P.P.U.P.h.C.C.9.9.8.,.9.9.5.6.3.5.L.U.Q.U.P.L.L.Q.!.hX/.!.!.mXmX/.E.P.Q.Q./.!.L.7.2.&.2.",
"G G J S.G.bX~ n } s.e.&.p.9.h.h.f.7.3.&.&.3.H.t.s.s.7.5.5.s.g.g.P.Q.Q.U.U.U.U.h.L.9.C.9.8.9.9.L.L.4.4.5.5.9.U.U.P.U.L.L.L.W.hX/.!.E.Q.U.s.5.9.L.P.P.9.8.6.5.&.s.",
"K H ~ ~.ZXJXZXn.5.J.p.e.5.2.5.9.7.f.p.3.s.5.J.s.J.s.s.7.h.P.j.d.Q.Q.U.U.P.L.L.L.9.9.9.8.8.C.I.L.9.:.6.4.4.9.L.L.P.U.U.U.L.P.Q.Q.W.Q.E.P.L.9.9.L.C.9.,.e >.,.6.2.",
"c N K A.nXHXbXS.r.s.p.r.J./.J.7.f.&.&.9.I.s.J.d.d.d.d.d.P.U.E.!.(.!.Q.Q.L.h.L.P.P.h.9.L.L.U.kX/.5.{ 5.8.7.C.L.L.P.P.j.h.h.9.9.h.!.(.(.Q.L.L.P.L.h.h.7.,.,.,.-.%.",
"$ 7 [ ~.Z.n.b.w.s.d.t.s.P.^.kXH.3.3.&.A.K.H.J.J.Y.Y.j.Q.Q.U.P.Q.!.(.lX/.P.U.Q.!.hXQ.E.!./.AXFX).U.h.5.6.6.6.5.h.9.h.L.L.C.9.9.9.L./.AXMXU.U.L.P.P.h.9.9.8.6.9.5.",
"$ & [ A.N.o.D b.d.d.l.3.s.s.R.B.2.&.5.B.O.J.r.d.Y.d.s.P.U.U.P.P.P.Q.lXmX!.Q.!.sX).(.E.!./.NXAX(.U.P.s.2.2.2.,.$.,.@.@.9.9.C.9.9.C.).FXAXQ.U.L.P.P.h.f.9.7.*.6.3.",
"$ - :.4.[ [ 8 o.E.d.d.H.P.h.P.5.5.5.4. .D.D.D.t.Y.J.J.E.E.U.L.h.j.j.!.gX!.!.!.!.!.!.Q.E.Q.Q.U.P.P.L.P.h.3.X.%.%.6.@.-.2.4.9.C.8.C.L.).).Q.P.L.P.h.h.h.9.7.6.7.f.",
"7 V :.4.V 8 N 5.P.P.s.H.h.L.U./.).U.9.b.D.r.D.J.!.(.(.Q.E.E.P.U.Q.E.E.E.Q.!.!.E.E.!.(.!.U.L.L.P.L.L.P.L.h.3.' 2.2.@.6.+.+.6.8.8.9.C.U.L.s.d.s.d.h.7.7.6.5.5.f.h.",
"K Z.V.1.0 0 { L.j.P.5.P.P.P.Q.MXAX).9. .E D.Y.^.gX(.hX!.!.E.E.(.lXE.Y.E.E.!./.!.E.!.lXmXQ.7.9.P.L.P.L.h.h.7.2.2.-.-.{ ( ( @.,.,.8.L.L.6.e.u.l.x.u.a.X.X.-.2.s.J.",
"Z.V.8.:.<.;.8.C.L.H.o.P.L.L.U.MXFX).L.w.E D./.kXkX(.(.(.(.!.Q.!./.!.!.!.E.kXkX!.Q.(.kXMX/.s.5.C.L.P.h.h.9.9.9.5.2.( ) +.+.$.$.>...D.H.9.l.9XyXpXW.W.c.d.d.W.Q.sX",
"C.8.,.e e M.V.C.C.N.4.C.L.L.L.^.)./.P.E ! S.(.hX/./.hX(.(.(.!.!.E.E.!.!.E.!.lX(.Q./.!.Q.U.P.L.L.9.L.h.7.9.9.6.7.s.3...+.) +.6.-.T d T y.9X9X9XpXpXpXsXpXW.sXjXhX",
"1.>.e w e 8.L.A.A.4.H.L.6.5.h.E.!.!.E.^ ^ t.R.!.(.!.!.(.(.(./.!.!.W.Q.E.E.E.sX!.Q.)./.Q.U.U.Q.Q.P.9.,.6.8.7.*.6.f.h.s.@.) -.,.{ p , u F.pXpX9X9XpXpXpXpXpXsXjXsX",
"e e e w <.9.C.L.I.O.U.P.P.P.Q.Q.Q.Q.Q.! E T.v.T.W.Q.!.(.(.(.(.(.!.!.W.E.W.E.E.E.U./.).Q.U.U.U.P.).h.>.e ,.6.3.7.7.j.x.%.@.$.@.-.I , 2 y.v.T.W.v.v.pXpXzXzXzXjXjX",
"<.<.e w 1.C.L.I.K.B.P.L.U.).NXkX!.Q.^.F.u.z.v.z.T.c.W.!.(.!.(.(.!.Q.!.W.E.E.W.E.Q.U./.U.P.Q.U.P.Q.U.7.>.>.,.7.7.7.f.p.' @.,.=.o.H 1 I l.v.c.v.W.T.v.T.jXxXxXzXxX",
"w <.<.m.V.A.A.A.B.H.Q.U.Q.Q.kXkX!.!./.F.l.l.T.l.v.c.z.c.!.hX!.!.!.!.!.W.!.E.E.E.W.!.!.!.E.E.P.j.j.j.h.7.5.2.2.2.p.&.3.5.$.#.-.Q q.Q u.z.l.v.z.W.W.T.l.z.dXjXjXkX",
"w w w m.A.A.A.I.N.P.P.Q.Q.!.hX(.E.E.W.Y.u.k.l.l.v.T.l.c.Q.hX!.E.E.E.E.E.W.E.E.!.hXjXhXhXsX!.E.P.j.h.2.2.&.7.3.X.p.&.7.6.>.>.{ W q.q.u.l.l.k.l.W.W.W.z.k.v.!.sX!.",
">.w w m.V.A.A.A.H.!.U.).nX/.Q.Q.Q.Q.!.T.u.t.l.z.x.z.z.k.W.!.!.!.W.E.E.E.E.E.!.lXCXlXhXsXjXsX!.E.E.L.2.6.2.s.5.-.,.-.-.,.>.<.:.W e.a.u.l.k.l.k.T.v.W.l.z.W.!.!.!.",
"e e e M.A.A.V.Z.Y.hX!.Q././.Q.!.hX(.Q.Y.k.k.u.l.l.z.v.k.l.(.!.!.!.!.Q.E.E.!.lXBXBXzXjXzXjXhX!.E.j.P.s.e.+.+.#.e q q q +.+.<.;.L q.t.u.u.t.l.l.l.v.l.x.T.(.!.!.W.",
"e <.m.M.V.A.m.Z.(.sXhXE.E.E.!.kXkXlXQ.l.l.l.l.l.v.W.W.z.k.T.!.!.!.!.W.E.!.!.lXlXjXlXjXjXsX!.E.c.P.Q.F.U S @.>.1.e w 9 : >.,.=._ W r.k.u.k.l.c.v.c.k.l.W.!.!.!.Q.",
">.<.M.M.M.M.m.~.jXlXkXW.W.E.E.!.(.!.! y.T.c.z.z.W.W.W.z.k.v.hXsXhX!.!.hXsXsXkXkXjXjXhXsX!.E.E.j.j.C.0.A S 2.,.V.>.9 = 9 e >.:.} R q.u.Y.z.l.z.T.z.l.W.!.(.!.!.E.",
"e 1.<.1.1.1.m.~.xXBXlX!.E.E.E.W.E.u., R l.v.v.v.W.W.v.z.dXzXzXlXkXsXhXzXlX(.(.hXjX!.!.W.!.sXsXsXU.C.8.$.@.9.A.1.0 9 9 e e >.1.N.E w.w.u.T.z.l.z.l.W.!./.(.!.!.Q.",
"<.M.M.<.m.1.m.~.lXBXxXW.E.E.E.E.!.T . i z.v.v.W.v.v.T.dXxXzXzXlXjXhXsXkXlX!.E.!.lX!.!.E.W.sXsXsX/.~.L.7.5.8.6.V.:.;.<.e <.:.V.N.Q ! E y.z.v.W.W.!.W.!.hX(.!.(.!.",
"Z.1.1.1.;.M.K.^.kXxXjXE.E.W.W.Q.(.j r p R.yXpXz.pXpXpXpXjXdXdXzXsX!.!.sXhX!.!.hXjXkXsXsXW.E.P.L.V.;.-.6.8.,.$.L.~.V.e e <.>.V.N.B H E ^ T.W.(.!./.!.(.(.(.(.!.!.",
"C.V.1.<.m.B.R.kXkXkX!.E.Q.W.!.W.! d f [.yXyX9X9XyXpXpXsXpXW.sXjXsXW.!.sX!.!.!.hXkXhXhXhXsXE.U.L.C.7.6.>.,.#.#.9.L.V.w w e 1.C.[ D m E ^ Q.hXhX/.!.(.(.(.(.Q.Q.W.",
"V.V.M.1.B.R.!.!.!.!.W.E.E.E.E.Y.p a d +X9X9XT.pXpXW.W.pXpXdXsXkXhXW.!.hX!.!.!.jXjXsXW.!.!.!.E.j.h.7.3.$.$.$.$.$.8.8.>.e 1.C.8.8 7 v E D.R.).hX(.(.hXhX(.!.!.Q.E.",
"1.M.N.H.!.sXQ.Q.hXhX!.W.E.E.E.p r d {.rX3X3X9Xz.pXpXpXsXsXjXsXsXhXW.W.!.!.sX!.kXlXhX!.E.P.E.E.c.j.P.j.7.@.+.$.@.9.V.e <.1.Z.[ 7 6 m J r.J.gXkX(.(.(.sX/.Q.!.hXQ.",
"M.V./.sX!.!.hXhXBXxX!.W.Q.!.y.a a k $X4X3X3X9X3X9X9XjXjXhXhX!.hXsXsX!.!.W.sXhXhXlXjXhXE.j.j.j.j.j.j.j.h.X.) ' 2.8.1.=.=.6.N.8 5 4 m P w.r.J./.hXhX!.!.E.P.Q.mX!.",
"I.Q.!.sX!.!.!.!.sXjXhX!.!.R.T f f .XtX,X4X9XyXz.9XpXdXjXhXsXW.sXsXlXlXjX!.sX!.hXlXhX!.c.j.f.h.h.p.s.d.T.gXgXQ.g.s.-.8 8 4.{ 7 & & z D.D.D.r.Y.Y.Q.Q.U.E.P.L.E.P.",
"hXhXsXsX!.!.sXhX!.hXhX!.gX^.'.}.}.$X*X$X+X4X9XuXuXuXaXsX!.sXW.sXjXzXzXkXjXjXhXjXsXW.E.c.j.h.7.3.%.] t.xXVXVXgXj.j.X.D [ 4.N.7 $ # c w.H.H.t.J.J.s.J.E.P.L.h.j.j.",
"lXkXsX!.W.!.sX!.W.sXjXkXhXF.'.=X#X*X@X|.+X,X2XfXfXaX0XyXsXjXjXjXxXlXhXsXjXlXhXsX!.E.c.P.P.j.f.3.3.p.d.W.c.g.j.j.g.p.K [ N.A.V 7 6 B r.J.J.d.Y.l.d.P.U.U.P.U.E.U.",
"kXlXjXsXsX!.W.W.!.hXzXzXrXY '.$X#X#X X|.|.>X>X4XuXuXuX0X9XSXVXVXBXlXlXjXkXkX!.!.E.c.E.E.P.j.P.P.P.P.j.g.g.g.g.g.g.g.O.n.~.~. .G G K r.J.J.d.d.Y.d.P.U.U.U.!./.!.",
"jXhXjXlXjX!.!.sXhXhXjXzXT r [.$X5X7X=Xl l |.@X,XfX0X4X0X0XdXDXCXBXlXCXCXxXzX!.!.E.E.E.j.E.E.E.Q.E.E.j.h.f.f.&.p.3.s.G.bXHXnXS.G F c L H.J.d.s.d.s.s.P.U.E.!.!.Q.",
"BXsXhXzXlXjXhXsXhXhXsXrX> 2 $X&X5XwX-X}.l l }.%X6X4X4X2X0X9XxXDXCXlXkXkXjXpXW.W.c.E.!.!.!.!.E.Q.E.j.j.h.h.7.&.&.s.s.b.bXGXG.b.H G & c S.J.s.d.s.h.7.s.P.h.P.Q.Q.",
"CXVXlXjXjXsXsXhXsXdXW.!   u *X7XwXeXeX}.}.}. X5X6X1X0X2X0X<X9XzXCXCXBX!.E.v.v.c.c.E.Q.!.!.!.!.!.Q.E.P.h.5.%./ ` p.d.K n n n G J G z x  .D.d.H.s.7.h.9.5.h.P.U./.",
"kXlXlXBXjXsX!.!.hXdXz.i   u *X%XwXwX-Xl {. X@X5X6X1X0X2Xy.8X0XaXlXBXCXBX!.x.c.c.c.P.j.E.E.h.s.X...s.h.3.@.+.3 / p.p.C & X + c m v S F G ^ D.J.s.9.L.L.5.5.L.U.Q.",
"VXxXBXVXjX!.W.sXjXsXF.2 > '.[.%X7XqX-X{._.l |.%X1X2X2X8X8X0XaXaXdXsXlXjXW.v.x.j.j.E.P.j.s.{ ( V / ) 7.7.*.@.$.%.p.3.C * O O 3 c * B F m J  .r.s.5.5.5.5.3.5.9.P.",
"CXSXDXCXVXdXsXsXhXsXT.I p [.oXOX5X%XoXj s g {.`.%X8X8X8Xy.0XaXaXpXpXsXhX!.c.x.j.c.P.j.P.U.h.) ) ) @.*.&.&.$.6.H.f.f._ 3 + + % z 6 G K G m J P B.L.5.5.5.5.2.6.5.",
"lXzXSXVXxXjXsXsXjXjXpXW.,X[.XXOX*X,XOX{.h f h _.%X8X<X<X<XaXaXpXpXpXpX!.W.j.j.c.j.j.j.j.P.P.7.&.%.&.*.&.&.3.5.h.P.P.X.x * % % v B G } _ m J J b.D.9.9.5.4.5.2.8.",
"0X9X8X0X9XyXyXyXdXpXyXpX+X'.[.+X[.;X*X{.{.p h l %X8X2X<X2XaXpXpXaXW.v.c.E.E.P.E.j.j.j.j.P.L.h.9.7.7.&.&.&.7.I.L.P.E.L.K K N x B Z F ` ..P J ~ ^ b.O.5.8.4.6.8.7.",
"0X8X8X0X0X0X0XuXuXuX9X9X3XT '.[.[.;X&X|.`.W I g %X2X2X8X8XaXpXpXv.W.c.c.j.E.E.P.P.j.j.U.P.L.L.9.h.h.7.7.p.7.Z.H.j.P.Q.U.} _ C S C _ ` ] X.P ~ ^ P O.9.9.6.5.5.4.",
"9X<X8X0X4X4X0XuXuXiXz.9X9X+X'.[.|.@X-X@X].| _ Y _.OX8X9XaXaXpXW.v.c.c.g.x.g.E.E.E.E.Q.Q.U.j.P.h.L.j.9.7.p.&.7.B.h.Q./.!.H...} } ` ` ' X.p.t.w.J P O.5.8.9.L.9.6.",
"y.<X2X2X4X2XuXuXfXuX9X9X3X3X+X].].qXqX@X[.0.} G U @X<X9XpXsXpXsXc.T.sXT.k.i.p.s.L.U./.!.E.P.P.L.L.h.h.f.f.3.3.5.P.P.E.E.E.5.' ] ] p.p.^.Y.g.d.w.~ O.8.5.h.L.9.6.",
"<X8X2X2X6X1XfX4X2X4X>XyX9X3XrX[.|.qXcXtXOX| _ K Q _.:XyXpXsXpXW.E.pXkXY.k.0.] ' ..o.O.s.L.U.j.h.h.L.5.2.2.2.s.h.P.j.j.P.E.P.p.] a.a.g.T.!.g.c.R.S. .4.9.L.h.9.8.",
"<X9X0X2X6XfX%X@XOX>X,X,X,X,XoX[.[.cXvX:Xy.` K s.y.XXXX3XW.!.W.W.c.T.l.a.a.e.` } F / _ / S 3.p.p.e.J.Q.s.) { h.E.j.j.h.U.E.E.j.i.k.l.l.T.W.E.E.W.Y.W O.h.L.h.8.,.",
"<X8X2X:X5X%X}.}.@XOXoX|.*XtX[.j +XcXcX+XQ _ ..h.x.! U ! u.!.!.W.W.W.T.Y.0.' _ S B - x < * N 3.p.p.p.J.!.E.h.j.P.j.j.j.c.E.E.E.x.g.sXlX!.c.W.!.!.F.E d.9.L.9.8.,.",
"2X5X`.@X@X.X Xl k l [.@X*X$Xk p ! ;X6X! q.X.2.5.g.Q I ! ! T.!.E.g.W.R.J.' ' S C Z * @ + % * C s.p.r.d.J.Q.!.E.P.E.P.j.j.j.j.E.x.x.l.v.W.v.W.W.!.F.Q j.L.L.9.7.8.",
"@X`.h `.{.|.{.l l }. X#X*X.Xf u Y ! ,XE ` 3.5.H.D.L Y ! ! q.!.Q.j.d.g.] ] } F F v z @ O o @ 6 o.s.s.d.d.Y.!.Q.P.j.j.j.c.j.c.E.E.E.c.v.v.pXsXpXW.T.y.L.L.P.C.9.9.",
"g h h s s {.{.}.-X-X-X#X=X=Xk u b T XXR X.X.O.} 8 N b Y E b r.W.j.g.g.e.] ..K K 6 6 v * + 5 ~ S.H.d.d.l.s.J.!.E.E.c.c.x.c.W.!.W.v.W.v.W.W.sXsXpX9X3XJ.P.L.h.L.9.",
"I '.g f s j {.-XeXwX7X%X#X.Xj y t Y ! H X.{ _ N 8 - & t q.b x Y.E.j.d.p.X.} K G x 3 Z B 6 bXHXZXS.O.J.P.d.s.d.W.v.c.c.x.W.sXhXW.pXpXaXpXpXpXpXpX0X! q.4.9.9.h.h.",
"T OX X}.{.].#XqXwXwX&X*X[.'.I b b y b ` ' ..} N N N z c S X.< L U.j.p.] ..` S C G Z H m b.bXGXbXb.F } j.P.A.4.P.W.v.c.c.!.zXjXpXpXpXaXpXpXaXaX9X2XXXW ( =.:.8.9.",
"'.|.{. X%XOX%X7XwXqX5X#X'.u Q J.y y L p.X.X._ F F Z G H R t.I U q.d.p.3.....C 8 F c G G P K.~.Z.[ D 8 9.L.A.N.H.Q.sXW.W./.CXmXsXpXdXaXaXaX2X<X8X>X`.! o.=.=.=.:.",
"@X@X#X&X;X*X%X6X%X%XoX'.r y Q.E.G b q.p.] } } G v z Z H P yX+XT T u.5.X...} N 8 7 $ 6 Z J K n.Z.o.[ 8 =.V.C.I.I.H.jXBXjX(.VXCXjXaXaXaX9X<X<X:X8X:X#X,XO.=.m.N.=.",
";X-X7X%X$X$XOX:XoXoXT > > Q (.E.t.a.g.] ..' K F z 6 v x c E Q T '.I | %.3.s.O.N 8 x x G F 6 8 4.:.[ 0 <.V.C.L.I.B.R.BXCXmXxXCXBXaX0XaXy.<X<X<X2X:X XOX5.:.:.:.=.",
"vXwX&X X[.[.+XXXoX].>   y Q.!.E.W.E.kXe.' } Z v v z 6 @ + 5 R _._.XXQ X.5.4.J. ._  .C C 6 $ $ 7 :.8.1.e 1.8.C.L.I.n.R.xXBXjXCXVXaX8X8X<X8X8X8X2X`.h |.e.=.:.>.;."
};
