/* XPM */
static char *result[] = {
/* columns rows colors chars-per-pixel */
"80 80 136 2 ",
"   c #020202",
".  c #0B0304",
"X  c #060609",
"o  c #0A0708",
"O  c #07080B",
"+  c #0A0A0C",
"@  c #130505",
"#  c #1B0605",
"$  c #110709",
"%  c #180708",
"&  c #120A0C",
"*  c #1C090A",
"=  c #0C0D11",
"-  c #0F1014",
";  c #121315",
":  c #181616",
">  c #13151C",
",  c #15181B",
"<  c #1B1B1C",
"1  c #230706",
"2  c #260807",
"3  c #2A0807",
"4  c #220909",
"5  c #290909",
"6  c #390A07",
"7  c #330A09",
"8  c #3B0B0A",
"9  c #2D1114",
"0  c #3D111A",
"q  c #171C24",
"w  c #1D2025",
"e  c #232326",
"r  c #292B2E",
"t  c #242735",
"y  c #292D3D",
"u  c #430D0B",
"i  c #490E0B",
"p  c #520F0C",
"a  c #49110E",
"s  c #55100E",
"d  c #5D110D",
"f  c #4E1312",
"g  c #431E1F",
"h  c #541311",
"j  c #5C1511",
"k  c #63120E",
"l  c #6B130E",
"z  c #73140F",
"x  c #611411",
"c  c #6C1513",
"v  c #6C1719",
"b  c #741611",
"n  c #7B1611",
"m  c #7E1816",
"M  c #771D1B",
"N  c #702032",
"B  c #7F315F",
"V  c #7C3264",
"C  c #74346C",
"Z  c #783368",
"A  c #6C3674",
"S  c #66377C",
"D  c #683679",
"F  c #63387E",
"G  c #703570",
"H  c #80160F",
"J  c #88170F",
"K  c #841711",
"L  c #851812",
"P  c #8C1912",
"I  c #831B1A",
"U  c #8B1C1B",
"Y  c #931A13",
"T  c #9D1C14",
"R  c #941C1A",
"E  c #9C1E19",
"W  c #A41C14",
"Q  c #AB1D14",
"!  c #A51E19",
"~  c #AD1F18",
"^  c #B31F16",
"/  c #BC1F15",
"(  c #9B211C",
")  c #AC211D",
"_  c #B62017",
"`  c #BC2016",
"'  c #B4211B",
"]  c #BD221C",
"[  c #811C22",
"{  c #892723",
"}  c #9D242C",
"|  c #912536",
" . c #9E2A3E",
".. c #A62325",
"X. c #AD2221",
"o. c #AE262D",
"O. c #B52425",
"+. c #B92421",
"@. c #B1252A",
"#. c #A72734",
"$. c #AA2732",
"%. c #A62836",
"&. c #A92833",
"*. c #A2293A",
"=. c #C32116",
"-. c #C82011",
";. c #C12219",
":. c #8E2B45",
">. c #8F2D4F",
",. c #962C46",
"<. c #9A2B42",
"1. c #932D4B",
"2. c #872F57",
"3. c #8B2E53",
"4. c #862F58",
"5. c #863057",
"6. c #83305C",
"7. c #803160",
"8. c #5D3985",
"9. c #553B8D",
"0. c #593A89",
"q. c #4E3D95",
"w. c #463F9E",
"e. c #4A3E9A",
"r. c #513C92",
"t. c #613881",
"y. c #433FA1",
"u. c #3E40A6",
"i. c #3742AE",
"p. c #3A41AB",
"a. c #2F44B7",
"s. c #2746BF",
"d. c #2B45BC",
"f. c #3243B3",
"g. c #4140A4",
"h. c #2546C2",
/* pixels */
"                    O =               X     X +         2 c l 8 H / W f .     X X 1 z _ W k a M s @                                                   X         ",
"                                              X   @ 3 8 R @.o.' +.] ` ^ l @     5 Y ` ] +.' O.#.X.l 7 5 .               X o                           + X       ",
"              X X                   X           2 b ^ ] @.%.2.<.2.4.*.] / p . @ P ` +.1.V <.3.1.#.O.;.) s . O O         X +                       X X X X       ",
"            + X                     X         # m &.O.@.<.1.<.<.,.>. .o.] T 1 f ` ] *.,.1.<.,.%.*.1.] $...h         X         X     X .             X           ",
"            < -                           $ i K ' o.O.+.>.>.@.1.B *.O.$.+.=.p } ] O.$.@.1.B *.$.1.<.O.@.O.) l 7 .   +               O X                         ",
"            + X         X               . k ' ] +.=.;.o.G ,.@.r.f.S #.] ` ] P ^ =.] +.1.r.f.V O.6.B ] ;.` ] ] T 6                   + +                     X   ",
"                                        u } +.&.+.O.+.,.r.*.&.f.d.p.Z O.o.O.` =.+.O.*.0.f.d.0.o.B 0.] ] O.$.$.] [ *                                             ",
"                        X           o & N <.@.Z G <.] >.g.<.>.f.g.a.9.*.o.] =.=.+.O.5.i.u.u.g.$.D 9.] @.3.A 3.$.,.0                                             ",
"                    X   X , q       # c :.O.1.g.i.e.4.>.g.Z 3.p.C e.u.V @.;.=.=.+.%.t.a.F F e.<.r.9.&.G u.f.8.&.*.R p $ O                                   X   ",
"                          X +     @ P ` +.;.5.g.V 9.r.<.e.9.<.g.S C d.w.<.;.=.;.] V a.g.Z r.S V g.C 3.g.A A e.*.] ` ^ s .     X X                               ",
"                        X o       k X.=.=.] 1.f.C 6.g.C t.e. .A 9.2.u.s.8.o.=.;.*.i.d.t.5.g.>.V i.4.r.e.,.r.r.o.;.;.+.! 2     X           X                     ",
". +         X X           X     2 T %.+.O.@.1.d.G +.8.u.r.y.,.<.g.C S s.p.>.;.O.Z d.i.C F t.$.C i.8.i.6.&.e.9.*.O.O.@.@.b . O =           +     + ,           X ",
"  X                     X X   . d X.1.+.%.@.<.i.t.+.3.i.h.g.4.@.F 9.Z p.s.5.;.+.e.d.q.Z g.2.o.D f.d.q.+.*.p.S @.%.+.@.<.E 2                     q y             ",
"            - o     X       o u ! *.,.+.*.*.O.8.D ;.+.G a.d.A ;.1.r.>.8.h.5.;.+.w.f.7.7.0.o.o.q.h.g.3.=.$.r.V ` <.@.+.,.o.K 2                                   ",
"    X       w ;             u W &.*.$.+. .,.] 1.6.] ;.O.Z S 3.=.O.D Z 3.p.C +.o.g.r.<.t.V -.O.C F >.] =.o.V  .@.3.@.@.o.,.` J #                                 ",
"            - X           2 U ] *.%.;.] ,.V $.$.<.=.<.*. .@.O.;.$.0.w.<.Z C O.$.r.,.6.f.C ] ] O.$.%.,.@.O.<.+.,.V o.=.] ,.o.O.c                                 ",
"                        . d +.O.1.3.$.;.$.A ,.$.@. .r.q.r.8.t.S 0.a.u.3.@.o.=.+.*.+.A h.u.t.D t.0.r.e.S @.o.@.C 6.+.+.*.7.&.@.) 7                               ",
"                        1 T &.<.Z e.q.,.+.Z S @.;.G d.d.i.0.6.G r.h.f.G @.=.;.=.;. .r.h.f.t.V Z w.f.d.u.*.;.,.8.<.+.G w.8.V <.O.l                               ",
"                    X   6 ' o.%.1.G f.G @.,.y.*.+.t.h.9.8.q.A 6.1.V r.t.*.O.] ] @.6.r.8.5.3.V 8.q.A f.i.4.=.Z 8.o.*.w.g.,.B $.@.Y 1                             ",
"                      @ l +.O.$.>.,.y.t.*.*.p.C O.0.a.C y.d.a.f.y.Z 3.4.&.] =.=.+.*.V 1.t.i.f.a.f.t.t.f.V O.0.t.$.1.g.F %.C ] @.~ i   = X                       ",
"                    o a ~ @.@.+.V *.9.i.A 9.a.D @.9.y.4.y.d.f.g.a.a.G @.*.+.;.;.@.O.<.r.a.f.u.f.d.0.6.f.7.$.e.g.t.t.i.5.3.3.=.o.+.P 3             X       X     ",
"                    1 W ] +.=.=.7.1.,.y.a.d.h.t.&.0.f.>.e.h.u.Z t.a.y.3.O.] =.=.@.$.V h.g.C t.f.d.Z C i.5.<.u.d.d.f.9.$.C $.=.] +.` l @                         ",
"                    p ] O.O.@.@.3.D *.4.r.w.9.2.@.8.h.S G a.a.G ,.0.f.B ;.=.=.=.=.O.9.f.C 1.q.d.u.5.u.i.4.&.C q.w.t.*.,.0.o.%.+.O.+.W 2           X     X       ",
"                  . L ` O.O.$.o.1.t.4.@.O.&.*.V 1.S a.y.7.9.f.0.<.3.a.r.*.=.=.;.] >.f.r. .6.g.i.Z D a.u.3.V 3.&.o.]  .V 0.O.*.@.o.@.=.u                         ",
"    &   X         @ Q ` O.o.$.+.1.e.V o.=.] 4.9.2.1.e.d.t.>.0.p.4.*.w.a.Z +.=.=.o.r.d.D O.F f.V >.y.a.t.*.G 0.,.-.] 1.t.9.] $.o.@.O.=.b .     X                 ",
"  X + X o         1 _ ] &.&.<.@.4.i.D @.O.@.t.y.A o.A d.e.V >.a.0.*.t.a.w.#.=.;.3.f.y.C ,.y.e.2.A f.i.<.,.9.u.V =.@.<.w.e.O.*.*.&.$.=.L % =       X       X     ",
"        X X       c ` @.A 4.,.$.7.f.w.1.@.@.8.0.t.<. .y.a.y.G d.u.V A y.y.<.=.] C i.9.A G d.y.0.y.a.8.@.4.9.q.C ] %.Z f.g.@.<.1.C 4.=.~ 7 > .   X X       X     ",
"                2 Q =.+.,.&.@.+.4.f.f.A 1.o.t.G F D @.C f.d.f.d.y.G t.q.y.<.-.] Z i.0.S C d.a.a.a.i.*.*.9.G 9.Z o.1.q.d.w.+.@.@.*.*.] =.n o                   X ",
"                k ` =.+.1.2.&.+.3.u.d.0.V %.Z A 8.y.*.O.r.d.d.h.q.C r.9.p.>.=.+.8.i.t.r.G f.d.d.a.V +.3.u.A S 3.,.5.g.d.r.+.@. .2.*.=.=.^ 2       X X   : +     ",
"              7 E =.=.<.S S 2.+.$.w.a.t.C o.<.2.r.e. .` 1.e.a.i.8.r.q.G y.>.=.] 0.q.V a.8.9.a.f.t.o.+.V i.D &.*.1.4.g.f.D ] %.C A V &.=.` n . X         < -     ",
"              K o.O.+.C e.r.2.*.O.8.t.C ,.1.&.*.y.q.*.] 1.,.4.>.1.f.y.Z t.<.=.] Z 8.Z h.8. .4.3.3.o.] ,.a.D ] 1.<.3.A e.2.@.,.C e.w.,./ $.) h :                 ",
"            1 R O.$.+.C 9.t.D *.+.r.8.*.o.C 3.,.f.9.*.] 3.A 2.,. .a.y.Z 4.$.=.] *.S V h.8.*.,.A A %.@.*.a.9. .A 3.+.5.e.Z +.5.F t.0.,.o.@.@.l   X +             ",
"            5 W +.;.;.G y.3.<.>.$.q.y.o.O.t.3.2.f.C O.,.e.9.7.@.<.f.u.7.>.@.=.;.*.V G h.t.$.&.4.y.S &.@.e.w.3.S 4.=.V p.A $.2.*.D q.,.` +.] n     X     X X     ",
"          + j ^ ;.;.+.3.g.r.,.<.%.q.t.@.@.8.*.3.q.*.*.9.p.V *.;.,.f.f.3.*.@.=.;.*.&.A h.9.@.+.<.9.p.G @.B 0.<.Z V o.1.e.C %.<.6.y.8.*.=.+.=.T 1   X     + o     ",
"          9 ( ] ] +.;.*.8.g.t.%.] r.t.%. .r.*.<.3. .9.d.q.,.O.=.,.f.a.4.$.O.=.;.$.$.t.h.9.@.=.&.V f.f.C <.3.$.Z G ,.3.e.V O.2.r.y.5.@.] +.O.` b o               ",
"        X s ' +.&.&.;.] >.e.e.,.] 0.w.<.<.q.<.@.*.9.d.h.t.o.,.o.*.y.a.Z O.=.;.=.+.$.r.h.D +.<.$.1.y.d.f.C @.O.V S ,.4.i.2.O.V u.S *.=.+.*.$.;.T @   X           ",
"          d ` +.*. .o.] +.6.r.V =.D y.>.1.t.@.$.t.a.d.e.V $.S 7.*.t.h.t.@.=.;.=.` %.i.a.Z $.S 4.,.G f.h.i.4.;.,.S ,.G i.<.@.t.8.*.=.O.&.*.$.=.W #         X     ",
"X X ;     p ' ] *.C %.O.O.@.S A @.G y.<.>.7.O.V a.h.y.V $.,.e.y.6.7.d.q.*.=.=.=.=.3.d.e.3.D i.F &.*.8.f.d.y.,.o.C *.G i.*.*.r.3.O.O.O.1.4.$.] T @               ",
"X X ;     i ~ @.o.t.A +.+.@.3.G 1.V y.,.*.&.<.p.h.p.V &.&.<.t.i.9.2.e.i.6.;.=.;.O.t.a.S 4.p.u.7.&.&.<.t.d.d.8.o.*.@.t.y.*.3.8.$.$.O.<.0.3.O.@.Y . X             ",
"          8 Q 7.&.3.r.,.+.<. .Z A 6.y.3.] O.S d.d.9.2.C e.8.3.4.r.1.G h.Z +.=.=.%.w.p.6.C t.1.V e.0.4.2.f.d.f.4.=.] r.r.,.G 7.&.*.] V 9.$.<.,.P .               ",
"          7 W 6.4. .e.S ;.O.$.S r.>.y.0.+.1.f.h.g.S e.a.d.a.r.1.3.V 6.f.t.@.;.=.1.i.q.1.C ,.4.g.d.a.f.r.S a.s.r.&.%.g.t.1.g.>.@.+.*.e.S %.Z  .n                 ",
"          8 Q <.V %.g.y.&.;.+.t.q.,.y.i.&.C h.f.8.q.h.d.d.h.i.6.*.6.V e.i.<.=.;.C f.8.1.4.*.S d.h.d.d.f.0.q.d.p.<.5.i.G 5.i.4.=.=.V f.C 1.V @.P .     X         ",
"          a ' *.A ,.0.y.&.=.o.r.y.3.y.p.&.0.a.y.t.i.h.d.g.e.a.g.2.*.,.0.i.<.=.] V i.C $.*.D f.i.e.f.d.h.u.F a.d.2.5.i.Z D f.D =.=.Z u.5.A A ] Y .           = X ",
"    O     u ) +.t.7.7.g.>.;.,.p.y.4.y.y.*.y.h.r.S a.d.a.q.V t.f.t.*.;.S a.2.=.O.t.p.3.] 3.y.u.G D g.d.d.u.D i.h.C V i.V F d.r.+.+.A w.1.t.1.] U . X         e o ",
"      X   8 ! ;.G t.4.i.>.-.7.h.q.,.y.p.%.i.a.t.C f.h.e.f.e.,.r.i.3.-.Z a.5.] O.9.g.*.+.A f.Z 6.i.w.f.h.g.6.e.h.A 7.p.7.C f.g.&.] D r.5.9.<.] I . X         , X ",
"O X       3 ! =.3.t.2.i.V ] C h.0.o.e.y. .y.f.t.V g.h.G g.p.<.1.a.r.@.3.i.2.=.] r.y.@.3.f.q.*.Z f.t.u.d.r.2.q.h.A Z i.5.1.i.g.,.@.8.r.6.D @.` K                 ",
"          1 R =. .t.3.p.D &.A h.q.<.y.y. .9.a.9.2.r.h.C y.f.2.$.r.a.V <.g.C +.$.e.r.@.t.h.C O.0.d.G w.f.D 2.g.h.5.V i.V 7.f.g.>.<.e.F D G +./ z         > O     ",
"          o P =.O.A >.y.e. .G h.y.t.i.S *.A a.D O.D h.7.A f.9.*.C h.9.1.q.G ] o.y.t.1.i.i.,.3.u.f.1.q.p.1.*.e.f.1.*.g.e.F d.g.>.6.a.Z G >.;.^ d         t > .   ",
"            z O.O.>.>.0.w. .V d.f.a.f.6.O.3.h.9.o.C i.2.1.i.f.2.2.d.g.4.9.G ] @.y.G V h.q.,.t.a.r.*.A g.*.2.i.e.*.+.q.d.f.s.w.<.V f.7.7.$.+.) u         O X     ",
"  = X       l ` @. .A A i.B 2.p.h.d.y.,.;.*.f.y.1.C y.1.O.y.a.t.,.e.i.7.0.A +.&.y.G G h.A ,.y.h.V @.7.w. .A h.F O.@.V f.d.d.r.<.9.f.C Z $.+._ 7 X   X X         ",
"            b ;.*. .9.Z i.B @.8.h.f.Z @.O.@.t.h.r.t.q.*.+.G a.i.7.S h.t.9.G +.%.t.t.y.p.7.t.d.i.1.] 6.g.A g.d.6.] ] &.9.a.f.V @.t.g.D Z ,.O._ 8                 ",
"            n =.+.@.S D f.q.%.1.9.V O.;.@.o.1.i.d.f.S $.Z V i.d.e.G f.d.p.6.] O.S d.h.q.A p.h.t.t.*.>.e.d.d.0.%.$.] ] %.8.D o.5.f.0.t.4.$.;.` s                 ",
"            m ;.O.<.V F r.d.t.<.%.&.1.6.6.3.@.6.r.A *.*.y.8.t.d.f.t.t.a.i.V +.@.9.d.g.A 9.h.i.7.w.D &.>.0.8.<.$.6.5.5.<.o.%.2.w.d.S S 1.&.+.' s               X ",
"            v *.+.1.V A V f.a.u.9.r.p.d.h.9.3.o.<.<.@.,.u.y.1.i.d.g.G t.e.3.] O.S e.G t.d.h.t.V p.0.O.&.1.%.$.C g.d.d.g.8.q.p.d.r.V C Z @.$.} u X         X     ",
"            k | *.@.D Z 2.G p.h.h.h.d.g.q.r.C 7.t.t.7.<.g.f.V A d.d.g.V <.+.;.;.@.>.S d.h.g.6.t.a.D <.Z r.G 5.t.e.g.p.d.h.h.d.q.6.3.S 2.+.>.} 1       X X   X   ",
"            i | >.] 3.e.C ,.1.D 0.S 7.,.%.1.3.A h.f.C @.e.h.e.*.r.h.h.0.&.;.;.;.O.<.p.h.d.V 4.g.d.V *.r.d.u.C 3. . .1.C 8.0.C <.1.t.0.$.$.3.R o X           X X ",
"            8 ! ,.<.o.F w.4.] +.>.t.D 3.] =.%.9.h.h.y.1.S f.f.G 5.r.u.C +.;.;.;.+.*.0.g.S 2.0.d.a.1.G a.h.a.A +.-.o.Z t.G &.;.@.A g.6.@.1.o.P o               X ",
"            7 W +.3.>.$.0.9.,.] G f.d.y.%.;.&.e.d.d.g.3.<.p.h.i.G <.1.@.;.;.=.=.;.;.*.,.,.9.d.h.8.&.D i.d.d.G =.` Z i.h.g.<.+.V e.Z *.3. .] H .                 ",
"        X   * T =.@.D 3.1.0.Z O.t.h.h.a.D  .*.y.d.y.G >.o.A a.h.r.%.=.@.$.;.;.=.O. .+.;.2.g.h.p.1.%.4.F f.d.G O.3.e.a.d.f.6.$.t.A 1.C 5.O.` k   X     X         ",
"        X X r { =.=.@.3.3.6.C $.t.g.t.t.g.7.%.q.h.t.A t.y.C e.a.g.Z 1.r.i.3.;.+.t.g.G <.0.f.f.t.8.r.t.D g.a.C $.8.g.t.0.i.3.1.D 1.V <.+.=._ 6                 X ",
"    X       X 8 Q +.O.@.B A D V A i.g.Z t.r.1.A h.e.g.d.d.g.C r.f.g.g.a.h.t.O.*.p.h.i.g.p.f.A t.a.a.f.e.i.i.7.7.e.V t.f.u.1.G t.C 3.] O.` P .                   ",
"        X X   . n '  .*.*.A w.0.>.y.h.A ,.q.A 3.p.g.g.d.h.h.g.G t.p.h.h.d.t.O.*.i.d.h.d.g.G t.f.h.h.a.r.f.9.>.q.D 1.e.a.t.>.w.r.7.O. .%.) u             X       ",
"            X   * P o.6.3.Z u.g.>.C f.p.4.G p.C t.D A i.y.p.h.p.V G g.h.h.A @.&.i.h.d.r.6.t.d.a.g.p.g.>.y.C D g.4.A f.g.,.G a.r.6.3.1.X.k .               X   X ",
"  X         X X X 8 ' ] O.,.V 9.9.1.t.f.9.Z g.t.7.D C t.1.3.t.f.y.7.3.y.h.Z &.o.i.a.t.>.G i.i.G ,.7.r.1.8.3.u.9.C u.i.2.7.r.t.3.*.+.` Y #                     X ",
"+ ,             . @ E @.] =.;.@.2.3.*.e.f.C A y.6.D 2.G A <.&.q.h.e.1.4.u.C O.@.p.r.<.G f.a.C @.3.t.C 6.G Z f.V 0.d.A *.V <.O.] =.;.+.x .       . X X           ",
"+ -   X       X     j ` @.@.+.=.=.3.$.>.g.9.1.f.D S 2.7.f.y.,.3.a.f.S 2.e.G +.@.g.A 4.q.h.q.*.V f.y.*.A Z e.0.4.y.0.o.2.@.=.=.O.$.+.W 2         = , X           ",
"      X X           7 =.o.1.$.=.=.,.2.+.Z g.>.9.g.e.Z @.t.f.V $.8.d.g.F y.Z +.$.q.t.9.i.a.6.*.r.i.3.$.0.r.i.Z V w.,.@.Z ;.=.=.*.1.;.P #         X +             ",
"            X     X # W O.2.,.] =.O.Z @.6.i.7.6.f.f.6.O. .u.r.>.1.u.f.i.u.2.` O.t.p.p.h.8.*.V p.t.@.@.0.d.e.,.t.w.*.<.3.+.=.@.2.,.;.l .               X X       ",
"                    o k ` *.6.O.O.+.O.O.t.f.A $.V y.1.*.@.Z f.u.C 6.i.d.F @.' ` <.g.d.r.3.t.f.g.<.*.o.A q.1.*.r.f.3.+.] +.+.*.5.o.Q 7                   o       ",
"                      4 ( O.,.#.*.*.3.9.i.i.Z $.] O.o.G 2.*.r.d.e.,.1.G ,.` K ^ O.7.Z <.Z f.f.V *.V V @.O.=.*.0.f.y.A <.<.@.3.&.` k . X X                       ",
"                        7 T O.O.;.3.A D C G $.=.=.=.1.w.y.4.,.e.a.F @.+.+.=.Y ` ;.+.+.<.e.d.D 1.D u.0.O.=.=.+.,.C D D D o.+.%./ b @             X               ",
"                    X   X 8 E =.;.+.,.1.1.*.+.+.O.+.2.A e.i.D 4.e.Z $.1.*.] _ ` +.,.,. .t.8.7.0.i.F t.$.$.] +.$.<.3.1.*.=.=.` z %         =     o               ",
"                          - g P =.=.;.+.] O.$.<.,.@.o.2.,.q.i.8.A B V G 6.O.` ` #.Z D 1.B S e.i.A ,.>.] *.<.<.%.=.+.] =.=._ c & X         +                     ",
"+ .                   O + X X 3 n ^ ] @.O.O.@.*.2.3.+.*.@.,.S i.g.e.p.q.5.O.T ` o.A u.e.e.p.w.C @.*.O.%.7.<.*.@.+.$.+.;.T k .                 X                 ",
"                    X > q       @ p T ;.;.O.] =.%.C  .@.*.=.@.7.8.w.w.8.*.=.d T ] 6.q.w.e.D 1.] O.%.+.6.V ] ` ] O.;.` K 7         X + X       X                 ",
"  X >                 O +         . 7 s E =.=.=.@.3. .] @.+.=.$.V Z 6.1.O.Y 1 u ' #.3.Z V >.+.+.+.O.O.1.,.+.;.=.` b i #           O X X       o                 ",
"  X = X                                 7 Y ` ] O.@.@.] =.o.=.+.o.o.O.+.T 6   . d ' +.@.o.@.=.O.] =.+.@.@.+.=.' c #   X         O X X X                         ",
"X           + X                 + X     + 4 s R ` =.] ` =.=.=.=.=.-.=.Y 8       @ d ) =.=.=.=.=.` =.` =.=._ n u @                   + + X   X                   ",
"            X         . X   X   = X         . % 7 u p P ^ ` ` _ Y l u # o X     o & 3 s n W ` / ` ) z a 8 2 @                           X       X X             ",
"                        X o     - +       X     .   . @ 4 8 7 1 @ . o           X     . . # 3 8 7 * .   X X                                                     "
};
