/* XPM */
static char *result[] = {
/* columns rows colors chars-per-pixel */
"80 80 225 2 ",
"   c #020202",
".  c #050609",
"X  c #060808",
"o  c #040A0C",
"O  c #0A0B0C",
"+  c #09100F",
"@  c #010D13",
"#  c #0D0E11",
"$  c #011116",
"%  c #0D1114",
"&  c #01141C",
"*  c #0F171A",
"=  c #121315",
"-  c #13151A",
";  c #17191A",
":  c #191B1B",
">  c #011B25",
",  c #001C27",
"<  c #1C1E21",
"1  c #02262A",
"2  c #02232D",
"3  c #192626",
"4  c #1B312F",
"5  c #002633",
"6  c #042B35",
"7  c #012C3B",
"8  c #01333B",
"9  c #1A3433",
"0  c #1C3A38",
"q  c #222426",
"w  c #26292A",
"e  c #292C2D",
"r  c #292D35",
"t  c #253837",
"y  c #313736",
"u  c #323837",
"i  c #333939",
"p  c #033444",
"a  c #073846",
"s  c #053A4A",
"d  c #0E3F4E",
"f  c #373E40",
"g  c #0B4354",
"h  c #054956",
"j  c #0E4A5B",
"k  c #124C5B",
"l  c #01535C",
"z  c #224744",
"x  c #3B4544",
"c  c #365654",
"v  c #005A68",
"b  c #135465",
"n  c #155669",
"m  c #165B6C",
"M  c #185A69",
"N  c #076772",
"B  c #006776",
"V  c #1A6475",
"C  c #196476",
"Z  c #1D6B7C",
"A  c #366965",
"S  c #37716C",
"D  c #226C77",
"F  c #25757D",
"G  c #397B75",
"H  c #424E4E",
"J  c #43504F",
"K  c #424C52",
"L  c #445151",
"P  c #455A59",
"I  c #4A5C5A",
"U  c #4F6060",
"Y  c #4F6563",
"T  c #446A66",
"R  c #506664",
"E  c #526866",
"W  c #556F6D",
"Q  c #4F706F",
"!  c #56706E",
"~  c #5A706F",
"^  c #427A75",
"/  c #597573",
"(  c #587675",
")  c #5A7875",
"_  c #5B7D7B",
"`  c #3C837D",
"'  c #46817C",
"]  c #5D807D",
"[  c #1E6F80",
"{  c #007784",
"}  c #227484",
"|  c #237B8B",
" . c #2A7A88",
".. c #267F91",
"X. c #028A94",
"o. c #29878D",
"O. c #278597",
"+. c #348C97",
"@. c #39959A",
"#. c #0197A4",
"$. c #2B93A4",
"%. c #2B97A9",
"&. c #2D9BAD",
"*. c #3095A6",
"=. c #02B0BD",
"-. c #38AAAB",
";. c #2EA6B8",
":. c #2FA9BC",
">. c #33A6B9",
",. c #38BCBB",
"<. c #478786",
"1. c #5F8783",
"2. c #5D8885",
"3. c #558888",
"4. c #4B908F",
"5. c #4A9699",
"6. c #599797",
"7. c #559A9B",
"8. c #608683",
"9. c #618986",
"0. c #628F8B",
"q. c #63918D",
"w. c #649691",
"e. c #659B96",
"r. c #649E9A",
"t. c #689F9B",
"y. c #66A29C",
"u. c #69A29D",
"i. c #4B9DA4",
"p. c #529CA1",
"a. c #4CA1A6",
"s. c #4BA5AA",
"d. c #44ACAE",
"f. c #4CA9AD",
"g. c #54A2A3",
"h. c #5DA4A1",
"j. c #57ABA9",
"k. c #56B5AD",
"l. c #49A9B3",
"z. c #4EB6B9",
"x. c #57B5B2",
"c. c #5ABBB4",
"v. c #66A5A0",
"b. c #66AAA4",
"n. c #69AAA5",
"m. c #67AEA8",
"M. c #68AFA8",
"N. c #64B3AD",
"B. c #69B4AD",
"V. c #67B9B3",
"C. c #65BCB5",
"Z. c #6ABAB3",
"A. c #6BBFB8",
"S. c #5AC2B9",
"D. c #66C5BC",
"F. c #69C4BB",
"G. c #6BC4BC",
"H. c #00B6C7",
"J. c #00BED1",
"K. c #32ADC1",
"L. c #33B2C5",
"P. c #66BBC7",
"I. c #00C3D7",
"U. c #00CFE5",
"Y. c #5CCDC3",
"T. c #57D1D0",
"R. c #6CC7C2",
"E. c #65CCC2",
"W. c #6ECBC3",
"Q. c #72CDC5",
"!. c #70CFC8",
"~. c #64D1C6",
"^. c #63D5CA",
"/. c #6BD5CC",
"(. c #69D6CC",
"). c #64D9CE",
"_. c #74D0C7",
"`. c #73D3CC",
"'. c #7AD5CE",
"]. c #6DCFD2",
"[. c #64D8D5",
"{. c #6CDBD2",
"}. c #75DBD3",
"|. c #7BDBD5",
" X c #7DDED9",
".X c #76E0D8",
"XX c #7DE2DB",
"oX c #83DCD7",
"OX c #85DFD9",
"+X c #88DFDA",
"@X c #82E3DD",
"#X c #8CE2DC",
"$X c #91E5DF",
"%X c #87DEE3",
"&X c #87E8E3",
"*X c #8BE9E5",
"=X c #8AE3E8",
"-X c #8FECE8",
";X c #97E7E3",
":X c #97E8E6",
">X c #9CEAE6",
",X c #93EEEA",
"<X c #95F0EC",
"1X c #9AF1EE",
"2X c #9DF3F1",
"3X c #A2EDE9",
"4X c #A9EFEC",
"5X c #A3F0ED",
"6X c #AEF1EF",
"7X c #A8EBF1",
"8X c #B4EFF5",
"9X c #A3F5F3",
"0X c #ADF5F4",
"qX c #B4F3F3",
"wX c #BBF5F5",
"eX c #BAF8F8",
"rX c #C1F8F6",
"tX c #C4F5F9",
"yX c #C5F9F8",
"uX c #CCFAFA",
"iX c #D9F7FE",
"pX c #D4FBFC",
"aX c #DCFCFE",
"sX c #E2FEFF",
"dX c #ECFBFF",
/* pixels */
"                    X #               X     . O                               o             . O                                                       .         ",
"                                              .               X O       $ 1 1 6 1 & $ o                                 . O                           O X       ",
"              X .                   .                               @ 8 N B B N v h 8 > o                   . X         . O                       . . . .       ",
"            O X                     .                         O   $ l #.#.#.#.#.X.B l p , o             .           .                               .           ",
"            : #                           .                 .   X h #.=.=.I.I.I.H.#.{ l 7 , o           .           O               X O                         ",
"            O X         .                 . .                 . 8 X.=.J.I.U.U.I.J.H.#.B h 5 &         .                             O O                     .   ",
"                                                          . o @ 8 l v v B B B B B v l h 7 5 , @ o . . .                                                         ",
"                        .           . X           . o @ & > > 2 6 6 7 7 7 7 7 6 7 7 7 7 7 7 5 5 , > & @ @ .                                                     ",
"                    X   . - 3               . . @ > 5 7 7 7 7 p 8 p p s s s s s s a a p p p p p p p 5 5 2 , & o   .   . .                                   .   ",
"                          . O           o & > 5 7 7 p s g j b n n V C C [ k V [ n n C C m n b j g g s s p p 5 5 , & o .       . X                               ",
"                        X O         o $ 5 7 p s g b C Z b D +.m Z %.%.&.$.m *.P.} [ &.%.%.$.| n | } k m b j p p 7 7 5 > o .   X           .                     ",
"  O         .                     o , 7 p s j m [ ..O.+.m *.z.O.O.:.:.:.K.;.&.%.&.;.;.K.;.>.%.| l.l.C | ..} [ b g s 7 7 2 @ o %           O     O -           . ",
"  .                       X       & 7 s g b m [ ..$.&.>.L.:.&.-.&.$.+.+.5.5.7.p.i.p.5.4.O.$.%.&.%.&.K.>.&.$...[ m k g p 7 2 .                   : r .           ",
"            % O     X         .   , p d j k ..+.Z O.>.K.&.F F o.d.Y. X:X7X8XtX8X8X8X7X:X%X].z.+.} [ O.K.>.%.[  .@.n j g p 5 o                                   ",
"    .       q =                   $ p s d k +.i.[ O.>.;.l M &.T.=XeXiXsXiXdXdXdXdXdXdXsXiXtX7X[.,. .d %.K.*.} O.l.C j g p > .                                   ",
"            # X                 . . & 7 s j b V | O.*.%.M C -.T.=XrXiXiXdXdXdXdXdXdXdXiXiXiX7XT.,...b $.&.%.O.[ m b j a , o                                     ",
"                                      o & 7 a g b C } o.| } o.a.^.XX9XyXpXiXiXiXiXiXpXeX>XXX^.-.+. .| O.O.} C m j a 2 $ .     X                                 ",
"                                          o $ > 6 p g j m C D @.T..X2XyXsXaXsXaXaXaXpX0XXX).Y.@.} } Z V b g a 2 & @ .                                           ",
"                    .       .                   X o $ > 2 6 g d.).@X0XuXsXsXsXsXsXsXpXeX,X{.).@.k a 8 2 & o . .                                                 ",
"                                                      X   o z Y.{.<X0XuXsXsXsXaXsXsXaXeX2X.XT.S.9 X   X     . X                       O .                       ",
"                    . X   .     O                 X o     * 5.^..X9X0XpXsXsXsXsXsXsXsXyX9X-X{.).G O .       X X .     .                           .       .     ",
"                      X                 .                 z S.).&X9XeXaXsXsXsXsXsXsXsXuX9X2X.X).c.4       X                     .                               ",
"                                o .                     + 5.^..X2X2XeXaXsXaXsXaXaXsXsXuX9X9X@X).~.G o         o = X                                   .         ",
"                          .         .         O X       z S.).XX2X9XrXsXsXaXaXsXaXaXaXpX0X2X<X{.^.S.4         - r #                                     .       ",
"    #                     .                           % @.^.).-X2X9XyXaXaXaXaXaXaXaXaXpXwX2X2XXX).Y.` o         X .                                             ",
"  . O X O   .       .     .       X                   z S.)..X1X2X9XuXaXaXaXaXaXaXaXaXpXeX2X9X-X{.).c.9                           = ; .   # .     X       X     ",
"        . .                       X X X             % 4.).).&X2X2X0XuXaXaXaXaXaXaXaXaXpXeX1X2X1X.X).^.` X                         O O     =     . X       X     ",
"                                    X X             z c.).{.<X2X2X0XpXpXpXpXpXpXpXaXpXpXrX1X1X1X&X).).k.9                                 .                   X ",
"                                                  o ` ).)..X<X<X<X0XpXpXpXpXpXpXpXpXpXpXyX1X<X<X<X{.[.^.` X           o                           . X   ; O     ",
"                                            .     z c.).).&X<X<X1XqXpXpXpXpXpXpXpXpXpXpXyX9X<X<X<XXX).).k.0       O                                     : #     ",
"                    %                   .       o ` ^.)..X,X<X<X1XwXpXuXpXuXuXuXpXuXuXuXyX9X,X<X<X,X{.).~.` .     X     .                   X ;                 ",
"                                                0 k.).^.XX,X,X,X1XrXuXuXuXuXuXuXuXuXuXuXuX0X,X,X,X,X.X).^.k.0     X                             X O             ",
"                                              + G ).^.{.&X<X,X,X5XyXuXuXyXuXrXuXyXuXuXuXuX6X,X,X-X,X@X{.).^.` o + X         X       .             X     .       ",
"          O X                                 0 k.).^..X&X-X*X,X5XyXyXuXrXuXuXrXyXyXrXyXyXqX,X-X-X-X-X.X^.).k.9                 X                       O O     ",
"          # O                               o S ).^.).@X*X,X*X*X5XrXrXrXrXrXrXrXrXrXrXrXrXqX:X*X-X*X*X@X^.).^.G o             O .           X X X               ",
"        . # .         O                 X X 9 k.).).}.&X*X&X&X;X5XwXwXwXrXwXwXwXwXrXwXwXrXqX:X*X*X*X-X@X{.^.^.S.0             .             X X     X           ",
"          .           X                   $ S ^.^.^..X@X&X&X&X*X4XwXwXwXwXwXwXqXwXwXqXwXwXqX:X&X@X*X&X&XXX).^.^.S o             X           X             X     ",
".   =       . .                           3 k.^.^.).@X&X&X&X&X*X6XqXqXqX6XqXqXqXqX6XqXqXqXqX:X&X@X&X&X&XXX{.^.^.c.9                       O                     ",
". . =       . . .                       o S ^.^.^.}.@X&X@X&X@X*X6X6X6X6X6X6X6X6X6X6X6X6X6X6X>X&X&X@X&X@X@X.X^.^.).G $                             X             ",
"                O                       3 k.^.^.)..X@X@X@X@X@X;X4X4X4X4X4X4X4X4X6X3X6X3X6X6X>X@X@X@X@X@X@XXX).).^.c.4                                           ",
"                X   X X   X O         X A Y.^.^.(.XX@X@X@XXX@X$X3X3X3X3X3X3X3X3X3X3X3X3X3X3X>X@XXX@X@X@X@XXX}.^.^.^.G X         X X       X .                   ",
"              O       X   X X         3 k.^.^.^.}.XXXXXXXXXX@X>X3X>X3X3X3X3X3X3X3X3X3X3X3X3X>X#XXXXXXXXXXXXX}.(.^.^.S.4                   X                     ",
"              .                     % S ~.~.^.~.|.XXXX|.|.XX@X$X>X3X>X>X3X>X>X3X>X3X$X3X>X>X;X#XXX|.XX|.XXXX.X/.^.~.~.` X                         X         #   ",
"    o     .       .       X O     O 3 j.~.^.~./.|.XX|.XXXX|.|.$X$X$X>X$X;X;X$X$X$X;X;X$X;X;X;X#X|.XX|.XX|.|.|.}.~.^.~.c.4                                   q O ",
"    .             - .     o O       S D.~.~.~.}..X|..X|..X|.oX#X$X$X$X$X$X$X$X$X$X$X$X$X$X$X$XOX|.}..X|.|.|..X}./.~.~.E.` o       .             . .         ; X ",
"O .               =     o O       3 s.~.~.~./.}.|.|.}.|.|.|.|.#X#X$X#X#X#X#X#X$X#X$X#X#X#X#X$XOX|.|.|.|.}.|.|.|.`.~.~.~.c.9                               .     ",
"                        . O   < = A D.~.~.~./.`.}.}.}.'.}.}.|.#X#X#XoX#XOXOXOX+X+X+X+X+X+X+X+XoX}.}.}.}.'.}.}.}.}.~.~.E.D.<.o                           - o     ",
"                              + 4 5.~.~.E.E._.}.`.`.}.}.`.`.oXoXoXoXoXoXoXoXoXoXoXoXoXoXoXoXoXoX'.`.}.`.}.`.`.}.`./.~.~.~.c.0                           r =     ",
"              .                 A D.D.D.~.~.`.`.`.`.`.`.`.}.'.oXoXoX'.oXoXoXoXoX'.oX'.oXoX'.oX'.}.`.`.`.`.`.`.`.`.`.E.E.E.E.^ o                         o .     ",
"  #           % .             3 4.~.D.~.D.!.`.!.`.`.`./.!.'.'.'._.'.'.oX_.'.Q.'.'.'.'.'.'.'.'.'.`._.`.`.`._.`./.!.`.R.E.E.E.k.t     .               . .         ",
"                            . c S.R.D.D.~.!.!.!.!.!.!.!._._.oX_._._.'._._.'.'.'.'.'.'.'.'.`.'.'.`.!.!.!./.!._.W.!.`.W.E.E.E.E.^ o                               ",
"                            3 4.~.D.D.D.G.!.!.!.!.G.!.!._.G.G.oX_._._.Q.Q.Q._.Q.Q.Q._._.Q.Q.Q.Q.!.!.W.W.W.!.W.Q.W.W.!.E.D.D.E.j.0                               ",
"                            c c.D.D.D.F.G.Q.Q.G.G.!.G._.G._._.G.Q.Q.Q.Q.Q.Q.W.Q.R.Q.Q.Q.Q.Q.Q.W.Q.Q.W.W.W.W.Q.Q.G.W.Q.G.D.F.D.D.^ o                         . X ",
"                          * <.D.F.F.F.F.G.G.G.G.G.G.G.G.G.G.G.G.R.R.R.A.R.R.R.R.P.A.C.C.C.G.R.R.F.F.A.R.R.R.G.R.W.Q.G.G.F.F.F.D.j.t             .         X     ",
"                        X z N.F.F.F.Z.G.G.G.G.G.G.F.G.G.G.G.G.G.A.R.G.A.R.G.A.C.x.f.l.l.f.x.C.C.x.x.f.C.G.G.G.G.G.G.G.G.G.G.C.F.F.A O                 . .   .   ",
"                  .     * ' Z.F.Z.Z.Z.G.G.G.G.G.G.F.G.G.G.G.G.G.A.A.A.A.A.V.x.f.f.s.l.s.l.s.l.f.s.f.f.f.V.A.A.A.G.G.C.A.Z.C.C.V.F.h.0                       .   ",
"                  .     t N.V.B.Z.Z.Z.F.Z.Z.Z.Z.Z.Z.Z.Z.Z.Z.Z.C.A.Z.V.V.N.l.f.s.f.f.s.f.s.s.f.s.f.f.f.j.V.Z.Z.Z.Z.Z.Z.Z.Z.Z.Z.Z.Z.F.A +       .               X ",
"                      % ' Z.V.B.B.B.B.Z.Z.B.Z.Z.Z.Z.Z.Z.Z.Z.Z.Z.Z.Z.V.N.f.i.s.s.a.a.a.s.s.s.s.j.j.j.j.k.Z.Z.Z.Z.Z.Z.Z.Z.Z.Z.Z.B.B.B.y.4                         ",
"        . . .         t v.B.Z.Z.B.B.B.Z.Z.B.B.B.B.B.B.B.B.B.B.B.B.B.m.s.a.s.i.s.a.j.g.j.j.j.i.j.B.B.M.B.B.B.B.Z.B.B.B.B.B.B.M.B.B.B.B.S +       .     .         ",
"        X   e =     + ^ B.n.M.B.m.M.m.m.B.M.M.M.B.n.M.n.B.n.m.m.M.n.i.i.i.i.a.p.j.b.a.j.m.g.a.m.m.m.M.M.M.m.M.M.n.M.M.M.M.M.M.m.M.M.M.h.4 X                   . ",
"            X       0 y.v.b.b.b.n.b.b.b.b.m.b.n.n.v.b.n.n.b.b.b.h.a.g.g.i.i.g.b.b.g.g.n.b.a.p.b.b.n.b.b.b.m.b.m.m.m.b.b.b.b.M.n.b.b.b.m.A +                     ",
"        . .       o Q y.u.v.v.u.v.v.u.v.u.v.u.y.y.n.v.v.v.y.v.h.p.p.h.p.i.p.v.v.v.g.h.v.h.p.h.v.v.n.v.v.u.y.y.y.u.u.u.y.u.n.u.u.u.y.u.u.w.3 .           .       ",
"              . X 4 w.u.y.y.y.y.y.u.y.y.y.y.r.y.y.y.y.y.6.h.7.i.7.y.p.7.7.r.y.y.7.7.y.y.6.p.r.t.u.n.u.v.y.y.y.y.y.y.y.y.y.y.y.y.y.y.y.u.y.T O             .   . ",
"  X       . X   + T w.e.y.y.e.e.e.e.e.e.e.e.e.e.e.e.e.e.6.7.7.6.6.6.5.5.6.e.e.r.e.e.e.e.7.6.e.e.e.e.e.t.e.e.e.e.e.e.e.e.e.e.e.e.e.e.e.e.e.2.3                 X ",
"O ;             4 2.w.w.w.w.w.w.w.w.w.w.q.q.w.w.w.w.w.w.q.w.w.w.w.5.4.6.w.w.w.w.w.w.w.6.5.q.w.w.w.w.w.w.w.w.w.w.w.q.w.q.w.w.w.e.w.w.w.w.w.q.T X X X .           ",
"# %   .       o P 0.0.q.0.0.0.0.w.0.0.0.0.q.q.q.q.q.q.q.q.0.0.0.4.4.3.q.q.q.q.0.q.0.q.3.6.q.0.0.0.0.0.q.0.q.w.q.0.0.q.q.0.q.0.q.0.0.q.q.0.0.] w # ; .           ",
"      X X     4 ) 2.9.8.1.1.1.1.1.8.8.9.8.1.8.9.1.1.] 2.1.1.3.3.4.4.1.9.1.1.1.1.9.2.2.2.0.9.8.9.8.8.0.9.9.9.9.9.9.1.9.9.9.] 2.2.9.9.9.] 9.2.1.P O O .           ",
"            . c _ 8._ _ _ 1._ _ _ _ 1.] ] ] ] ] ] ] ] ] _ 3.4.<.<.3.] ] _ _ ] ] ] ] ] ] ] ] ] _ _ ] _ _ 8.] ] ] ] ] ] ] ] ] ] ] ] 9.] ] ] ] ] Q 3       .       ",
"            3 R ) ) ) ) ) ) / / ) ) / / ) _ _ ) ) ) _ ) ( ( ( _ _ ) ) ) ) / ) ~ ) ) ) ) ) ) ) ) ( ) ) ( / ) ) ) / ) ) ) ) ) ) / ) ) ) ) ) ) ) ) c X     X       ",
"            x ~ W W W / ) W ~ ~ W ! W W W ~ ~ W W ) ) Q W W ! ! ~ W / ~ W ~ ~ ~ ! ! ! Q ! ~ ~ W W W ! ! ~ ~ ( ! W W W ! ~ W W W ! ! ! ! ! ! W ! U <             ",
"          : L E R R R E E R U R E E R R R R R R E ~ W Y Y Y Y Y R R ~ W R R R R E R R R Y R R R R R E R R R R R Y Y R R R R R R Y Y Y Y Y Y Y Y E x o           ",
"          y P I I I I I I I U I P P I I I I I P I I I I I I I I I I I I I I I I I I I I P P I U I I I I I I I I I I I I I I I U I I I I I Y I I U J <           ",
"        = x K H H L H H H I U J H H H H J H H H K K J L L L J L L I L H H H J J J J H H H H H H K L L L H H H H H H H H H H H L J J J J J I J H H H e X         ",
"O     . 3 x x x x x x H H H H f x H x H H x x x x x x x x x x x f H J H f H x x x x f H x H i H x x H x x x x x H x i H H H x i x x x x x x x H x x i =         ",
"      O w y y y y y i K K y y u y y i i y y y y y y i i i y i u y u u y y u u y y y y u y y y y y y y y y y y y u y u i u y y u u f i f u u i i u i i q .       ",
"  . - ; w w w w w w w e r w w w w w w w w q w e w w w w w w e e w w w w q w w w w w w w w e e w w w w w w w w w w w w w e w w w e e r e w w e e w w w q O       ",
"    = ; : ; : : ; : : : : : : : : : : : : : < : : : ; ; : : : : : : : : : : : : : : : : : : : : : : : < < : : : : : : < : : : : 3 : : : : : : : : : : : =       ",
".     O O # = # O X O O O X O O = O O O = O O O O O O O O O # O O O O X O O X O O = O O X O O O O O O # O O O O O O O O O O O O O O = ; # O # # O X X O O       ",
"            X         X O       # O                                 X   X X     O O         X           X                             . X       X X             ",
"            .             O X   # O       O             .                       X                 X                 X                             X             "
};
